<?xml version="1.0" encoding="UTF-8" standalone="no"?>
<!DOCTYPE svg PUBLIC "-//W3C//DTD SVG 1.1//EN" "http://www.w3.org/Graphics/SVG/1.1/DTD/svg11.dtd">
<svg width="100%" height="100%" viewBox="0 0 1284 1150" version="1.1" xmlns="http://www.w3.org/2000/svg" xmlns:xlink="http://www.w3.org/1999/xlink" xml:space="preserve" style="fill-rule:evenodd;clip-rule:evenodd;stroke-linecap:round;stroke-linejoin:round;stroke-miterlimit:1.5;">
    <g id="business.-credit.-wallet">
        <g>
            <path d="M640.295,1008.91L1141.86,599.88" style="fill:none;stroke:#b3b8c5;stroke-opacity:0.101961;stroke-width:277.07px;"/>
            <path d="M140.304,548.275L641.866,139.242" style="fill:none;stroke:#b3b8c5;stroke-opacity:0.101961;stroke-width:277.07px;"/>
            <path d="M281.049,869.085L941.255,330.674" style="fill:none;stroke:#b3b8c5;stroke-opacity:0.101961;stroke-width:364.71px;"/>
        </g>
        <path d="M798.62,203.922C795.613,192.698 784.076,186.037 772.853,189.045C692.248,210.642 395.531,290.148 314.926,311.746C303.703,314.753 297.042,326.29 300.049,337.513C314.77,392.452 355.237,543.478 369.958,598.416C372.965,609.64 384.502,616.301 395.726,613.294C476.33,591.696 773.048,512.19 853.652,490.593C864.876,487.585 871.537,476.049 868.529,464.825C853.808,409.886 813.341,258.861 798.62,203.922Z" style="fill:#68718b;stroke:#505a78;stroke-width:16.67px;"/>
        <path d="M765.067,248.261C764.072,244.55 761.644,241.385 758.316,239.464C754.989,237.543 751.034,237.022 747.322,238.017C734.52,241.447 715.678,246.496 702.876,249.926C699.164,250.921 696,253.349 694.079,256.677C692.157,260.004 691.637,263.959 692.631,267.671C696.062,280.473 701.11,299.315 704.541,312.117C705.535,315.829 707.963,318.993 711.291,320.914C714.619,322.836 718.573,323.356 722.285,322.362C735.088,318.931 753.929,313.883 766.732,310.452C770.443,309.458 773.608,307.03 775.529,303.702C777.45,300.374 777.971,296.42 776.976,292.708C773.546,279.905 768.497,261.064 765.067,248.261Z" style="fill:#dcdee4;"/>
        <path d="M898.155,387.193C898.155,370.089 884.289,356.223 867.185,356.223C758.651,356.223 396.225,356.223 287.69,356.223C270.586,356.223 256.72,370.089 256.72,387.193C256.72,470.272 256.72,697.384 256.72,780.462C256.72,797.566 270.586,811.432 287.69,811.432C396.225,811.432 758.651,811.432 867.185,811.432C884.289,811.432 898.155,797.566 898.155,780.462C898.155,697.384 898.155,470.272 898.155,387.193Z" style="fill:#27b7ff;"/>
        <clipPath id="_clip1">
            <path d="M898.155,387.193C898.155,370.089 884.289,356.223 867.185,356.223C758.651,356.223 396.225,356.223 287.69,356.223C270.586,356.223 256.72,370.089 256.72,387.193C256.72,470.272 256.72,697.384 256.72,780.462C256.72,797.566 270.586,811.432 287.69,811.432C396.225,811.432 758.651,811.432 867.185,811.432C884.289,811.432 898.155,797.566 898.155,780.462C898.155,697.384 898.155,470.272 898.155,387.193Z"/>
        </clipPath>
        <g clip-path="url(#_clip1)">
            <rect x="198.164" y="318.506" width="276.083" height="551" style="fill:#6ed1ff;stroke:#505a78;stroke-width:16.67px;"/>
        </g>
        <path d="M898.155,387.193C898.155,370.089 884.289,356.223 867.185,356.223C758.651,356.223 396.225,356.223 287.69,356.223C270.586,356.223 256.72,370.089 256.72,387.193C256.72,470.272 256.72,697.384 256.72,780.462C256.72,797.566 270.586,811.432 287.69,811.432C396.225,811.432 758.651,811.432 867.185,811.432C884.289,811.432 898.155,797.566 898.155,780.462C898.155,697.384 898.155,470.272 898.155,387.193Z" style="fill:none;stroke:#505a78;stroke-width:16.67px;"/>
        <path d="M682.333,465.754C683.66,465.67 684.988,465.619 686.318,465.59C687.07,465.578 687.822,465.573 688.575,465.576C692.667,465.613 696.751,465.906 700.802,466.492C708.851,467.657 716.73,469.936 724.142,473.248C733.455,477.409 742.013,483.189 749.324,490.241C756.244,496.916 762.039,504.712 766.399,513.238C770.132,520.535 772.804,528.355 774.313,536.393C775.972,545.233 776.228,554.329 775.077,563.247C773.912,572.277 771.293,581.11 767.342,589.334C762.89,598.602 756.755,607.065 749.324,614.232C741.502,621.778 732.253,627.863 722.182,632.073C716.53,634.436 710.625,636.207 704.597,637.348C699.319,638.348 693.949,638.864 688.575,638.898C682.826,638.934 677.074,638.417 671.427,637.348C665.749,636.273 660.18,634.64 654.828,632.478C653.502,631.942 652.19,631.374 650.892,630.775L650.892,677.106C650.892,690.89 639.559,702.08 625.599,702.08C611.64,702.08 600.306,690.89 600.306,677.106L600.306,555.572C600.156,551.699 600.268,547.817 600.639,543.958C601.499,535.033 603.774,526.249 607.365,518.014C608.17,516.168 609.041,514.35 609.975,512.564C602.213,508.298 596.957,500.114 596.957,490.728C596.957,476.944 608.29,465.754 622.25,465.754L682.333,465.754ZM687.758,514.031C685.944,514.048 684.134,514.177 682.339,514.436C678.813,514.946 675.363,515.944 672.117,517.394C668.781,518.885 665.665,520.847 662.883,523.198C659.279,526.243 656.241,529.939 653.976,534.055C652.173,537.333 650.862,540.87 650.103,544.525C649.214,548.811 649.075,553.26 649.693,557.593C650.233,561.389 651.354,565.098 653.02,568.562C655.023,572.727 657.795,576.525 661.156,579.725C664.575,582.982 668.594,585.62 672.971,587.449C677.641,589.4 682.688,590.411 687.758,590.442C692.836,590.474 697.91,589.53 702.612,587.63C707.086,585.822 711.2,583.179 714.699,579.886C718.082,576.701 720.875,572.919 722.907,568.763C724.519,565.468 725.639,561.935 726.221,558.322C726.982,553.596 726.85,548.73 725.82,544.053C724.704,538.987 722.51,534.167 719.442,529.962C715.616,524.719 710.455,520.458 704.543,517.685C701.259,516.145 697.753,515.074 694.163,514.509C692.377,514.227 690.574,514.078 688.766,514.038C688.43,514.032 688.094,514.03 687.758,514.031Z" style="fill:#fff;"/>
        <path d="M425.458,533.389C425.458,516.285 411.592,502.419 394.488,502.419C356.895,502.419 293.879,502.419 256.286,502.419C239.182,502.419 225.316,516.285 225.316,533.389C225.316,562.335 225.316,605.32 225.316,634.266C225.316,651.37 239.182,665.236 256.286,665.236C293.879,665.236 356.895,665.236 394.488,665.236C411.592,665.236 425.458,651.37 425.458,634.266C425.458,605.32 425.458,562.335 425.458,533.389Z" style="fill:#27b7ff;stroke:#505a78;stroke-width:18.01px;"/>
        <circle cx="343.741" cy="583.828" r="26.623" style="fill:#505a78;stroke:#505a78;stroke-width:16.67px;"/>
        <g>
            <circle cx="929.027" cy="828.159" r="191.109" style="fill:#505a78;fill-opacity:0.15;"/>
            <circle cx="912.36" cy="811.492" r="191.109" style="fill:#fff;stroke:#505a78;stroke-width:16.67px;stroke-dasharray:1000,33.33,1.67,33.33;"/>
            <path d="M947.593,814.331C946.958,813.881 946.293,813.478 945.6,813.123L894.491,787.198C885.828,780.648 881.619,771.23 883.479,762.396C884.793,756.16 889.026,750.787 895.395,747.268C902.526,743.326 911.295,742.175 920.095,744.029C930.369,746.193 939.172,752.313 943.637,760.403C947.839,768.004 957.396,770.769 965.012,766.567C972.613,762.369 975.375,752.798 971.176,745.193C962.216,728.972 945.961,717.329 926.577,713.247C925.54,713.028 924.501,712.9 923.462,712.729C924.172,711.179 924.594,709.47 924.594,707.654L924.594,684.934C924.594,678.179 919.115,672.701 912.36,672.701C905.605,672.701 900.126,678.179 900.126,684.934L900.126,707.654C900.126,709.418 900.516,711.086 901.189,712.601C893.792,713.781 886.677,716.143 880.185,719.732C865.685,727.74 855.923,740.591 852.697,755.914C848.154,777.48 857.517,799.537 877.127,813.471C877.762,813.921 878.427,814.324 879.12,814.679L930.229,840.604C938.892,847.154 943.101,856.572 941.241,865.406C939.927,871.642 935.694,877.015 929.325,880.534C922.187,884.476 913.418,885.62 904.625,883.773C894.351,881.609 885.548,875.489 881.083,867.399C876.878,859.798 867.32,857.036 859.708,861.235C852.107,865.433 849.345,875.004 853.544,882.609C862.504,898.83 878.758,910.473 898.143,914.555C898.818,914.697 899.496,914.752 900.172,914.874C900.166,915.029 900.126,915.174 900.126,915.33L900.126,938.05C900.126,944.805 905.605,950.283 912.36,950.283C919.115,950.283 924.594,944.805 924.594,938.05L924.594,915.33C924.594,915.236 924.568,915.149 924.566,915.055C931.592,913.821 938.344,911.492 944.535,908.07C959.035,900.062 968.797,887.211 972.023,871.888C976.566,850.322 967.203,828.265 947.593,814.331L947.593,814.331Z" style="fill:#505a78;fill-rule:nonzero;"/>
        </g>
    </g>
</svg>
