<?xml version="1.0" encoding="UTF-8" standalone="no"?>
<!DOCTYPE svg PUBLIC "-//W3C//DTD SVG 1.1//EN" "http://www.w3.org/Graphics/SVG/1.1/DTD/svg11.dtd">
<svg width="100%" height="100%" viewBox="0 0 1284 1150" version="1.1" xmlns="http://www.w3.org/2000/svg" xmlns:xlink="http://www.w3.org/1999/xlink" xml:space="preserve" style="fill-rule:evenodd;clip-rule:evenodd;stroke-linecap:round;stroke-linejoin:round;stroke-miterlimit:1.5;">
    <g id="dashboard.-money">
        <g>
            <path d="M641.003,1009.84L1142.56,600.802" style="fill:none;stroke:#27b7ff;stroke-opacity:0.101961;stroke-width:277.07px;"/>
            <path d="M141.012,549.198L642.573,140.165" style="fill:none;stroke:#27b7ff;stroke-opacity:0.101961;stroke-width:277.07px;"/>
            <path d="M281.757,870.008L941.963,331.597" style="fill:none;stroke:#27b7ff;stroke-opacity:0.101961;stroke-width:364.71px;"/>
        </g>
        <g id="Screen">
            <path d="M157.868,221.484C157.868,207.677 169.061,196.484 182.868,196.484C321.042,196.484 990.036,196.484 1128.21,196.484C1142.02,196.484 1153.21,207.677 1153.21,221.484C1153.21,336.398 1153.21,813.195 1153.21,928.109C1153.21,941.916 1142.02,953.109 1128.21,953.109C990.036,953.109 321.042,953.109 182.868,953.109C169.061,953.109 157.868,941.916 157.868,928.109C157.868,813.195 157.868,336.398 157.868,221.484Z" style="fill:#505a78;fill-opacity:0.15;"/>
            <path d="M132.868,196.484C132.868,182.677 144.061,171.484 157.868,171.484C296.042,171.484 965.036,171.484 1103.21,171.484C1117.02,171.484 1128.21,182.677 1128.21,196.484C1128.21,311.398 1128.21,788.195 1128.21,903.109C1128.21,916.916 1117.02,928.109 1103.21,928.109C965.036,928.109 296.042,928.109 157.868,928.109C144.061,928.109 132.868,916.916 132.868,903.109C132.868,788.195 132.868,311.398 132.868,196.484Z" style="fill:#27b7ff;"/>
            <rect x="397.187" y="743.069" width="731.023" height="185.04" style="fill:#6ed1ff;"/>
            <g>
                <path d="M404.824,262.545L132.868,262.545C132.868,262.545 132.868,782.051 132.868,903.109C132.868,909.74 135.502,916.098 140.19,920.787C144.879,925.475 151.238,928.109 157.868,928.109C225.117,928.109 404.824,928.109 404.824,928.109L404.824,262.545Z" style="fill:#fff;"/>
                <circle cx="267.822" cy="793.158" r="54.281" style="fill:none;stroke:#dcdee4;stroke-width:12.77px;stroke-dasharray:1276.65,25.53,1.28,25.53;"/>
                <g>
                    <path d="M322.104,595.327C322.104,625.286 297.781,649.608 267.822,649.608C237.864,649.608 213.541,625.286 213.541,595.327C213.541,565.368 237.864,541.046 267.822,541.046C274.201,541.046 280.325,542.148 286.013,544.173" style="fill:none;stroke:#27b7ff;stroke-width:12.77px;stroke-dasharray:1276.65,25.53,1.28,25.53;"/>
                    <path d="M239.515,588.73L262.32,610.787L317.982,554.677" style="fill:none;stroke:#27b7ff;stroke-width:12.77px;stroke-dasharray:1276.65,25.53,1.28,25.53;"/>
                </g>
                <g>
                    <path d="M322.104,389.517C322.104,419.476 297.781,443.799 267.822,443.799C237.864,443.799 213.541,419.476 213.541,389.517C213.541,359.559 237.864,335.236 267.822,335.236C274.201,335.236 280.325,336.339 286.013,338.364" style="fill:none;stroke:#27b7ff;stroke-width:12.77px;stroke-dasharray:1276.65,25.53,1.28,25.53;"/>
                    <path d="M239.515,382.92L262.32,404.977L317.982,348.868" style="fill:none;stroke:#27b7ff;stroke-width:12.77px;stroke-dasharray:1276.65,25.53,1.28,25.53;"/>
                </g>
            </g>
            <g>
                <path d="M1128.21,262.545C1128.21,262.545 1128.21,222.821 1128.21,195.592C1128.21,181.784 1117.02,170.592 1103.21,170.592C965.036,170.592 296.042,170.592 157.868,170.592C144.061,170.592 132.868,181.784 132.868,195.592C132.868,222.821 132.868,262.545 132.868,262.545L1128.21,262.545Z" style="fill:#dcdee4;stroke:#505a78;stroke-width:9.82px;stroke-dasharray:981.6,19.63,0.98,19.63;stroke-dashoffset:-785.28;"/>
                <g>
                    <circle cx="211.975" cy="216.513" r="18.429" style="fill:#b3b8c5;"/>
                    <circle cx="269.875" cy="216.513" r="18.429" style="fill:#b3b8c5;"/>
                    <circle cx="327.868" cy="216.513" r="18.429" style="fill:#b3b8c5;"/>
                </g>
            </g>
            <path d="M1128.21,196.484C1128.21,182.677 1117.02,171.484 1103.21,171.484C965.036,171.484 296.042,171.484 157.868,171.484C144.061,171.484 132.868,182.677 132.868,196.484C132.868,311.398 132.868,788.195 132.868,903.109C132.868,916.916 144.061,928.109 157.868,928.109C296.042,928.109 965.036,928.109 1103.21,928.109C1117.02,928.109 1128.21,916.916 1128.21,903.109C1128.21,788.195 1128.21,311.398 1128.21,196.484Z" style="fill:none;stroke:#505a78;stroke-width:9.82px;stroke-dasharray:981.6,19.63,0.98,19.63;"/>
            <g>
                <path d="M489.14,509.15L492.812,517.937L492.812,666.741L489.14,675.528L480.353,679.199L480.27,679.199L471.483,675.528L467.812,666.741L467.812,517.937L471.483,509.15L480.27,505.478L480.353,505.478L489.14,509.15Z" style="fill:#fff;"/>
                <path d="M551.872,434.571L555.544,443.358L555.544,666.741L551.872,675.528L543.086,679.199L543.002,679.199L534.216,675.528L530.544,666.741L530.544,443.358L534.216,434.571L543.002,430.899L543.086,430.899L551.872,434.571Z" style="fill:#fff;"/>
                <path d="M614.605,541.132L618.277,549.919L618.277,666.741L614.605,675.528L605.818,679.199L605.735,679.199L596.948,675.528L593.277,666.741L593.277,549.919L596.948,541.132L605.735,537.46L605.818,537.46L614.605,541.132Z" style="fill:#fff;"/>
                <path d="M677.337,380.108L681.009,388.894L681.009,666.741L677.337,675.528L668.551,679.199L668.467,679.199L659.681,675.528L656.009,666.741L656.009,388.894L659.681,380.108L668.467,376.436L668.551,376.436L677.337,380.108Z" style="fill:#fff;"/>
                <path d="M740.07,337.751L743.742,346.538L743.742,666.741L740.07,675.528L731.283,679.199L731.2,679.199L722.413,675.528L718.742,666.741L718.742,346.538L722.413,337.751L731.2,334.079L731.283,334.079L740.07,337.751Z" style="fill:#fff;"/>
                <path d="M802.802,467.879L806.474,476.666L806.474,666.741L802.802,675.528L794.016,679.199L793.932,679.199L785.146,675.528L781.474,666.741L781.474,476.666L785.146,467.879L793.932,464.207L794.016,464.207L802.802,467.879Z" style="fill:#fff;"/>
                <path d="M865.535,569.077L869.207,577.864L869.207,666.741L865.535,675.528L856.748,679.199L856.665,679.199L847.878,675.528L844.207,666.741L844.207,577.864L847.878,569.077L856.665,565.405L856.748,565.405L865.535,569.077Z" style="fill:#fff;"/>
                <path d="M928.267,546.221L931.939,555.008L931.939,666.741L928.267,675.528L919.481,679.199L919.397,679.199L910.611,675.528L906.939,666.741L906.939,555.008L910.611,546.221L919.397,542.549L919.481,542.549L928.267,546.221Z" style="fill:#fff;"/>
                <path d="M991,410.331L994.672,419.118L994.672,666.741L991,675.528L982.213,679.199L982.13,679.199L973.343,675.528L969.672,666.741L969.672,419.118L973.343,410.331L982.13,406.66L982.213,406.66L991,410.331Z" style="fill:#fff;"/>
                <path d="M1053.73,509.15L1057.4,517.937L1057.4,666.741L1053.73,675.528L1044.95,679.199L1044.86,679.199L1036.08,675.528L1032.4,666.741L1032.4,517.937L1036.08,509.15L1044.86,505.478L1044.95,505.478L1053.73,509.15Z" style="fill:#fff;"/>
            </g>
        </g>
        <g>
            <circle cx="1071.73" cy="869.65" r="191.109" style="fill:#505a78;fill-opacity:0.15;"/>
            <circle cx="1055.06" cy="852.983" r="191.109" style="fill:#fff;stroke:#505a78;stroke-width:12.5px;stroke-dasharray:875,25,1.25,25;stroke-dashoffset:-250;"/>
            <path d="M1090.3,855.823C1089.66,855.372 1088.99,854.969 1088.3,854.614L1037.19,828.689C1028.53,822.139 1024.32,812.722 1026.18,803.888C1027.5,797.651 1031.73,792.279 1038.1,788.76C1045.23,784.817 1054,783.667 1062.8,785.52C1073.07,787.684 1081.87,793.805 1086.34,801.894C1090.54,809.496 1100.1,812.261 1107.71,808.059C1115.32,803.86 1118.08,794.289 1113.88,786.684C1104.92,770.464 1088.66,758.821 1069.28,754.738C1068.24,754.52 1067.2,754.392 1066.16,754.22C1066.87,752.67 1067.3,750.962 1067.3,749.145L1067.3,726.426C1067.3,719.671 1061.82,714.192 1055.06,714.192C1048.31,714.192 1042.83,719.671 1042.83,726.426L1042.83,749.145C1042.83,750.91 1043.22,752.577 1043.89,754.092C1036.49,755.272 1029.38,757.635 1022.89,761.224C1008.39,769.232 998.625,782.083 995.399,797.406C990.856,818.972 1000.22,841.029 1019.83,854.962C1020.46,855.413 1021.13,855.816 1021.82,856.171L1072.93,882.096C1081.59,888.646 1085.8,898.063 1083.94,906.897C1082.63,913.134 1078.4,918.506 1072.03,922.025C1064.89,925.968 1056.12,927.111 1047.33,925.265C1037.05,923.101 1028.25,916.98 1023.78,908.891C1019.58,901.289 1010.02,898.528 1002.41,902.726C994.808,906.925 992.047,916.496 996.245,924.101C1005.21,940.321 1021.46,951.964 1040.85,956.047C1041.52,956.189 1042.2,956.244 1042.87,956.366C1042.87,956.521 1042.83,956.665 1042.83,956.822L1042.83,979.541C1042.83,986.296 1048.31,991.775 1055.06,991.775C1061.82,991.775 1067.3,986.296 1067.3,979.541L1067.3,956.822C1067.3,956.727 1067.27,956.64 1067.27,956.546C1074.29,955.312 1081.05,952.983 1087.24,949.561C1101.74,941.553 1111.5,928.702 1114.72,913.379C1119.27,891.813 1109.9,869.756 1090.3,855.823L1090.3,855.823Z" style="fill:#505a78;fill-rule:nonzero;"/>
        </g>
    </g>
</svg>
