<?xml version="1.0" encoding="UTF-8" standalone="no"?>
<!DOCTYPE svg PUBLIC "-//W3C//DTD SVG 1.1//EN" "http://www.w3.org/Graphics/SVG/1.1/DTD/svg11.dtd">
<svg width="100%" height="100%" viewBox="0 0 1125 488" version="1.1" xmlns="http://www.w3.org/2000/svg" xmlns:xlink="http://www.w3.org/1999/xlink" xml:space="preserve" style="fill-rule:evenodd;clip-rule:evenodd;stroke-linecap:round;stroke-linejoin:round;stroke-miterlimit:1.5;">
    <g id="hub.-hiw.-3">
        <path d="M196.748,315.359L196.748,159.641L889.278,159.641L889.278,15.045L1111.73,237.5L889.278,459.955L889.278,315.359L196.748,315.359Z" style="fill:#dcdee4;"/>
        <path d="M890.651,2.849L892.675,3.252L894.602,3.988L896.379,5.036L897.955,6.367L1120.41,228.822L1121.66,230.286L1122.67,231.928L1123.4,233.707L1123.85,235.58L1124.01,237.5L1123.85,239.42L1123.4,241.293L1122.67,243.072L1121.66,244.714L1120.41,246.178L897.955,468.633L896.379,469.964L894.602,471.013L892.675,471.748L890.651,472.151L888.589,472.209L886.546,471.92L884.58,471.294L882.747,470.347L881.099,469.106L879.682,467.607L878.535,465.892L877.693,464.008L877.177,462.011L877.004,459.955L877.004,327.632L196.748,327.632L194.828,327.481L192.955,327.031L191.176,326.294L189.534,325.288L188.07,324.037L186.819,322.573L185.813,320.931L185.076,319.151L184.626,317.279L184.475,315.359L184.475,159.641L184.626,157.721L185.076,155.848L185.813,154.069L186.819,152.427L188.07,150.962L189.534,149.712L191.176,148.705L192.955,147.968L194.828,147.519L196.748,147.368L877.004,147.368L877.004,15.045L877.177,12.989L877.693,10.992L878.535,9.108L879.682,7.393L881.099,5.894L882.747,4.653L884.58,3.706L886.546,3.08L888.589,2.791L890.651,2.849ZM889.278,159.641L196.748,159.641L196.748,315.359L889.278,315.359L889.278,459.955L1111.73,237.5L889.278,15.045L889.278,159.641Z" style="fill:#dcdee4;"/>
        <g>
            <g>
                <path d="M138.137,157.286L161.308,134.694L284.797,134.694L307.968,157.286L307.968,297.429L138.137,297.429L138.137,157.286Z" style="fill:#27b7ff;"/>
                <path d="M138.137,158.845L161.308,134.694L284.797,134.694L307.968,159.16" style="fill:#6ed1ff;"/>
                <path d="M138.137,157.286L161.308,134.694L284.797,134.694L307.968,157.286L307.968,297.429L138.137,297.429L138.137,157.286Z" style="fill:none;stroke:#505a78;stroke-width:8.33px;stroke-dasharray:500,25,0.83,16.67;"/>
                <path d="M205.328,259.419C205.328,258.31 204.427,257.409 203.318,257.409L160.869,257.409C159.76,257.409 158.86,258.31 158.86,259.419L158.86,276.278C158.86,277.387 159.76,278.287 160.869,278.287L203.318,278.287C204.427,278.287 205.328,277.387 205.328,276.278L205.328,259.419Z" style="fill:#fff;"/>
                <path d="M257.796,181.157C258.119,181.136 258.443,181.123 258.767,181.116C258.95,181.113 259.133,181.112 259.317,181.112C260.314,181.122 261.309,181.195 262.296,181.341C264.257,181.632 266.177,182.2 267.983,183.027C270.252,184.065 272.337,185.507 274.118,187.267C275.804,188.933 277.216,190.878 278.279,193.006C279.188,194.827 279.839,196.778 280.207,198.784C280.611,200.99 280.673,203.26 280.393,205.485C280.109,207.739 279.471,209.943 278.508,211.995C277.424,214.308 275.929,216.42 274.118,218.208C272.212,220.091 269.959,221.61 267.505,222.66C266.128,223.25 264.689,223.692 263.22,223.977C261.935,224.226 260.626,224.355 259.317,224.363C257.916,224.372 256.515,224.243 255.139,223.977C253.755,223.708 252.398,223.301 251.095,222.761C250.771,222.628 250.452,222.486 250.136,222.336L250.136,233.898C250.136,237.337 247.374,240.13 243.973,240.13C240.572,240.13 237.81,237.337 237.81,233.898L237.81,203.57C237.774,202.604 237.801,201.635 237.891,200.672C238.101,198.445 238.655,196.253 239.53,194.198C239.726,193.737 239.939,193.283 240.166,192.838C238.275,191.773 236.994,189.731 236.994,187.389C236.994,183.949 239.756,181.157 243.157,181.157L257.796,181.157ZM259.118,193.204C258.676,193.208 258.235,193.24 257.797,193.305C256.938,193.432 256.098,193.681 255.307,194.043C254.494,194.415 253.735,194.905 253.057,195.491C252.179,196.251 251.439,197.174 250.887,198.201C250.448,199.019 250.128,199.901 249.943,200.813C249.727,201.883 249.693,202.993 249.843,204.074C249.975,205.022 250.248,205.947 250.654,206.812C251.142,207.851 251.817,208.799 252.636,209.597C253.469,210.41 254.448,211.068 255.515,211.525C256.653,212.012 257.882,212.264 259.118,212.272C260.355,212.28 261.591,212.044 262.737,211.57C263.827,211.119 264.829,210.459 265.682,209.637C266.506,208.843 267.187,207.899 267.682,206.862C268.074,206.04 268.348,205.158 268.489,204.256C268.675,203.077 268.643,201.863 268.391,200.696C268.12,199.431 267.585,198.229 266.837,197.179C265.905,195.871 264.648,194.808 263.207,194.116C262.407,193.731 261.553,193.464 260.678,193.323C260.243,193.253 259.804,193.215 259.363,193.206C259.281,193.204 259.2,193.204 259.118,193.204Z" style="fill:#fff;"/>
            </g>
            <path d="M135.315,439.442L124.054,372.223L86.782,311.434L75.259,313.741L61.457,379.604L20.506,425.244L8.887,430.889L44.21,372.995L50.304,288.286L114.967,287.618L141.318,357.176L146.469,437.986L166.858,435.326C171.751,434.687 176.44,437.496 178.187,442.11C178.188,442.111 178.188,442.112 178.188,442.112L138.921,459.955L135.212,439.455L135.315,439.442ZM48.092,459.955L24.379,459.955C24.379,459.955 9.443,432.791 9.443,432.791L24.183,424.269L38.911,449.743L39.662,449.743C41.898,449.743 44.042,450.631 45.623,452.212C47.204,453.793 48.092,455.937 48.092,458.173L48.092,459.955Z" style="fill:#505a78;"/>
            <path d="M23.429,466.132L22.501,465.916L21.617,465.561L20.797,465.076L20.06,464.472L19.423,463.763L18.902,462.966L3.967,435.802L3.532,434.819L3.272,433.777L3.256,433.566L2.933,432.79L2.696,431.747L2.64,430.678L2.768,429.616L3.074,428.591L3.551,427.633L38.085,371.034L38.935,359.211L44.07,287.838L44.229,286.817L44.554,285.837L45.036,284.924L45.661,284.102L46.413,283.395L47.272,282.821L48.213,282.396L49.211,282.132L50.24,282.037L114.903,281.368L115.987,281.451L117.04,281.721L118.03,282.169L118.928,282.782L119.706,283.542L120.34,284.424L120.812,285.404L147.163,354.962L147.427,355.856L147.555,356.779L152.282,430.925L166.083,429.124L166.412,429.085L166.774,429.049L167.136,429.022L167.497,429.002L167.858,428.99L168.218,428.985L168.577,428.989L168.935,429L169.292,429.018L169.647,429.044L170.002,429.078L170.354,429.118L170.705,429.166L171.054,429.222L171.401,429.284L171.747,429.354L172.09,429.431L172.431,429.514L172.769,429.605L173.105,429.703L173.439,429.807L173.77,429.918L174.098,430.036L174.423,430.16L174.746,430.291L175.065,430.428L175.382,430.572L175.695,430.722L176.005,430.879L176.311,431.042L176.614,431.211L176.913,431.386L177.209,431.567L177.501,431.755L177.79,431.948L178.074,432.147L178.354,432.352L178.63,432.563L178.902,432.78L179.17,433.002L179.433,433.231L179.692,433.464L179.946,433.704L180.195,433.948L180.44,434.199L180.68,434.454L180.914,434.715L181.144,434.982L181.368,435.253L181.587,435.53L181.801,435.811L182.009,436.098L182.211,436.39L182.408,436.686L182.599,436.987L182.784,437.293L182.962,437.603L183.135,437.918L183.301,438.238L183.46,438.562L183.614,438.889L183.76,439.222L183.9,439.558L184.008,439.835L184.033,439.899L184.32,440.904L184.435,441.942L184.376,442.985L184.145,444.004L183.746,444.97L183.193,445.855L182.499,446.637L181.685,447.292L180.773,447.802L141.507,465.645L140.535,465.993L139.519,466.176L138.488,466.19L137.468,466.033L136.487,465.711L135.573,465.232L134.75,464.61L134.041,463.86L133.465,463.004L133.038,462.064L132.771,461.067L129.062,440.568L128.963,439.561L128.973,439.409L118.091,374.454L83.734,318.418L80.53,319.06L67.574,380.886L67.354,381.675L67.032,382.429L66.615,383.134L66.109,383.778L30.766,423.168L42.701,443.811L42.891,443.852L43.241,443.935L43.587,444.027L43.932,444.127L44.273,444.235L44.612,444.352L44.948,444.477L45.28,444.61L45.609,444.751L45.935,444.9L46.257,445.057L46.575,445.222L46.889,445.394L47.199,445.575L47.505,445.763L47.807,445.959L48.104,446.162L48.396,446.373L48.684,446.591L48.966,446.817L49.243,447.05L49.515,447.29L49.782,447.538L50.043,447.792L50.297,448.053L50.544,448.319L50.785,448.591L51.018,448.869L51.243,449.151L51.462,449.439L51.673,449.731L51.876,450.028L52.072,450.329L52.26,450.635L52.44,450.946L52.613,451.26L52.778,451.578L52.935,451.9L53.084,452.226L53.225,452.555L53.358,452.887L53.483,453.223L53.599,453.561L53.708,453.903L53.808,454.247L53.9,454.594L53.983,454.943L54.058,455.295L54.124,455.649L54.182,456.005L54.23,456.363L54.271,456.722L54.302,457.083L54.324,457.445L54.338,457.808L54.342,458.134L54.342,459.955L54.247,461.04L53.965,462.092L53.505,463.08L52.88,463.972L52.109,464.742L51.217,465.367L50.23,465.828L49.177,466.11L48.092,466.205L24.379,466.205L23.429,466.132ZM21.9,432.808L18.382,434.842L17.867,435.14L28.075,453.705L34.084,453.705L33.5,452.871L21.9,432.808ZM147.278,444.184L146.257,444.233L145.242,444.115L144.26,443.833L143.337,443.395L142.497,442.812L142.101,442.428L143.642,450.944L163.049,442.126L147.278,444.184ZM56.125,294.476L51.111,364.168L50.444,373.443L50.294,374.422L49.992,375.366L49.545,376.25L35.681,398.973L55.684,376.68L69.142,312.459L69.439,311.462L69.898,310.529L70.505,309.684L71.244,308.951L72.094,308.352L73.032,307.901L74.032,307.613L85.555,305.305L86.635,305.185L87.719,305.254L88.775,305.51L89.771,305.945L90.677,306.545L91.464,307.293L92.111,308.167L129.383,368.956L129.756,369.663L130.036,370.412L130.218,371.19L139.468,426.404L135.14,358.512L110.669,293.912L56.125,294.476Z" style="fill:#505a78;"/>
            <path d="M117.35,189.517C117.452,177.142 112.379,165.286 103.356,156.816C94.333,148.345 82.181,144.03 69.837,144.913C69.834,144.913 69.831,144.914 69.828,144.914C63.403,145.373 57.471,148.524 53.493,153.589C49.515,158.655 47.86,165.165 48.937,171.515C53.878,200.662 61.412,245.098 61.412,245.098L49.988,282.758L116.579,282.663C116.579,282.663 117.011,230.439 117.35,189.517Z" style="fill:#27b7ff;"/>
            <path d="M122.828,282.715L122.726,283.793L122.439,284.837L121.975,285.815L121.35,286.7L120.582,287.463L119.694,288.082L118.712,288.538L117.666,288.818L116.588,288.913L49.997,289.008L48.941,288.92L47.915,288.655L46.949,288.22L46.07,287.628L45.304,286.897L44.673,286.046L44.194,285.101L43.881,284.089L43.744,283.039L43.786,281.98L44.007,280.944L54.557,246.163L55.004,244.692L42.772,172.54L42.713,172.181L42.656,171.801L42.605,171.422L42.558,171.042L42.517,170.662L42.481,170.282L42.449,169.902L42.423,169.522L42.401,169.142L42.385,168.762L42.373,168.382L42.367,168.003L42.366,167.623L42.369,167.244L42.377,166.866L42.391,166.488L42.409,166.11L42.432,165.733L42.46,165.356L42.493,164.98L42.53,164.605L42.573,164.23L42.62,163.856L42.672,163.483L42.729,163.11L42.791,162.739L42.858,162.368L42.929,161.999L43.005,161.63L43.086,161.263L43.172,160.896L43.262,160.531L43.357,160.167L43.457,159.804L43.561,159.443L43.67,159.082L43.784,158.724L43.903,158.366L44.026,158.01L44.153,157.656L44.286,157.303L44.423,156.952L44.564,156.602L44.71,156.254L44.861,155.908L45.016,155.564L45.176,155.222L45.341,154.881L45.509,154.542L45.683,154.206L45.861,153.871L46.043,153.539L46.23,153.208L46.421,152.88L46.617,152.554L46.818,152.231L47.022,151.909L47.231,151.59L47.445,151.274L47.663,150.96L47.885,150.648L48.111,150.339L48.342,150.033L48.578,149.729L48.817,149.429L49.06,149.132L49.306,148.838L49.556,148.549L49.81,148.262L50.066,147.98L50.327,147.701L50.59,147.426L50.857,147.155L51.128,146.888L51.401,146.624L51.678,146.364L51.958,146.108L52.24,145.856L52.526,145.607L52.815,145.363L53.107,145.123L53.402,144.886L53.7,144.654L54,144.425L54.303,144.201L54.609,143.981L54.918,143.764L55.23,143.552L55.544,143.344L55.86,143.14L56.179,142.94L56.501,142.745L56.825,142.553L57.151,142.366L57.48,142.183L57.811,142.004L58.145,141.83L58.48,141.66L58.818,141.494L59.158,141.333L59.501,141.176L59.845,141.024L60.191,140.876L60.539,140.732L60.889,140.593L61.242,140.458L61.595,140.328L61.951,140.202L62.309,140.081L62.668,139.965L63.029,139.853L63.392,139.746L63.756,139.643L64.122,139.545L64.489,139.452L64.858,139.364L65.228,139.28L65.6,139.201L65.973,139.127L66.347,139.058L66.722,138.993L67.099,138.934L67.477,138.879L67.856,138.829L68.236,138.784L68.617,138.744L68.999,138.709L69.361,138.681L69.412,138.678L70.051,138.636L70.711,138.602L71.37,138.576L72.028,138.559L72.686,138.551L73.343,138.551L74,138.56L74.656,138.577L75.31,138.602L75.964,138.637L76.617,138.679L77.268,138.73L77.918,138.789L78.567,138.857L79.215,138.933L79.861,139.017L80.505,139.109L81.148,139.21L81.789,139.319L82.429,139.436L83.066,139.561L83.702,139.694L84.335,139.836L84.967,139.985L85.596,140.142L86.223,140.308L86.848,140.481L87.47,140.663L88.09,140.852L88.707,141.049L89.322,141.254L89.934,141.467L90.543,141.688L91.149,141.916L91.753,142.153L92.353,142.397L92.95,142.648L93.544,142.908L94.135,143.175L94.723,143.45L95.307,143.732L95.888,144.022L96.465,144.319L97.039,144.624L97.609,144.936L98.175,145.256L98.738,145.584L99.296,145.918L99.85,146.261L100.401,146.61L100.947,146.967L101.489,147.331L102.027,147.702L102.56,148.081L103.089,148.467L103.613,148.86L104.132,149.26L104.647,149.667L105.158,150.082L105.663,150.503L106.163,150.932L106.659,151.367L107.149,151.81L107.634,152.259L108.113,152.715L108.586,153.176L109.051,153.643L109.511,154.115L109.963,154.593L110.409,155.076L110.848,155.564L111.28,156.058L111.705,156.556L112.124,157.06L112.535,157.568L112.94,158.081L113.337,158.599L113.728,159.121L114.111,159.649L114.488,160.18L114.857,160.717L115.219,161.257L115.574,161.802L115.922,162.351L116.263,162.904L116.596,163.462L116.922,164.023L117.24,164.588L117.551,165.158L117.855,165.731L118.152,166.307L118.441,166.887L118.722,167.471L118.996,168.059L119.262,168.649L119.521,169.243L119.772,169.841L120.015,170.441L120.251,171.045L120.479,171.651L120.699,172.261L120.912,172.874L121.117,173.489L121.313,174.107L121.502,174.728L121.683,175.351L121.857,175.977L122.022,176.605L122.179,177.236L122.328,177.869L122.469,178.504L122.602,179.142L122.726,179.781L122.843,180.422L122.951,181.066L123.052,181.711L123.144,182.358L123.227,183.007L123.302,183.657L123.369,184.309L123.428,184.962L123.478,185.616L123.519,186.272L123.553,186.93L123.577,187.588L123.593,188.247L123.601,188.908L123.6,189.549L122.828,282.715ZM111.095,188.47L111.083,187.973L111.064,187.478L111.039,186.983L111.008,186.489L110.97,185.996L110.926,185.504L110.876,185.013L110.819,184.524L110.756,184.036L110.687,183.549L110.612,183.063L110.53,182.579L110.442,182.096L110.348,181.614L110.248,181.134L110.142,180.656L110.03,180.18L109.912,179.705L109.787,179.232L109.657,178.76L109.521,178.291L109.379,177.824L109.23,177.358L109.076,176.895L108.916,176.434L108.75,175.975L108.579,175.518L108.401,175.063L108.218,174.611L108.029,174.161L107.834,173.714L107.633,173.269L107.427,172.827L107.215,172.387L106.998,171.95L106.774,171.516L106.546,171.084L106.311,170.656L106.071,170.23L105.826,169.808L105.575,169.388L105.319,168.971L105.057,168.558L104.79,168.148L104.517,167.741L104.239,167.337L103.956,166.937L103.667,166.54L103.373,166.146L103.074,165.756L102.769,165.37L102.459,164.987L102.144,164.608L101.824,164.233L101.499,163.862L101.168,163.494L100.832,163.13L100.492,162.771L100.146,162.415L99.795,162.063L99.439,161.716L99.078,161.373L98.713,161.034L98.344,160.701L97.97,160.373L97.594,160.05L97.213,159.733L96.829,159.421L96.441,159.114L96.05,158.813L95.655,158.517L95.257,158.226L94.856,157.941L94.451,157.662L94.043,157.388L93.632,157.119L93.218,156.856L92.8,156.598L92.38,156.346L91.956,156.1L91.53,155.859L91.101,155.624L90.669,155.394L90.234,155.17L89.797,154.952L89.357,154.74L88.915,154.533L88.47,154.332L88.022,154.136L87.572,153.947L87.12,153.763L86.666,153.585L86.209,153.413L85.751,153.247L85.29,153.086L84.827,152.932L84.362,152.783L83.895,152.641L83.427,152.504L82.956,152.374L82.484,152.249L82.01,152.131L81.535,152.018L81.058,151.912L80.579,151.811L80.099,151.717L79.618,151.629L79.135,151.547L78.651,151.471L78.166,151.402L77.68,151.338L77.192,151.281L76.704,151.23L76.214,151.186L75.724,151.147L75.232,151.115L74.74,151.09L74.247,151.07L73.754,151.058L73.259,151.051L72.765,151.051L72.269,151.057L71.773,151.07L71.277,151.089L70.78,151.115L70.279,151.148L70.055,151.165L69.837,151.185L69.62,151.208L69.403,151.233L69.187,151.262L68.971,151.293L68.756,151.327L68.542,151.364L68.329,151.403L68.116,151.445L67.904,151.49L67.693,151.538L67.483,151.589L67.274,151.642L67.065,151.697L66.858,151.756L66.651,151.817L66.445,151.881L66.24,151.947L66.036,152.016L65.833,152.088L65.631,152.162L65.431,152.239L65.231,152.318L65.032,152.4L64.835,152.485L64.638,152.572L64.443,152.661L64.249,152.753L64.057,152.848L63.865,152.945L63.675,153.044L63.486,153.146L63.298,153.25L63.112,153.357L62.927,153.466L62.744,153.578L62.562,153.692L62.381,153.808L62.202,153.927L62.024,154.048L61.848,154.171L61.674,154.297L61.501,154.425L61.33,154.555L61.16,154.688L60.992,154.823L60.825,154.96L60.661,155.099L60.498,155.241L60.336,155.384L60.177,155.53L60.019,155.679L59.863,155.829L59.709,155.981L59.557,156.136L59.407,156.293L59.258,156.452L59.112,156.613L58.967,156.776L58.824,156.941L58.684,157.109L58.545,157.278L58.409,157.45L58.274,157.623L58.143,157.798L58.013,157.974L57.887,158.152L57.762,158.331L57.64,158.512L57.521,158.693L57.405,158.877L57.29,159.061L57.179,159.247L57.07,159.434L56.963,159.623L56.859,159.812L56.758,160.003L56.659,160.195L56.563,160.388L56.469,160.582L56.378,160.777L56.289,160.974L56.203,161.171L56.12,161.369L56.039,161.569L55.961,161.769L55.886,161.97L55.813,162.172L55.742,162.375L55.675,162.579L55.61,162.784L55.548,162.989L55.488,163.196L55.431,163.402L55.377,163.61L55.326,163.819L55.277,164.028L55.231,164.237L55.187,164.447L55.146,164.658L55.108,164.87L55.073,165.082L55.041,165.294L55.011,165.507L54.984,165.72L54.96,165.934L54.938,166.148L54.919,166.362L54.904,166.577L54.89,166.792L54.88,167.008L54.872,167.223L54.868,167.439L54.866,167.655L54.867,167.871L54.87,168.088L54.877,168.304L54.886,168.521L54.898,168.737L54.913,168.954L54.931,169.171L54.952,169.387L54.976,169.604L55.002,169.821L55.032,170.038L55.064,170.254L55.103,170.491L67.574,244.053L67.661,245.012L67.6,245.972L67.402,246.87L67.393,246.912L58.418,276.496L110.38,276.422L111.1,189.486L111.101,188.967L111.095,188.47Z" style="fill:#27b7ff;"/>
            <path d="M56.169,163.269L64.66,154.478L80.212,159.051L95.418,221.219L115.814,213.554L169.578,212.122L182.455,199.097L194.979,204.948L195.951,219.109L162.922,224.973L89.536,238.629L56.169,163.269Z" style="fill:#505a78;"/>
            <path d="M92.012,233.93L162.177,220.874L191.538,215.661L190.99,207.684L189.25,206.871L183.353,204.115L172.541,215.052L172.061,215.469L171.522,215.808L170.938,216.061L170.322,216.222L169.689,216.288L116.624,217.701L96.884,225.12L96.207,225.311L95.507,225.385L94.805,225.341L94.121,225.179L93.473,224.904L92.881,224.524L92.361,224.05L91.928,223.496L91.595,222.876L91.371,222.209L76.734,162.372L65.905,159.187L61.114,164.146L92.012,233.93ZM62.148,151.154L62.693,150.804L63.286,150.544L63.912,150.379L64.556,150.312L65.202,150.346L65.836,150.48L81.387,155.054L82.062,155.318L82.681,155.695L83.225,156.174L83.678,156.739L84.026,157.375L84.259,158.061L98.349,215.666L114.348,209.654L115.014,209.465L115.703,209.389L167.793,208.002L179.492,196.168L179.975,195.749L180.516,195.409L181.103,195.156L181.721,194.995L182.357,194.931L182.995,194.965L183.621,195.097L184.219,195.322L196.743,201.173L197.295,201.484L197.793,201.875L198.226,202.337L198.584,202.86L198.859,203.43L199.045,204.036L199.136,204.663L200.108,218.824L200.1,219.5L199.982,220.167L199.757,220.806L199.432,221.399L199.016,221.933L198.518,222.392L197.953,222.764L197.334,223.04L196.68,223.212L163.667,229.073L90.298,242.726L89.606,242.796L88.911,242.749L88.234,242.588L87.593,242.316L87.007,241.941L86.491,241.474L86.06,240.927L85.726,240.316L52.359,164.956L52.129,164.29L52.015,163.595L52.019,162.89L52.142,162.197L52.38,161.534L52.727,160.92L53.172,160.374L61.663,151.583L62.148,151.154Z" style="fill:#505a78;"/>
            <path d="M83.276,153.427C80.774,146.833 73.4,143.515 66.805,146.017C63.52,147.263 59.957,148.615 56.672,149.861C50.078,152.363 46.76,159.738 49.262,166.332C54.708,180.687 63.124,202.871 63.124,202.871L97.139,189.966C97.139,189.966 88.722,167.782 83.276,153.427Z" style="fill:#27b7ff;"/>
            <path d="M71.552,141.017L71.965,141.028L72.377,141.048L72.788,141.079L73.197,141.119L73.604,141.17L74.009,141.23L74.412,141.299L74.813,141.379L75.211,141.467L75.606,141.566L75.999,141.673L76.388,141.79L76.775,141.916L77.158,142.051L77.537,142.195L77.913,142.349L78.285,142.511L78.653,142.682L79.017,142.861L79.377,143.05L79.732,143.246L80.082,143.452L80.428,143.666L80.769,143.888L81.105,144.119L81.435,144.358L81.76,144.605L82.08,144.86L82.393,145.124L82.701,145.395L83.003,145.674L83.298,145.962L83.587,146.256L83.869,146.559L84.144,146.869L84.412,147.187L84.673,147.512L84.927,147.844L85.173,148.183L85.411,148.53L85.641,148.884L85.863,149.244L86.077,149.611L86.282,149.985L86.478,150.366L86.665,150.752L86.844,151.145L87.013,151.544L87.162,151.925L101.034,188.488L101.232,189.187L101.305,189.909L101.251,190.633L101.073,191.338L100.775,192L100.367,192.6L99.86,193.121L99.271,193.546L98.617,193.861L64.602,206.766L63.975,206.95L63.326,207.032L62.673,207.013L62.03,206.891L61.415,206.67L60.841,206.356L60.324,205.956L59.876,205.48L59.508,204.94L59.229,204.349L56.963,198.377L45.357,167.786L45.217,167.402L45.078,166.991L44.951,166.579L44.835,166.165L44.729,165.75L44.635,165.334L44.551,164.918L44.478,164.501L44.416,164.084L44.364,163.666L44.323,163.249L44.292,162.832L44.272,162.416L44.262,162L44.262,161.586L44.273,161.172L44.293,160.76L44.324,160.349L44.364,159.94L44.415,159.533L44.475,159.128L44.544,158.725L44.624,158.324L44.712,157.926L44.811,157.531L44.918,157.138L45.035,156.749L45.161,156.363L45.296,155.98L45.44,155.6L45.594,155.224L45.756,154.852L45.927,154.484L46.106,154.12L46.295,153.761L46.491,153.406L46.697,153.055L46.911,152.709L47.133,152.368L47.364,152.033L47.603,151.702L47.85,151.377L48.105,151.058L48.369,150.744L48.64,150.436L48.919,150.135L49.207,149.839L49.501,149.55L49.804,149.268L50.114,148.993L50.432,148.725L50.757,148.464L51.089,148.21L51.428,147.964L51.775,147.726L52.129,147.496L52.489,147.274L52.856,147.061L53.23,146.856L53.611,146.659L53.997,146.472L54.39,146.294L54.789,146.125L55.17,145.975L65.352,142.112L65.736,141.972L66.146,141.833L66.559,141.706L66.972,141.59L67.387,141.484L67.803,141.39L68.219,141.306L68.636,141.233L69.054,141.171L69.471,141.119L69.888,141.078L70.305,141.047L70.721,141.027L71.137,141.017L71.552,141.017ZM79.211,154.492L79.12,154.291L79.024,154.094L78.925,153.9L78.82,153.711L78.712,153.524L78.6,153.342L78.483,153.163L78.363,152.988L78.239,152.816L78.111,152.649L77.979,152.485L77.844,152.324L77.704,152.167L77.562,152.014L77.416,151.865L77.266,151.72L77.114,151.579L76.958,151.441L76.798,151.307L76.636,151.178L76.471,151.052L76.303,150.931L76.132,150.813L75.959,150.7L75.782,150.591L75.604,150.486L75.423,150.386L75.239,150.29L75.053,150.198L74.866,150.111L74.676,150.028L74.484,149.95L74.29,149.876L74.095,149.808L73.898,149.743L73.7,149.684L73.5,149.629L73.299,149.579L73.096,149.534L72.893,149.494L72.688,149.458L72.483,149.428L72.276,149.402L72.069,149.382L71.861,149.366L71.653,149.356L71.444,149.351L71.234,149.35L71.024,149.355L70.814,149.366L70.603,149.381L70.393,149.402L70.182,149.428L69.971,149.46L69.76,149.497L69.548,149.539L69.337,149.587L69.126,149.641L68.915,149.7L68.704,149.765L68.494,149.836L68.258,149.922L58.175,153.748L57.942,153.839L57.737,153.926L57.536,154.017L57.339,154.113L57.145,154.213L56.956,154.317L56.769,154.425L56.587,154.537L56.408,154.654L56.233,154.774L56.061,154.898L55.894,155.026L55.729,155.158L55.569,155.294L55.412,155.433L55.259,155.575L55.11,155.721L54.965,155.871L54.824,156.024L54.686,156.18L54.552,156.339L54.423,156.501L54.297,156.666L54.176,156.834L54.058,157.005L53.945,157.179L53.836,157.355L53.731,157.534L53.631,157.715L53.535,157.898L53.443,158.084L53.356,158.272L53.273,158.461L53.195,158.653L53.121,158.847L53.053,159.042L52.988,159.239L52.929,159.437L52.874,159.637L52.824,159.839L52.779,160.041L52.738,160.244L52.703,160.449L52.673,160.655L52.647,160.861L52.627,161.068L52.611,161.276L52.601,161.485L52.596,161.694L52.595,161.903L52.6,162.113L52.611,162.323L52.626,162.534L52.647,162.745L52.673,162.956L52.705,163.167L52.742,163.378L52.784,163.589L52.832,163.8L52.886,164.011L52.945,164.222L53.01,164.433L53.081,164.644L53.167,164.879L65.542,197.497L91.765,187.548L79.39,154.93L79.298,154.697L79.211,154.492Z" style="fill:#27b7ff;"/>
            <path d="M98.621,96.968C98.579,84.684 88.588,74.759 76.305,74.8C76.302,74.8 76.299,74.8 76.297,74.8C71.194,74.817 66.306,76.861 62.71,80.482C59.113,84.102 57.103,89.003 57.12,94.106C57.142,100.666 57.166,108.014 57.188,114.636C57.225,125.714 66.236,134.664 77.313,134.627C77.316,134.627 77.319,134.627 77.321,134.627C89.154,134.588 98.714,124.964 98.675,113.131C98.657,107.882 98.638,102.254 98.621,96.968Z" style="fill:#505a78;"/>
            <path d="M76.65,68.551L77.016,68.557L77.381,68.567L77.745,68.582L78.108,68.602L78.47,68.626L78.83,68.654L79.19,68.687L79.548,68.725L79.905,68.767L80.261,68.813L80.616,68.864L80.969,68.919L81.321,68.978L81.672,69.042L82.021,69.11L82.369,69.182L82.715,69.258L83.06,69.339L83.403,69.424L83.744,69.513L84.084,69.606L84.422,69.703L84.758,69.804L85.093,69.909L85.426,70.018L85.757,70.131L86.086,70.248L86.413,70.369L86.739,70.494L87.062,70.622L87.383,70.755L87.703,70.891L88.02,71.031L88.336,71.174L88.649,71.322L88.96,71.473L89.269,71.627L89.576,71.786L89.88,71.947L90.183,72.113L90.483,72.281L90.781,72.454L91.076,72.63L91.369,72.809L91.66,72.991L91.948,73.177L92.234,73.367L92.518,73.559L92.799,73.755L93.077,73.954L93.353,74.157L93.627,74.362L93.898,74.571L94.166,74.783L94.431,74.998L94.694,75.216L94.955,75.438L95.212,75.662L95.467,75.889L95.719,76.119L95.968,76.353L96.215,76.589L96.458,76.828L96.699,77.07L96.937,77.315L97.172,77.562L97.404,77.813L97.633,78.066L97.859,78.322L98.082,78.581L98.302,78.842L98.518,79.107L98.732,79.373L98.943,79.643L99.15,79.915L99.354,80.19L99.555,80.467L99.753,80.746L99.948,81.029L100.139,81.313L100.327,81.6L100.511,81.89L100.693,82.182L100.87,82.476L101.045,82.773L101.215,83.072L101.383,83.373L101.547,83.677L101.707,83.982L101.863,84.29L102.017,84.6L102.166,84.913L102.312,85.227L102.454,85.543L102.592,85.862L102.727,86.183L102.857,86.505L102.984,86.83L103.107,87.156L103.226,87.484L103.342,87.815L103.453,88.147L103.56,88.481L103.664,88.816L103.763,89.154L103.858,89.493L103.949,89.834L104.037,90.176L104.119,90.52L104.198,90.866L104.273,91.213L104.343,91.562L104.409,91.912L104.471,92.264L104.528,92.617L104.581,92.971L104.63,93.327L104.674,93.683L104.714,94.042L104.75,94.401L104.78,94.761L104.807,95.123L104.829,95.486L104.846,95.85L104.859,96.214L104.867,96.58L104.87,96.927L104.925,113.13L104.924,113.466L104.918,113.821L104.908,114.176L104.894,114.529L104.875,114.882L104.851,115.233L104.824,115.583L104.791,115.933L104.755,116.281L104.714,116.628L104.669,116.973L104.62,117.318L104.567,117.661L104.509,118.003L104.447,118.344L104.381,118.683L104.311,119.02L104.237,119.357L104.158,119.692L104.076,120.025L103.99,120.356L103.899,120.686L103.805,121.015L103.707,121.342L103.605,121.667L103.499,121.99L103.389,122.311L103.275,122.631L103.158,122.949L103.037,123.265L102.912,123.579L102.783,123.892L102.651,124.202L102.515,124.51L102.376,124.817L102.232,125.121L102.086,125.423L101.936,125.723L101.782,126.021L101.625,126.317L101.464,126.611L101.3,126.902L101.133,127.192L100.953,127.495L100.611,128.046L100.247,128.604L99.869,129.152L99.479,129.691L99.077,130.219L98.662,130.738L98.235,131.246L97.796,131.744L97.346,132.231L96.884,132.707L96.412,133.171L95.928,133.625L95.433,134.067L94.928,134.497L94.412,134.915L93.886,135.321L93.35,135.715L92.804,136.096L92.249,136.464L91.7,136.809L91.398,136.992L91.11,137.161L90.819,137.327L90.527,137.489L90.232,137.649L89.935,137.804L89.636,137.956L89.335,138.105L89.031,138.25L88.726,138.392L88.419,138.53L88.109,138.664L87.798,138.795L87.484,138.922L87.169,139.045L86.852,139.165L86.533,139.28L86.212,139.392L85.89,139.5L85.565,139.605L85.239,139.705L84.912,139.802L84.582,139.894L84.251,139.983L83.918,140.067L83.584,140.148L83.248,140.224L82.911,140.297L82.572,140.365L82.232,140.429L81.891,140.489L81.548,140.545L81.204,140.596L80.858,140.644L80.512,140.687L80.164,140.725L79.815,140.76L79.465,140.79L79.113,140.816L78.761,140.837L78.408,140.854L78.053,140.866L77.698,140.874L77.382,140.877L77.342,140.877L77.334,140.877L77.295,140.877L76.996,140.877L76.658,140.871L76.322,140.862L75.986,140.848L75.651,140.83L75.317,140.808L74.984,140.781L74.652,140.751L74.321,140.716L73.991,140.678L73.662,140.635L73.335,140.588L73.008,140.537L72.683,140.482L72.36,140.424L72.037,140.361L71.716,140.294L71.377,140.219L70.761,140.071L70.132,139.903L69.509,139.72L68.893,139.522L68.283,139.31L67.681,139.083L67.085,138.842L66.497,138.587L65.916,138.318L65.344,138.036L64.779,137.741L64.223,137.432L63.675,137.111L63.136,136.777L62.606,136.43L62.084,136.071L61.572,135.701L61.07,135.318L60.577,134.924L60.094,134.518L59.621,134.101L59.158,133.673L58.706,133.234L58.264,132.785L57.833,132.325L57.413,131.855L57.004,131.374L56.606,130.884L56.22,130.384L55.846,129.875L55.484,129.356L55.134,128.828L54.796,128.291L54.471,127.745L54.159,127.191L53.859,126.628L53.573,126.058L53.301,125.479L53.042,124.893L52.797,124.299L52.566,123.697L52.35,123.089L52.148,122.474L51.961,121.853L51.788,121.225L51.636,120.61L51.559,120.271L51.49,119.951L51.425,119.629L51.364,119.305L51.307,118.981L51.254,118.655L51.205,118.328L51.16,117.999L51.119,117.67L51.083,117.339L51.05,117.007L51.021,116.674L50.997,116.34L50.977,116.006L50.961,115.67L50.949,115.333L50.941,114.996L50.938,114.677L50.923,110.223L50.87,94.088L50.875,93.494L50.896,92.863L50.933,92.234L50.986,91.607L51.053,90.983L51.136,90.362L51.234,89.744L51.347,89.129L51.475,88.518L51.617,87.911L51.775,87.308L51.946,86.709L52.133,86.116L52.333,85.527L52.548,84.943L52.777,84.365L53.02,83.793L53.277,83.227L53.548,82.667L53.832,82.113L54.13,81.567L54.442,81.027L54.767,80.495L55.105,79.97L55.456,79.453L55.821,78.944L56.198,78.444L56.588,77.952L56.991,77.469L57.407,76.995L57.835,76.531L58.275,76.077L58.727,75.633L59.188,75.202L59.659,74.783L60.139,74.377L60.629,73.984L61.126,73.603L61.633,73.235L62.147,72.88L62.67,72.538L63.2,72.21L63.738,71.895L64.282,71.593L64.834,71.305L65.392,71.03L65.956,70.77L66.527,70.523L67.104,70.29L67.686,70.071L68.273,69.867L68.866,69.677L69.463,69.501L70.065,69.34L70.671,69.193L71.281,69.061L71.895,68.944L72.513,68.842L73.133,68.755L73.757,68.683L74.384,68.627L75.012,68.585L75.643,68.56L76.237,68.551L76.323,68.55L76.65,68.551ZM92.364,96.573L92.357,96.366L92.347,96.16L92.334,95.955L92.319,95.751L92.302,95.548L92.282,95.346L92.26,95.145L92.235,94.944L92.207,94.745L92.178,94.546L92.146,94.348L92.111,94.151L92.074,93.955L92.035,93.76L91.993,93.566L91.949,93.373L91.903,93.18L91.854,92.989L91.803,92.799L91.75,92.609L91.694,92.421L91.637,92.233L91.577,92.047L91.514,91.861L91.45,91.677L91.384,91.493L91.315,91.311L91.244,91.129L91.171,90.949L91.096,90.77L91.018,90.592L90.939,90.415L90.857,90.239L90.774,90.064L90.688,89.89L90.6,89.718L90.51,89.547L90.419,89.377L90.325,89.208L90.229,89.04L90.131,88.874L90.031,88.709L89.93,88.545L89.826,88.382L89.721,88.221L89.613,88.061L89.504,87.902L89.393,87.745L89.28,87.589L89.165,87.435L89.048,87.282L88.93,87.13L88.809,86.98L88.687,86.831L88.563,86.684L88.438,86.538L88.311,86.394L88.182,86.251L88.051,86.11L87.919,85.971L87.785,85.833L87.649,85.696L87.512,85.562L87.373,85.429L87.232,85.297L87.09,85.167L86.947,85.039L86.802,84.913L86.655,84.789L86.507,84.666L86.358,84.545L86.207,84.425L86.054,84.308L85.9,84.192L85.745,84.078L85.589,83.966L85.431,83.856L85.271,83.748L85.111,83.642L84.949,83.537L84.785,83.435L84.621,83.334L84.455,83.235L84.288,83.139L84.12,83.044L83.95,82.951L83.78,82.861L83.608,82.772L83.435,82.685L83.26,82.601L83.085,82.519L82.909,82.438L82.731,82.36L82.552,82.284L82.373,82.21L82.192,82.138L82.01,82.068L81.827,82.001L81.643,81.935L81.458,81.872L81.273,81.811L81.086,81.752L80.898,81.696L80.709,81.642L80.519,81.59L80.328,81.54L80.137,81.493L79.944,81.448L79.751,81.405L79.556,81.365L79.361,81.327L79.165,81.291L78.967,81.258L78.769,81.227L78.57,81.198L78.371,81.172L78.17,81.149L77.968,81.128L77.766,81.109L77.563,81.093L77.359,81.08L77.154,81.069L76.948,81.06L76.741,81.054L76.534,81.051L76.339,81.05L75.995,81.056L75.673,81.069L75.353,81.09L75.034,81.119L74.716,81.155L74.4,81.2L74.085,81.252L73.772,81.311L73.461,81.378L73.153,81.453L72.846,81.535L72.542,81.625L72.24,81.722L71.94,81.826L71.643,81.938L71.35,82.056L71.059,82.182L70.771,82.315L70.486,82.455L70.205,82.602L69.928,82.755L69.654,82.916L69.384,83.083L69.118,83.258L68.855,83.438L68.597,83.626L68.344,83.82L68.095,84.02L67.85,84.227L67.61,84.441L67.375,84.66L67.144,84.887L66.92,85.118L66.701,85.355L66.49,85.596L66.284,85.842L66.086,86.093L65.893,86.348L65.708,86.607L65.529,86.871L65.356,87.138L65.191,87.409L65.032,87.684L64.88,87.963L64.735,88.245L64.597,88.53L64.466,88.819L64.342,89.111L64.226,89.405L64.116,89.703L64.014,90.003L63.919,90.305L63.831,90.61L63.751,90.918L63.679,91.227L63.613,91.538L63.556,91.851L63.506,92.166L63.464,92.483L63.429,92.801L63.403,93.12L63.384,93.441L63.373,93.763L63.37,94.124L63.438,114.596L63.44,114.795L63.444,114.975L63.45,115.153L63.459,115.331L63.47,115.508L63.482,115.684L63.497,115.86L63.515,116.035L63.534,116.208L63.556,116.382L63.579,116.554L63.605,116.726L63.633,116.896L63.662,117.066L63.694,117.236L63.728,117.404L63.764,117.572L63.798,117.719L63.885,118.069L63.975,118.397L64.072,118.722L64.178,119.043L64.291,119.36L64.411,119.674L64.539,119.985L64.675,120.291L64.817,120.594L64.967,120.893L65.124,121.187L65.287,121.478L65.458,121.764L65.635,122.046L65.819,122.323L66.009,122.596L66.206,122.864L66.409,123.127L66.619,123.385L66.834,123.638L67.055,123.886L67.283,124.129L67.516,124.365L67.754,124.597L67.998,124.822L68.247,125.042L68.502,125.256L68.761,125.463L69.026,125.665L69.295,125.86L69.569,126.048L69.848,126.23L70.131,126.406L70.418,126.574L70.71,126.736L71.005,126.891L71.305,127.039L71.609,127.179L71.916,127.312L72.227,127.438L72.542,127.557L72.86,127.668L73.182,127.771L73.507,127.866L73.836,127.954L74.186,128.039L74.334,128.071L74.502,128.106L74.671,128.139L74.84,128.17L75.01,128.198L75.181,128.225L75.353,128.25L75.526,128.272L75.699,128.292L75.873,128.311L76.048,128.327L76.223,128.34L76.4,128.352L76.577,128.362L76.755,128.369L76.933,128.374L77.112,128.377L77.297,128.377L77.498,128.375L77.695,128.371L77.891,128.364L78.086,128.355L78.281,128.343L78.475,128.329L78.667,128.312L78.859,128.293L79.05,128.272L79.241,128.249L79.43,128.223L79.619,128.194L79.806,128.164L79.993,128.131L80.179,128.096L80.364,128.059L80.549,128.019L80.732,127.977L80.914,127.933L81.096,127.887L81.277,127.839L81.456,127.788L81.635,127.736L81.813,127.681L81.99,127.624L82.166,127.565L82.341,127.504L82.515,127.441L82.688,127.376L82.86,127.308L83.031,127.239L83.201,127.168L83.37,127.094L83.538,127.019L83.705,126.942L83.871,126.862L84.036,126.781L84.199,126.698L84.362,126.612L84.523,126.525L84.683,126.436L84.843,126.345L85,126.253L85.141,126.168L85.467,125.963L85.772,125.761L86.071,125.552L86.366,125.335L86.655,125.112L86.939,124.882L87.217,124.645L87.489,124.402L87.755,124.153L88.016,123.897L88.27,123.635L88.517,123.367L88.759,123.093L88.994,122.813L89.222,122.528L89.443,122.237L89.657,121.941L89.865,121.64L90.065,121.334L90.267,121.007L90.351,120.866L90.443,120.707L90.533,120.548L90.621,120.387L90.707,120.225L90.791,120.062L90.873,119.898L90.953,119.732L91.032,119.566L91.108,119.399L91.182,119.23L91.254,119.061L91.324,118.89L91.393,118.719L91.459,118.546L91.523,118.373L91.585,118.198L91.645,118.023L91.703,117.846L91.758,117.669L91.812,117.491L91.863,117.312L91.913,117.131L91.96,116.951L92.005,116.769L92.047,116.586L92.088,116.402L92.126,116.218L92.162,116.032L92.196,115.846L92.228,115.659L92.257,115.471L92.284,115.282L92.309,115.093L92.331,114.902L92.351,114.711L92.369,114.519L92.384,114.326L92.397,114.133L92.407,113.938L92.415,113.743L92.421,113.547L92.424,113.35L92.425,113.132L92.371,97.008L92.368,96.78L92.364,96.573Z" style="fill:#505a78;"/>
            <path d="M67.698,97.813L50.439,101.832C50.439,101.832 42.543,76.275 67.21,66.85C87.347,59.156 96.325,69.644 100.246,78.779C109.487,76.471 116.254,75.926 120.087,77.492C121.287,77.982 122.071,79.366 122.784,80.676C123.287,81.61 123.334,82.802 122.91,83.847C122.487,84.892 121.648,85.652 120.678,85.869C109.387,88.414 67.698,97.813 67.698,97.813Z" style="fill:#27b7ff;"/>
        </g>
        <g>
            <ellipse cx="615.972" cy="476.105" rx="361.732" ry="7.896" style="fill:#b3b8c5;"/>
            <g>
                <circle cx="421.113" cy="396.436" r="81.714" style="fill:#505a78;"/>
                <circle cx="421.113" cy="396.436" r="42.388" style="fill:#81889e;"/>
            </g>
            <g>
                <circle cx="813.697" cy="396.436" r="81.714" style="fill:#505a78;"/>
                <circle cx="813.697" cy="396.436" r="42.388" style="fill:#81889e;"/>
            </g>
            <path d="M257.053,92.565L257.053,89.87C257.053,53.561 286.487,24.127 322.797,24.126L785.202,24.126L785.202,99.397L881.863,99.397L980.517,230.936L980.517,395.202L885.087,394.746C885.116,393.933 885.13,393.116 885.13,392.296C885.13,353.646 853.751,322.267 815.1,322.267C776.45,322.267 745.071,353.646 745.071,392.296C745.071,392.892 745.078,393.485 745.093,394.077L491.14,392.864C491.142,392.675 491.143,392.486 491.143,392.296C491.143,353.646 459.763,322.267 421.113,322.267C382.496,322.267 351.138,353.591 351.084,392.196L257.053,391.747L257.053,300.25L284.433,300.25L284.433,92.565L257.053,92.565Z" style="fill:#fff;"/>
            <clipPath id="_clip1">
                <path d="M257.053,92.565L257.053,89.87C257.053,53.561 286.487,24.127 322.797,24.126L785.202,24.126L785.202,99.397L881.863,99.397L980.517,230.936L980.517,395.202L885.087,394.746C885.116,393.933 885.13,393.116 885.13,392.296C885.13,353.646 853.751,322.267 815.1,322.267C776.45,322.267 745.071,353.646 745.071,392.296C745.071,392.892 745.078,393.485 745.093,394.077L491.14,392.864C491.142,392.675 491.143,392.486 491.143,392.296C491.143,353.646 459.763,322.267 421.113,322.267C382.496,322.267 351.138,353.591 351.084,392.196L257.053,391.747L257.053,300.25L284.433,300.25L284.433,92.565L257.053,92.565Z"/>
            </clipPath>
            <g clip-path="url(#_clip1)">
                <rect x="257.053" y="326.83" width="164.06" height="65.467" style="fill:#81889e;"/>
                <path d="M422.198,320.675L423.251,320.957L424.238,321.417L425.13,322.042L425.901,322.812L426.526,323.705L426.986,324.692L427.268,325.744L427.363,326.83L427.363,392.296L427.268,393.381L426.986,394.434L426.526,395.421L425.901,396.314L425.13,397.084L424.238,397.709L423.251,398.169L422.198,398.451L421.113,398.546L257.053,398.546L255.968,398.451L254.916,398.169L253.928,397.709L253.036,397.084L252.266,396.314L251.641,395.421L251.18,394.434L250.898,393.381L250.803,392.296L250.803,326.83L250.898,325.744L251.18,324.692L251.641,323.705L252.266,322.812L253.036,322.042L253.928,321.417L254.916,320.957L255.968,320.675L257.053,320.58L421.113,320.58L422.198,320.675ZM263.303,333.08L263.303,386.046L414.863,386.046L414.863,333.08L263.303,333.08Z" style="fill:#505a78;"/>
                <rect x="461.496" y="362.468" width="310.92" height="46.688" style="fill:#81889e;"/>
                <path d="M773.501,356.313L774.554,356.595L775.541,357.056L776.433,357.68L777.204,358.451L777.829,359.343L778.289,360.331L778.571,361.383L778.666,362.468L778.666,409.157L778.571,410.242L778.289,411.294L777.829,412.282L777.204,413.174L776.433,413.944L775.541,414.569L774.554,415.03L773.501,415.312L772.416,415.407L461.496,415.407L460.41,415.312L459.358,415.03L458.371,414.569L457.478,413.944L456.708,413.174L456.083,412.282L455.623,411.294L455.341,410.242L455.246,409.157L455.246,362.468L455.341,361.383L455.623,360.331L456.083,359.343L456.708,358.451L457.478,357.68L458.371,357.056L459.358,356.595L460.41,356.313L461.496,356.218L772.416,356.218L773.501,356.313ZM467.746,368.718L467.746,402.907L766.166,402.907L766.166,368.718L467.746,368.718Z" style="fill:#505a78;"/>
                <rect x="819.406" y="329.735" width="161.112" height="65.467" style="fill:#81889e;"/>
                <path d="M981.603,323.58L982.655,323.862L983.642,324.322L984.535,324.947L985.305,325.718L985.93,326.61L986.39,327.597L986.672,328.65L986.767,329.735L986.767,395.202L986.672,396.287L986.39,397.339L985.93,398.327L985.305,399.219L984.535,399.989L983.642,400.614L982.655,401.075L981.603,401.357L980.517,401.452L819.406,401.452L818.32,401.357L817.268,401.075L816.281,400.614L815.388,399.989L814.618,399.219L813.993,398.327L813.533,397.339L813.251,396.287L813.156,395.202L813.156,329.735L813.251,328.65L813.533,327.597L813.993,326.61L814.618,325.718L815.388,324.947L816.281,324.322L817.268,323.862L818.32,323.58L819.406,323.485L980.517,323.485L981.603,323.58ZM825.656,335.985L825.656,388.952L974.267,388.952L974.267,335.985L825.656,335.985Z" style="fill:#505a78;"/>
                <path d="M783.209,148.725L783.209,230.936L929.875,230.936L865.421,148.725L783.209,148.725Z" style="fill:#dcdee4;"/>
                <path d="M866.361,142.546L867.279,142.757L868.156,143.105L868.97,143.58L869.703,144.172L870.339,144.868L934.793,227.08L935.381,227.979L935.806,228.965L936.056,230.009L936.123,231.08L936.006,232.147L935.709,233.179L935.239,234.144L934.611,235.015L933.843,235.765L932.958,236.373L931.982,236.82L930.944,237.094L929.875,237.186L783.209,237.186L782.124,237.091L781.071,236.809L780.084,236.349L779.192,235.724L778.421,234.954L777.796,234.061L777.336,233.074L777.054,232.022L776.959,230.936L776.959,148.725L777.054,147.639L777.336,146.587L777.796,145.6L778.421,144.707L779.192,143.937L780.084,143.312L781.071,142.851L782.124,142.57L783.209,142.475L865.421,142.475L866.361,142.546ZM917.033,224.686L862.379,154.975L789.459,154.975L789.459,224.686L917.033,224.686Z" style="fill:#505a78;"/>
                <path d="M736.398,322.416L738.233,326.788L738.233,326.871L736.398,331.244L732.025,333.08L499.132,333.08L494.759,331.244L492.924,326.871L492.924,326.788L494.759,322.416L499.132,320.58L732.025,320.58L736.398,322.416Z" style="fill:#505a78;"/>
                <path d="M787.623,226.522L789.459,230.895L789.459,337.743L787.623,342.115L783.251,343.951L783.167,343.951L778.795,342.115L776.959,337.743L776.959,230.895L778.795,226.522L783.167,224.686L783.251,224.686L787.623,226.522Z" style="fill:#505a78;"/>
                <path d="M934.289,226.522L936.125,230.895L936.125,329.777L934.289,334.149L929.917,335.985L929.833,335.985L925.461,334.149L923.625,329.777L923.625,230.895L925.461,226.522L929.833,224.686L929.917,224.686L934.289,226.522Z" style="fill:#505a78;"/>
                <path d="M835.354,252.537L837.19,256.909L837.19,256.993L835.354,261.365L830.982,263.201L808.238,263.201L803.866,261.365L802.03,256.993L802.03,256.909L803.866,252.537L808.238,250.701L830.982,250.701L835.354,252.537Z" style="fill:#505a78;"/>
                <rect x="257.053" y="92.565" width="27.38" height="207.685" style="fill:#b3b8c5;"/>
                <path d="M285.519,86.41L286.571,86.692L287.558,87.152L288.451,87.777L289.221,88.548L289.846,89.44L290.307,90.427L290.588,91.48L290.683,92.565L290.683,300.25L290.588,301.335L290.307,302.388L289.846,303.375L289.221,304.267L288.451,305.038L287.558,305.663L286.571,306.123L285.519,306.405L284.433,306.5L257.053,306.5L255.968,306.405L254.916,306.123L253.928,305.663L253.036,305.038L252.266,304.267L251.641,303.375L251.18,302.388L250.898,301.335L250.803,300.25L250.803,92.565L250.898,91.48L251.18,90.427L251.641,89.44L252.266,88.548L253.036,87.777L253.928,87.152L254.916,86.692L255.968,86.41L257.053,86.315L284.433,86.315L285.519,86.41ZM263.303,98.815L263.303,294L278.183,294L278.183,98.815L263.303,98.815Z" style="fill:#505a78;"/>
                <rect x="952.086" y="240.529" width="28.432" height="63.927" style="fill:#b3b8c5;"/>
                <clipPath id="_clip2">
                    <rect x="952.086" y="240.529" width="28.432" height="63.927"/>
                </clipPath>
                <g clip-path="url(#_clip2)">
                    <circle cx="974.891" cy="259.718" r="12.425" style="fill:#fff;"/>
                    <circle cx="974.891" cy="285.012" r="12.425" style="fill:#fff;"/>
                </g>
                <path d="M981.603,234.374L982.655,234.656L983.642,235.116L984.535,235.741L985.305,236.511L985.93,237.404L986.39,238.391L986.672,239.443L986.767,240.529L986.767,304.456L986.672,305.541L986.39,306.593L985.93,307.581L985.305,308.473L984.535,309.243L983.642,309.868L982.655,310.329L981.603,310.611L980.517,310.706L952.086,310.706L951,310.611L949.948,310.329L948.961,309.868L948.068,309.243L947.298,308.473L946.673,307.581L946.372,306.935L946.213,306.593L945.931,305.541L945.836,304.456L945.836,240.529L945.931,239.443L946.213,238.391L946.673,237.404L947.298,236.511L948.068,235.741L948.961,235.116L949.948,234.656L951,234.374L952.086,234.279L980.517,234.279L981.603,234.374ZM958.336,246.779L958.336,298.206L974.267,298.206L974.267,246.779L958.336,246.779Z" style="fill:#505a78;"/>
            </g>
            <path d="M257.053,92.565L257.053,89.87C257.053,53.561 286.487,24.127 322.797,24.126L785.202,24.126L785.202,99.397L881.863,99.397L980.517,230.936L980.517,395.202L885.087,394.746C885.116,393.933 885.13,393.116 885.13,392.296C885.13,353.646 853.751,322.267 815.1,322.267C776.45,322.267 745.071,353.646 745.071,392.296C745.071,392.892 745.078,393.485 745.093,394.077L491.14,392.864C491.142,392.675 491.143,392.486 491.143,392.296C491.143,353.646 459.763,322.267 421.113,322.267C382.496,322.267 351.138,353.591 351.084,392.196L257.053,391.747L257.053,300.25L284.433,300.25L284.433,92.565L257.053,92.565Z" style="fill:none;stroke:#505a78;stroke-width:12.5px;stroke-dasharray:750,25,1.25,25;"/>
            <path d="M613.81,74.719C614.961,74.646 616.113,74.601 617.265,74.575C617.918,74.565 618.57,74.561 619.222,74.563C622.771,74.595 626.312,74.853 629.824,75.367C636.803,76.39 643.634,78.392 650.061,81.3C658.136,84.954 665.556,90.029 671.896,96.223C677.895,102.084 682.92,108.93 686.701,116.417C689.937,122.825 692.254,129.692 693.562,136.75C695.001,144.513 695.223,152.501 694.225,160.332C693.215,168.261 690.944,176.018 687.519,183.24C683.658,191.379 678.338,198.81 671.896,205.104C665.113,211.731 657.094,217.074 648.361,220.771C643.461,222.846 638.341,224.401 633.114,225.404C628.538,226.281 623.882,226.735 619.222,226.764C614.237,226.796 609.251,226.342 604.355,225.404C599.431,224.46 594.602,223.025 589.962,221.127C588.812,220.656 587.674,220.158 586.549,219.631L586.549,260.317C586.549,272.42 576.723,282.247 564.619,282.247C552.515,282.247 542.688,272.42 542.688,260.317L542.688,153.592C542.558,150.192 542.655,146.782 542.977,143.394C543.722,135.556 545.695,127.843 548.809,120.611C549.507,118.989 550.262,117.393 551.072,115.825C544.341,112.079 539.784,104.892 539.784,96.65C539.784,84.546 549.611,74.719 561.715,74.719L613.81,74.719ZM618.514,117.114C616.941,117.128 615.372,117.241 613.815,117.469C610.759,117.917 607.767,118.793 604.952,120.067C602.06,121.376 599.358,123.099 596.946,125.163C593.821,127.837 591.187,131.083 589.223,134.697C587.66,137.576 586.523,140.681 585.865,143.891C585.094,147.655 584.974,151.562 585.509,155.367C585.978,158.7 586.95,161.958 588.394,164.999C590.13,168.657 592.534,171.992 595.448,174.802C598.413,177.662 601.898,179.979 605.693,181.585C609.742,183.298 614.118,184.186 618.514,184.213C622.917,184.241 627.316,183.412 631.393,181.744C635.273,180.156 638.84,177.835 641.874,174.943C644.807,172.147 647.228,168.825 648.991,165.176C650.388,162.282 651.36,159.18 651.864,156.007C652.523,151.857 652.41,147.584 651.516,143.477C650.548,139.028 648.646,134.796 645.986,131.103C642.669,126.499 638.194,122.757 633.068,120.322C630.22,118.97 627.18,118.029 624.068,117.533C622.519,117.285 620.956,117.154 619.388,117.119C619.096,117.114 618.805,117.113 618.514,117.114Z" style="fill:#27b7ff;"/>
            <rect x="322.727" y="92.565" width="98.058" height="110.134" style="fill:#dcdee4;"/>
            <path d="M421.871,86.41L422.923,86.692L423.911,87.152L424.803,87.777L425.573,88.548L426.198,89.44L426.659,90.427L426.941,91.48L427.036,92.565L427.036,202.699L426.941,203.784L426.659,204.836L426.198,205.824L425.573,206.716L424.803,207.486L423.911,208.111L422.923,208.572L421.871,208.854L420.786,208.949L322.727,208.949L321.642,208.854L320.59,208.572L319.602,208.111L318.71,207.486L317.939,206.716L317.315,205.824L316.854,204.836L316.572,203.784L316.477,202.699L316.477,92.565L316.572,91.48L316.854,90.427L317.315,89.44L317.939,88.548L318.71,87.777L319.602,87.152L320.59,86.692L321.642,86.41L322.727,86.315L420.786,86.315L421.871,86.41ZM328.977,98.815L328.977,196.449L414.536,196.449L414.536,98.815L328.977,98.815Z" style="fill:#505a78;"/>
        </g>
    </g>
</svg>
