<?xml version="1.0" encoding="UTF-8" standalone="no"?>
<!DOCTYPE svg PUBLIC "-//W3C//DTD SVG 1.1//EN" "http://www.w3.org/Graphics/SVG/1.1/DTD/svg11.dtd">
<svg width="100%" height="100%" viewBox="0 0 1117 492" version="1.1" xmlns="http://www.w3.org/2000/svg" xmlns:xlink="http://www.w3.org/1999/xlink" xml:space="preserve" style="fill-rule:evenodd;clip-rule:evenodd;stroke-linecap:round;stroke-linejoin:round;stroke-miterlimit:1.5;">
    <g id="hub.-hiw.-1">
        <path d="M117.651,315.359L117.651,159.641L810.181,159.641L810.181,15.045L1032.64,237.5L810.181,459.955L810.181,315.359L117.651,315.359Z" style="fill:#dcdee4;"/>
        <path d="M811.556,2.849L813.579,3.252L815.506,3.988L817.283,5.036L818.86,6.367L1041.32,228.822L1042.57,230.286L1043.57,231.928L1044.31,233.707L1044.76,235.58L1044.91,237.5L1044.76,239.42L1044.31,241.293L1043.57,243.072L1042.57,244.714L1041.32,246.178L818.86,468.633L817.283,469.964L815.506,471.013L813.579,471.748L811.556,472.151L809.493,472.209L807.45,471.92L805.485,471.294L803.652,470.347L802.003,469.106L800.586,467.607L799.44,465.892L798.597,464.008L798.082,462.011L797.908,459.955L797.908,327.632L117.652,327.632L115.732,327.481L113.859,327.031L112.08,326.294L110.438,325.288L108.973,324.037L107.723,322.573L106.716,320.931L105.979,319.151L105.53,317.279L105.379,315.359L105.379,159.641L105.53,157.721L105.979,155.848L106.716,154.069L107.723,152.427L108.973,150.962L110.438,149.712L112.08,148.705L113.859,147.968L115.732,147.519L117.652,147.368L797.908,147.368L797.908,15.045L798.082,12.989L798.597,10.992L799.44,9.108L800.586,7.393L802.003,5.894L803.652,4.653L805.485,3.706L807.45,3.08L809.493,2.791L811.556,2.849ZM810.181,159.641L117.651,159.641L117.651,315.359L810.181,315.359L810.181,459.955L1032.64,237.5L810.181,15.045L810.181,159.641Z" style="fill:#dcdee4;"/>
        <g>
            <g>
                <path d="M940.263,168.01L963.434,145.418L1086.92,145.418L1110.09,168.01L1110.09,308.152L940.263,308.152L940.263,168.01Z" style="fill:#27b7ff;"/>
                <path d="M940.263,169.569L963.434,145.418L1086.92,145.418L1110.09,169.884" style="fill:#6ed1ff;"/>
                <path d="M940.263,168.01L963.434,145.418L1086.92,145.418L1110.09,168.01L1110.09,308.152L940.263,308.152L940.263,168.01Z" style="fill:none;stroke:#505a78;stroke-width:8.33px;stroke-dasharray:500,25,0.83,16.67;"/>
                <path d="M1007.45,270.142C1007.45,269.034 1006.55,268.133 1005.44,268.133L962.995,268.133C961.886,268.133 960.986,269.034 960.986,270.142L960.986,287.001C960.986,288.11 961.886,289.011 962.995,289.011L1005.44,289.011C1006.55,289.011 1007.45,288.11 1007.45,287.001L1007.45,270.142Z" style="fill:#fff;"/>
                <path d="M1059.92,191.881C1060.25,191.86 1060.57,191.847 1060.89,191.84C1061.08,191.837 1061.26,191.836 1061.44,191.836C1062.44,191.845 1063.43,191.919 1064.42,192.065C1066.38,192.355 1068.3,192.924 1070.11,193.751C1072.38,194.789 1074.46,196.231 1076.24,197.991C1077.93,199.657 1079.34,201.602 1080.4,203.73C1081.31,205.551 1081.96,207.502 1082.33,209.508C1082.74,211.714 1082.8,213.984 1082.52,216.209C1082.24,218.462 1081.6,220.667 1080.63,222.719C1079.55,225.032 1078.06,227.144 1076.24,228.932C1074.34,230.815 1072.09,232.334 1069.63,233.384C1068.25,233.974 1066.82,234.416 1065.35,234.701C1064.06,234.95 1062.75,235.079 1061.44,235.087C1060.04,235.096 1058.64,234.967 1057.27,234.701C1055.88,234.432 1054.52,234.025 1053.22,233.485C1052.9,233.352 1052.58,233.21 1052.26,233.06L1052.26,244.622C1052.26,248.061 1049.5,250.854 1046.1,250.854C1042.7,250.854 1039.94,248.061 1039.94,244.622L1039.94,214.294C1039.9,213.328 1039.93,212.359 1040.02,211.396C1040.23,209.169 1040.78,206.977 1041.66,204.922C1041.85,204.461 1042.07,204.007 1042.29,203.562C1040.4,202.497 1039.12,200.455 1039.12,198.113C1039.12,194.673 1041.88,191.881 1045.28,191.881L1059.92,191.881ZM1061.24,203.928C1060.8,203.932 1060.36,203.964 1059.92,204.029C1059.07,204.156 1058.22,204.405 1057.43,204.767C1056.62,205.139 1055.86,205.629 1055.18,206.215C1054.31,206.975 1053.57,207.897 1053.01,208.924C1052.57,209.742 1052.25,210.625 1052.07,211.537C1051.85,212.607 1051.82,213.717 1051.97,214.798C1052.1,215.746 1052.37,216.671 1052.78,217.535C1053.27,218.575 1053.94,219.523 1054.76,220.321C1055.6,221.134 1056.58,221.792 1057.64,222.249C1058.78,222.735 1060.01,222.988 1061.24,222.996C1062.48,223.003 1063.72,222.768 1064.86,222.294C1065.95,221.843 1066.96,221.183 1067.81,220.361C1068.63,219.567 1069.31,218.623 1069.81,217.586C1070.2,216.763 1070.47,215.882 1070.62,214.98C1070.8,213.801 1070.77,212.587 1070.52,211.42C1070.25,210.155 1069.71,208.953 1068.96,207.903C1068.03,206.595 1066.77,205.532 1065.33,204.84C1064.53,204.455 1063.68,204.188 1062.8,204.047C1062.37,203.977 1061.93,203.939 1061.49,203.929C1061.41,203.928 1061.33,203.928 1061.24,203.928Z" style="fill:#fff;"/>
            </g>
            <path d="M937.441,450.166L926.18,382.947L888.908,322.158L877.385,324.465L863.583,390.328L822.632,435.968L811.013,441.612L846.336,383.718L852.43,299.01L917.094,298.342L943.444,367.9L948.595,448.71L968.984,446.05C973.877,445.411 978.566,448.22 980.313,452.834C980.314,452.835 980.314,452.836 980.314,452.836L941.047,470.679L937.338,450.179L937.441,450.166ZM850.218,470.679L826.505,470.679C826.505,470.679 811.569,443.515 811.569,443.515L826.309,434.993L841.037,460.467L841.788,460.467C844.024,460.467 846.168,461.355 847.749,462.936C849.33,464.516 850.218,466.661 850.218,468.896L850.218,470.679Z" style="fill:#505a78;"/>
            <path d="M825.555,476.856L824.627,476.64L823.743,476.285L822.923,475.8L822.186,475.196L821.549,474.487L821.028,473.69L806.093,446.526L805.658,445.543L805.398,444.501L805.382,444.29L805.059,443.514L804.822,442.47L804.766,441.402L804.894,440.34L805.2,439.315L805.677,438.357L840.211,381.758L841.061,369.935L846.196,298.562L846.355,297.541L846.68,296.561L847.162,295.648L847.787,294.826L848.54,294.119L849.398,293.545L850.339,293.12L851.338,292.856L852.366,292.76L917.029,292.092L918.113,292.175L919.166,292.445L920.156,292.893L921.054,293.506L921.832,294.266L922.466,295.148L922.938,296.127L949.289,365.686L949.553,366.58L949.681,367.502L954.408,441.649L968.209,439.848L968.538,439.809L968.9,439.773L969.262,439.745L969.623,439.726L969.984,439.714L970.344,439.709L970.703,439.713L971.061,439.724L971.418,439.742L971.774,439.768L972.128,439.801L972.48,439.842L972.831,439.89L973.18,439.946L973.528,440.008L973.873,440.078L974.216,440.155L974.557,440.238L974.895,440.329L975.231,440.426L975.565,440.531L975.896,440.642L976.224,440.76L976.549,440.884L976.872,441.015L977.191,441.152L977.508,441.296L977.821,441.446L978.131,441.603L978.437,441.766L978.74,441.935L979.04,442.11L979.335,442.291L979.627,442.478L979.916,442.672L980.2,442.871L980.48,443.076L980.756,443.287L981.028,443.504L981.296,443.726L981.559,443.954L981.818,444.188L982.072,444.427L982.321,444.672L982.566,444.923L982.806,445.178L983.04,445.439L983.27,445.705L983.494,445.977L983.713,446.253L983.927,446.535L984.135,446.822L984.337,447.113L984.534,447.41L984.725,447.711L984.91,448.017L985.088,448.327L985.261,448.642L985.427,448.962L985.587,449.285L985.74,449.613L985.886,449.945L986.026,450.281L986.134,450.559L986.159,450.623L986.446,451.627L986.562,452.666L986.503,453.709L986.271,454.728L985.872,455.693L985.319,456.579L984.625,457.361L983.811,458.016L982.899,458.526L943.633,476.369L942.661,476.717L941.646,476.9L940.614,476.914L939.594,476.757L938.613,476.435L937.699,475.956L936.876,475.333L936.167,474.584L935.591,473.727L935.164,472.788L934.897,471.791L931.188,451.292L931.089,450.285L931.099,450.133L920.217,385.178L885.86,329.142L882.656,329.784L869.7,391.61L869.48,392.399L869.158,393.153L868.741,393.858L868.235,394.502L832.892,433.892L844.827,454.535L845.017,454.576L845.367,454.659L845.714,454.751L846.058,454.851L846.399,454.959L846.738,455.076L847.074,455.201L847.406,455.334L847.735,455.475L848.061,455.624L848.383,455.781L848.701,455.945L849.015,456.118L849.325,456.299L849.631,456.487L849.933,456.683L850.23,456.886L850.522,457.097L850.81,457.315L851.092,457.541L851.369,457.774L851.641,458.014L851.908,458.261L852.169,458.516L852.423,458.777L852.67,459.043L852.911,459.315L853.144,459.592L853.369,459.875L853.588,460.162L853.799,460.455L854.002,460.752L854.198,461.053L854.386,461.359L854.566,461.669L854.739,461.984L854.904,462.302L855.061,462.624L855.21,462.949L855.351,463.278L855.484,463.611L855.609,463.947L855.725,464.285L855.834,464.627L855.934,464.971L856.026,465.318L856.109,465.667L856.184,466.019L856.25,466.373L856.308,466.729L856.357,467.086L856.397,467.446L856.428,467.807L856.45,468.169L856.464,468.532L856.468,468.858L856.468,470.679L856.373,471.764L856.091,472.816L855.631,473.804L855.006,474.696L854.235,475.466L853.343,476.091L852.356,476.552L851.303,476.834L850.218,476.929L826.505,476.929L825.555,476.856ZM824.026,443.532L820.508,445.566L819.993,445.864L830.201,464.429L836.211,464.429L835.626,463.595L824.026,443.532ZM949.404,454.908L948.383,454.957L947.368,454.839L946.386,454.557L945.463,454.118L944.623,453.536L944.227,453.151L945.768,461.668L965.175,452.85L949.404,454.908ZM858.251,305.2L853.237,374.892L852.57,384.167L852.421,385.146L852.119,386.09L851.671,386.974L837.807,409.697L857.81,387.404L871.268,323.183L871.565,322.186L872.024,321.252L872.631,320.408L873.37,319.675L874.22,319.076L875.158,318.625L876.158,318.337L887.681,316.029L888.761,315.909L889.845,315.978L890.901,316.234L891.897,316.668L892.803,317.269L893.59,318.017L894.237,318.891L931.509,379.68L931.882,380.387L932.162,381.136L932.344,381.914L941.594,437.128L937.266,369.235L912.795,304.636L858.251,305.2Z" style="fill:#505a78;"/>
            <path d="M919.476,200.241C919.578,187.866 914.505,176.01 905.482,167.54C896.459,159.069 884.307,154.754 871.963,155.637C871.96,155.637 871.957,155.637 871.954,155.638C865.529,156.097 859.597,159.248 855.619,164.313C851.641,169.379 849.986,175.889 851.063,182.239C856.004,211.386 863.538,255.822 863.538,255.822L852.114,293.482L918.705,293.387C918.705,293.387 919.137,241.163 919.476,200.241Z" style="fill:#27b7ff;"/>
            <path d="M924.954,293.439L924.852,294.517L924.565,295.561L924.102,296.539L923.477,297.423L922.708,298.186L921.82,298.805L920.838,299.262L919.792,299.542L918.714,299.637L852.123,299.732L851.067,299.644L850.041,299.379L849.075,298.944L848.196,298.352L847.43,297.621L846.799,296.77L846.32,295.825L846.007,294.813L845.87,293.763L845.912,292.704L846.133,291.668L856.683,256.887L857.13,255.415L844.898,183.263L844.839,182.905L844.783,182.525L844.731,182.146L844.684,181.766L844.643,181.386L844.607,181.006L844.575,180.626L844.549,180.246L844.527,179.866L844.511,179.486L844.5,179.106L844.493,178.726L844.492,178.347L844.495,177.968L844.503,177.59L844.517,177.212L844.535,176.834L844.558,176.457L844.586,176.08L844.619,175.704L844.656,175.329L844.699,174.954L844.746,174.58L844.798,174.207L844.855,173.834L844.917,173.463L844.984,173.092L845.055,172.723L845.131,172.354L845.212,171.986L845.298,171.62L845.388,171.255L845.483,170.891L845.583,170.528L845.687,170.166L845.796,169.806L845.91,169.447L846.029,169.09L846.152,168.734L846.279,168.38L846.412,168.027L846.549,167.676L846.69,167.326L846.836,166.978L846.987,166.632L847.142,166.288L847.302,165.945L847.467,165.605L847.636,165.266L847.809,164.93L847.987,164.595L848.169,164.263L848.356,163.932L848.548,163.604L848.743,163.278L848.944,162.954L849.148,162.633L849.357,162.314L849.571,161.998L849.789,161.684L850.011,161.372L850.238,161.063L850.468,160.757L850.704,160.453L850.943,160.153L851.186,159.856L851.432,159.562L851.682,159.272L851.936,158.986L852.193,158.704L852.453,158.425L852.717,158.15L852.984,157.879L853.254,157.611L853.527,157.348L853.804,157.088L854.084,156.832L854.366,156.58L854.652,156.331L854.941,156.087L855.233,155.847L855.528,155.61L855.826,155.378L856.126,155.149L856.429,154.925L856.735,154.704L857.044,154.488L857.356,154.276L857.67,154.068L857.986,153.864L858.305,153.664L858.627,153.468L858.951,153.277L859.277,153.09L859.606,152.907L859.937,152.728L860.271,152.554L860.607,152.384L860.944,152.218L861.284,152.057L861.627,151.9L861.971,151.747L862.317,151.599L862.665,151.456L863.016,151.317L863.368,151.182L863.722,151.052L864.077,150.926L864.435,150.805L864.794,150.689L865.155,150.577L865.518,150.47L865.882,150.367L866.248,150.269L866.615,150.176L866.984,150.088L867.354,150.004L867.726,149.925L868.099,149.851L868.473,149.782L868.848,149.717L869.225,149.658L869.603,149.603L869.982,149.553L870.362,149.508L870.743,149.468L871.125,149.433L871.487,149.405L871.538,149.401L872.177,149.36L872.837,149.326L873.496,149.3L874.154,149.283L874.812,149.275L875.47,149.275L876.126,149.284L876.782,149.301L877.436,149.326L878.09,149.36L878.743,149.403L879.394,149.454L880.044,149.513L880.693,149.581L881.341,149.657L881.987,149.741L882.631,149.833L883.274,149.934L883.915,150.043L884.555,150.16L885.192,150.285L885.828,150.418L886.461,150.559L887.093,150.709L887.722,150.866L888.349,151.032L888.974,151.205L889.596,151.387L890.216,151.576L890.833,151.773L891.448,151.978L892.06,152.191L892.669,152.412L893.275,152.64L893.879,152.877L894.479,153.121L895.076,153.372L895.671,153.632L896.262,153.899L896.849,154.173L897.433,154.456L898.014,154.746L898.591,155.043L899.165,155.348L899.735,155.66L900.301,155.98L900.864,156.308L901.422,156.642L901.976,156.984L902.527,157.334L903.073,157.691L903.615,158.055L904.153,158.426L904.686,158.805L905.215,159.191L905.739,159.584L906.259,159.984L906.773,160.391L907.284,160.806L907.789,161.227L908.289,161.656L908.785,162.091L909.275,162.534L909.76,162.983L910.239,163.439L910.712,163.9L911.178,164.367L911.637,164.839L912.089,165.317L912.535,165.8L912.974,166.288L913.406,166.782L913.831,167.28L914.25,167.783L914.661,168.292L915.066,168.805L915.464,169.323L915.854,169.845L916.238,170.373L916.614,170.904L916.983,171.441L917.345,171.981L917.7,172.526L918.048,173.075L918.389,173.628L918.722,174.186L919.048,174.747L919.366,175.312L919.678,175.881L919.981,176.454L920.278,177.031L920.567,177.611L920.848,178.195L921.122,178.782L921.388,179.373L921.647,179.967L921.898,180.565L922.141,181.165L922.377,181.769L922.605,182.375L922.826,182.985L923.038,183.597L923.243,184.213L923.44,184.831L923.628,185.452L923.81,186.075L923.983,186.701L924.148,187.329L924.305,187.96L924.454,188.593L924.595,189.228L924.728,189.865L924.853,190.505L924.969,191.146L925.078,191.79L925.178,192.435L925.27,193.082L925.353,193.73L925.428,194.381L925.495,195.032L925.554,195.686L925.604,196.34L925.645,196.996L925.679,197.653L925.703,198.312L925.719,198.971L925.727,199.632L925.726,200.272L924.954,293.439ZM913.221,199.194L913.209,198.697L913.19,198.201L913.165,197.707L913.134,197.213L913.096,196.72L913.052,196.228L913.002,195.737L912.945,195.248L912.882,194.759L912.813,194.272L912.738,193.787L912.656,193.302L912.568,192.819L912.475,192.338L912.375,191.858L912.268,191.38L912.156,190.903L912.038,190.429L911.914,189.956L911.783,189.484L911.647,189.015L911.505,188.547L911.356,188.082L911.202,187.619L911.042,187.157L910.876,186.698L910.705,186.242L910.527,185.787L910.344,185.335L910.155,184.885L909.96,184.438L909.759,183.993L909.553,183.55L909.341,183.111L909.124,182.674L908.9,182.24L908.672,181.808L908.437,181.38L908.197,180.954L907.952,180.531L907.701,180.112L907.445,179.695L907.183,179.282L906.916,178.871L906.643,178.464L906.365,178.061L906.082,177.66L905.793,177.264L905.499,176.87L905.2,176.48L904.895,176.094L904.585,175.711L904.27,175.332L903.95,174.957L903.625,174.586L903.294,174.218L902.959,173.854L902.618,173.495L902.272,173.139L901.921,172.787L901.565,172.44L901.204,172.097L900.839,171.758L900.47,171.425L900.097,171.097L899.72,170.774L899.339,170.457L898.955,170.145L898.567,169.838L898.176,169.537L897.782,169.241L897.383,168.95L896.982,168.665L896.577,168.386L896.169,168.112L895.758,167.843L895.344,167.58L894.926,167.322L894.506,167.07L894.083,166.824L893.656,166.583L893.227,166.348L892.795,166.118L892.361,165.894L891.923,165.676L891.483,165.463L891.041,165.257L890.596,165.056L890.148,164.86L889.699,164.671L889.246,164.487L888.792,164.309L888.335,164.137L887.877,163.971L887.416,163.81L886.953,163.656L886.488,163.507L886.021,163.365L885.553,163.228L885.082,163.098L884.61,162.973L884.136,162.854L883.661,162.742L883.184,162.636L882.705,162.535L882.225,162.441L881.744,162.353L881.261,162.271L880.777,162.195L880.292,162.126L879.806,162.062L879.318,162.005L878.83,161.954L878.34,161.91L877.85,161.871L877.358,161.839L876.866,161.814L876.373,161.794L875.88,161.781L875.386,161.775L874.891,161.775L874.395,161.781L873.899,161.794L873.403,161.813L872.906,161.839L872.405,161.871L872.181,161.889L871.963,161.909L871.746,161.932L871.529,161.957L871.313,161.986L871.097,162.017L870.882,162.051L870.668,162.088L870.455,162.127L870.242,162.169L870.031,162.214L869.819,162.262L869.609,162.312L869.4,162.366L869.191,162.421L868.984,162.48L868.777,162.541L868.571,162.605L868.366,162.671L868.162,162.74L867.959,162.812L867.758,162.886L867.557,162.963L867.357,163.042L867.158,163.124L866.961,163.209L866.764,163.296L866.569,163.385L866.375,163.477L866.183,163.572L865.991,163.669L865.801,163.768L865.612,163.87L865.424,163.974L865.238,164.081L865.053,164.19L864.87,164.302L864.688,164.416L864.507,164.532L864.328,164.651L864.151,164.772L863.974,164.895L863.8,165.021L863.627,165.149L863.456,165.279L863.286,165.412L863.118,165.547L862.951,165.684L862.787,165.823L862.624,165.965L862.462,166.108L862.303,166.254L862.145,166.402L861.989,166.553L861.835,166.705L861.683,166.86L861.533,167.017L861.384,167.176L861.238,167.337L861.093,167.5L860.951,167.665L860.81,167.833L860.671,168.002L860.535,168.174L860.4,168.347L860.269,168.522L860.139,168.698L860.013,168.876L859.888,169.055L859.767,169.235L859.647,169.417L859.531,169.601L859.416,169.785L859.305,169.971L859.196,170.158L859.089,170.346L858.985,170.536L858.884,170.727L858.785,170.919L858.689,171.112L858.595,171.306L858.504,171.501L858.415,171.697L858.329,171.895L858.246,172.093L858.165,172.292L858.087,172.493L858.012,172.694L857.939,172.896L857.869,173.099L857.801,173.303L857.736,173.508L857.674,173.713L857.614,173.919L857.557,174.126L857.503,174.334L857.452,174.542L857.403,174.751L857.357,174.961L857.313,175.171L857.273,175.382L857.235,175.594L857.199,175.805L857.167,176.018L857.137,176.231L857.11,176.444L857.086,176.658L857.064,176.872L857.046,177.086L857.03,177.301L857.016,177.516L857.006,177.731L856.999,177.947L856.994,178.163L856.992,178.379L856.993,178.595L856.996,178.811L857.003,179.028L857.012,179.244L857.024,179.461L857.039,179.678L857.057,179.895L857.078,180.111L857.102,180.328L857.128,180.545L857.158,180.761L857.19,180.978L857.229,181.215L869.7,254.777L869.787,255.735L869.726,256.696L869.528,257.594L869.519,257.636L860.545,287.22L912.506,287.146L913.226,200.21L913.227,199.691L913.221,199.194Z" style="fill:#27b7ff;"/>
            <path d="M858.295,173.993L866.786,165.201L882.338,169.775L897.544,231.943L917.94,224.278L971.704,222.846L984.581,209.821L997.105,215.672L998.078,229.833L965.048,235.697L891.662,249.353L858.295,173.993Z" style="fill:#505a78;"/>
            <path d="M894.138,244.654L964.303,231.598L993.664,226.385L993.116,218.408L991.376,217.595L985.479,214.839L974.667,225.776L974.187,226.193L973.648,226.532L973.064,226.785L972.448,226.946L971.815,227.011L918.75,228.425L899.01,235.843L898.333,236.035L897.634,236.109L896.931,236.065L896.247,235.903L895.599,235.628L895.007,235.248L894.487,234.774L894.054,234.22L893.721,233.6L893.497,232.933L878.861,173.095L868.031,169.911L863.24,174.87L894.138,244.654ZM864.274,161.877L864.819,161.528L865.412,161.268L866.038,161.103L866.682,161.036L867.329,161.07L867.962,161.204L883.513,165.778L884.188,166.042L884.807,166.419L885.351,166.897L885.804,167.463L886.152,168.099L886.385,168.785L900.476,226.39L916.474,220.378L917.14,220.189L917.829,220.113L969.919,218.726L981.618,206.891L982.101,206.473L982.642,206.133L983.229,205.88L983.847,205.719L984.483,205.655L985.121,205.689L985.747,205.821L986.345,206.046L998.869,211.897L999.421,212.208L999.919,212.599L1000.35,213.061L1000.71,213.584L1000.99,214.154L1001.17,214.76L1001.26,215.387L1002.23,229.548L1002.23,230.224L1002.11,230.891L1001.88,231.529L1001.56,232.123L1001.14,232.657L1000.64,233.115L1000.08,233.488L999.461,233.763L998.806,233.936L965.793,239.797L892.424,253.45L891.732,253.519L891.037,253.473L890.36,253.311L889.719,253.039L889.133,252.665L888.617,252.197L888.186,251.651L887.852,251.04L854.485,175.68L854.255,175.014L854.141,174.319L854.145,173.614L854.268,172.921L854.506,172.258L854.853,171.644L855.298,171.098L863.79,162.307L864.274,161.877Z" style="fill:#505a78;"/>
            <path d="M885.402,164.151C882.9,157.556 875.526,154.239 868.931,156.741C865.646,157.987 862.083,159.339 858.798,160.585C852.204,163.087 848.886,170.461 851.388,177.056C856.834,191.411 865.25,213.594 865.25,213.594L899.265,200.69C899.265,200.69 890.848,178.506 885.402,164.151Z" style="fill:#27b7ff;"/>
            <path d="M873.678,151.741L874.091,151.752L874.503,151.772L874.914,151.803L875.323,151.843L875.73,151.893L876.135,151.953L876.538,152.023L876.939,152.102L877.337,152.191L877.732,152.29L878.125,152.397L878.514,152.514L878.901,152.64L879.284,152.775L879.663,152.919L880.039,153.073L880.411,153.235L880.779,153.405L881.143,153.585L881.503,153.773L881.858,153.97L882.208,154.176L882.554,154.39L882.895,154.612L883.231,154.843L883.561,155.082L883.886,155.329L884.206,155.584L884.519,155.848L884.827,156.119L885.129,156.398L885.424,156.685L885.713,156.98L885.995,157.283L886.27,157.593L886.538,157.911L886.799,158.236L887.053,158.568L887.299,158.907L887.537,159.254L887.767,159.608L887.989,159.968L888.203,160.335L888.408,160.709L888.604,161.09L888.791,161.476L888.97,161.869L889.139,162.268L889.289,162.648L903.16,199.211L903.358,199.91L903.431,200.633L903.378,201.357L903.199,202.061L902.901,202.724L902.493,203.324L901.986,203.845L901.397,204.269L900.743,204.585L866.729,217.49L866.101,217.673L865.452,217.756L864.799,217.737L864.156,217.615L863.541,217.394L862.968,217.08L862.45,216.68L862.002,216.204L861.634,215.664L861.355,215.073L859.089,209.1L847.483,178.51L847.343,178.126L847.204,177.715L847.077,177.303L846.961,176.889L846.856,176.474L846.761,176.058L846.677,175.642L846.604,175.225L846.542,174.807L846.49,174.39L846.449,173.973L846.418,173.556L846.398,173.14L846.388,172.724L846.388,172.309L846.399,171.896L846.419,171.484L846.45,171.073L846.49,170.664L846.541,170.257L846.601,169.852L846.67,169.449L846.75,169.048L846.838,168.65L846.937,168.255L847.044,167.862L847.161,167.473L847.287,167.086L847.422,166.703L847.567,166.324L847.72,165.948L847.882,165.576L848.053,165.208L848.232,164.844L848.421,164.485L848.618,164.129L848.823,163.779L849.037,163.433L849.259,163.092L849.49,162.756L849.729,162.426L849.976,162.101L850.232,161.781L850.495,161.468L850.766,161.16L851.046,160.858L851.333,160.563L851.627,160.274L851.93,159.992L852.24,159.717L852.558,159.449L852.883,159.188L853.215,158.934L853.555,158.688L853.901,158.45L854.255,158.22L854.615,157.998L854.983,157.784L855.356,157.579L855.737,157.383L856.123,157.196L856.516,157.017L856.915,156.848L857.296,156.699L867.478,152.836L867.862,152.695L868.272,152.557L868.685,152.43L869.098,152.314L869.513,152.208L869.929,152.114L870.345,152.03L870.762,151.957L871.18,151.895L871.597,151.843L872.014,151.802L872.431,151.771L872.847,151.751L873.263,151.741L873.678,151.741ZM881.337,165.216L881.246,165.015L881.151,164.818L881.051,164.624L880.947,164.435L880.838,164.248L880.726,164.066L880.61,163.887L880.489,163.712L880.365,163.54L880.237,163.373L880.105,163.208L879.97,163.048L879.831,162.891L879.688,162.738L879.542,162.589L879.392,162.444L879.24,162.302L879.084,162.165L878.924,162.031L878.762,161.902L878.597,161.776L878.429,161.654L878.258,161.537L878.085,161.424L877.908,161.315L877.73,161.21L877.549,161.11L877.365,161.014L877.179,160.922L876.992,160.835L876.802,160.752L876.61,160.674L876.417,160.6L876.221,160.531L876.024,160.467L875.826,160.408L875.626,160.353L875.425,160.303L875.222,160.258L875.019,160.217L874.814,160.182L874.609,160.152L874.402,160.126L874.195,160.106L873.987,160.09L873.779,160.08L873.57,160.074L873.36,160.074L873.15,160.079L872.94,160.09L872.729,160.105L872.519,160.126L872.308,160.152L872.097,160.184L871.886,160.22L871.674,160.263L871.463,160.311L871.252,160.365L871.041,160.424L870.83,160.489L870.62,160.56L870.384,160.646L860.301,164.471L860.068,164.563L859.863,164.65L859.662,164.741L859.465,164.837L859.272,164.937L859.082,165.041L858.896,165.149L858.713,165.261L858.534,165.378L858.359,165.498L858.188,165.622L858.02,165.75L857.856,165.882L857.695,166.018L857.538,166.157L857.386,166.299L857.236,166.445L857.091,166.595L856.95,166.748L856.812,166.904L856.678,167.063L856.549,167.225L856.423,167.39L856.302,167.558L856.184,167.729L856.071,167.903L855.962,168.079L855.857,168.257L855.757,168.439L855.661,168.622L855.569,168.808L855.482,168.996L855.399,169.185L855.321,169.377L855.248,169.571L855.179,169.766L855.114,169.963L855.055,170.161L855,170.361L854.95,170.562L854.905,170.765L854.865,170.968L854.829,171.173L854.799,171.378L854.773,171.585L854.753,171.792L854.737,172L854.727,172.208L854.722,172.418L854.721,172.627L854.727,172.837L854.737,173.047L854.752,173.258L854.773,173.469L854.799,173.679L854.831,173.89L854.868,174.102L854.91,174.313L854.958,174.524L855.012,174.735L855.071,174.946L855.136,175.157L855.207,175.367L855.293,175.603L867.668,208.221L893.891,198.272L881.516,165.654L881.424,165.421L881.337,165.216Z" style="fill:#27b7ff;"/>
            <path d="M900.747,107.691C900.706,95.408 890.714,85.483 878.431,85.524C878.428,85.524 878.426,85.524 878.423,85.524C873.32,85.541 868.432,87.585 864.836,91.205C861.24,94.826 859.229,99.727 859.246,104.83C859.268,111.39 859.292,118.738 859.314,125.36C859.351,136.438 868.362,145.388 879.44,145.351C879.442,145.351 879.445,145.351 879.447,145.351C891.28,145.312 900.84,135.687 900.801,123.855C900.783,118.606 900.764,112.977 900.747,107.691Z" style="fill:#505a78;"/>
            <path d="M878.777,79.275L879.142,79.281L879.507,79.291L879.871,79.306L880.234,79.326L880.596,79.35L880.956,79.378L881.316,79.411L881.674,79.449L882.032,79.491L882.388,79.537L882.742,79.588L883.096,79.643L883.448,79.702L883.798,79.766L884.147,79.834L884.495,79.906L884.841,79.982L885.186,80.063L885.529,80.148L885.87,80.237L886.21,80.33L886.548,80.427L886.884,80.528L887.219,80.633L887.552,80.742L887.883,80.855L888.212,80.972L888.539,81.093L888.865,81.218L889.188,81.346L889.51,81.479L889.829,81.615L890.146,81.755L890.462,81.898L890.775,82.046L891.086,82.197L891.395,82.351L891.702,82.509L892.006,82.671L892.309,82.837L892.609,83.005L892.907,83.178L893.202,83.353L893.495,83.533L893.786,83.715L894.074,83.901L894.36,84.09L894.644,84.283L894.925,84.479L895.203,84.678L895.479,84.881L895.753,85.086L896.024,85.295L896.292,85.507L896.558,85.722L896.82,85.94L897.081,86.161L897.338,86.386L897.593,86.613L897.845,86.843L898.094,87.077L898.341,87.313L898.584,87.552L898.825,87.794L899.063,88.039L899.298,88.286L899.53,88.537L899.759,88.79L899.985,89.046L900.208,89.305L900.428,89.566L900.645,89.831L900.858,90.097L901.069,90.367L901.276,90.639L901.481,90.913L901.682,91.191L901.879,91.47L902.074,91.753L902.265,92.037L902.453,92.324L902.637,92.614L902.819,92.906L902.996,93.2L903.171,93.497L903.342,93.796L903.509,94.097L903.673,94.4L903.833,94.706L903.99,95.014L904.143,95.324L904.292,95.637L904.438,95.951L904.58,96.267L904.718,96.586L904.853,96.906L904.983,97.229L905.11,97.554L905.233,97.88L905.352,98.208L905.468,98.539L905.579,98.871L905.686,99.205L905.79,99.54L905.889,99.878L905.984,100.217L906.076,100.558L906.163,100.9L906.246,101.244L906.324,101.59L906.399,101.937L906.469,102.286L906.535,102.636L906.597,102.987L906.654,103.34L906.707,103.695L906.756,104.05L906.8,104.407L906.84,104.765L906.876,105.125L906.907,105.485L906.933,105.847L906.955,106.21L906.972,106.573L906.985,106.938L906.993,107.304L906.997,107.651L907.051,123.854L907.05,124.19L907.044,124.545L907.034,124.9L907.02,125.253L907.001,125.605L906.977,125.957L906.95,126.307L906.918,126.656L906.881,127.005L906.84,127.352L906.795,127.697L906.746,128.042L906.693,128.385L906.635,128.727L906.573,129.067L906.507,129.407L906.437,129.744L906.363,130.081L906.285,130.415L906.202,130.749L906.116,131.08L906.026,131.41L905.931,131.739L905.833,132.065L905.731,132.39L905.625,132.714L905.515,133.035L905.401,133.355L905.284,133.673L905.163,133.989L905.038,134.303L904.909,134.615L904.777,134.926L904.641,135.234L904.502,135.54L904.359,135.845L904.212,136.147L904.062,136.447L903.908,136.745L903.751,137.041L903.59,137.335L903.426,137.626L903.259,137.915L903.079,138.219L902.737,138.77L902.373,139.328L901.995,139.876L901.605,140.414L901.203,140.943L900.788,141.462L900.361,141.97L899.922,142.468L899.472,142.954L899.011,143.43L898.538,143.895L898.054,144.349L897.559,144.791L897.054,145.221L896.538,145.639L896.012,146.045L895.476,146.439L894.93,146.82L894.375,147.188L893.826,147.533L893.524,147.716L893.236,147.885L892.946,148.051L892.653,148.213L892.358,148.372L892.061,148.528L891.762,148.68L891.461,148.829L891.157,148.974L890.852,149.116L890.545,149.254L890.235,149.388L889.924,149.519L889.611,149.646L889.295,149.769L888.978,149.888L888.659,150.004L888.338,150.116L888.016,150.224L887.691,150.329L887.365,150.429L887.038,150.526L886.708,150.618L886.377,150.707L886.044,150.791L885.71,150.872L885.374,150.948L885.037,151.021L884.699,151.089L884.358,151.153L884.017,151.213L883.674,151.269L883.33,151.32L882.984,151.368L882.638,151.411L882.29,151.449L881.941,151.484L881.591,151.514L881.239,151.539L880.887,151.561L880.534,151.578L880.18,151.59L879.824,151.598L879.508,151.601L879.468,151.601L879.46,151.601L879.421,151.601L879.122,151.6L878.784,151.595L878.448,151.586L878.112,151.572L877.777,151.554L877.443,151.532L877.11,151.505L876.778,151.475L876.447,151.44L876.117,151.402L875.788,151.359L875.461,151.312L875.134,151.261L874.809,151.206L874.486,151.147L874.163,151.085L873.842,151.018L873.503,150.943L872.887,150.795L872.258,150.627L871.636,150.444L871.019,150.246L870.409,150.034L869.807,149.807L869.211,149.566L868.623,149.311L868.043,149.042L867.47,148.76L866.905,148.465L866.349,148.156L865.801,147.835L865.262,147.501L864.732,147.154L864.21,146.795L863.698,146.425L863.196,146.042L862.703,145.648L862.22,145.242L861.747,144.825L861.284,144.397L860.832,143.958L860.39,143.509L859.959,143.049L859.539,142.579L859.13,142.098L858.732,141.608L858.346,141.108L857.972,140.599L857.61,140.08L857.26,139.552L856.922,139.015L856.597,138.469L856.285,137.915L855.986,137.352L855.7,136.782L855.427,136.203L855.168,135.616L854.923,135.023L854.692,134.421L854.476,133.813L854.274,133.198L854.087,132.576L853.914,131.948L853.762,131.333L853.685,130.995L853.616,130.675L853.551,130.353L853.49,130.029L853.433,129.705L853.38,129.379L853.331,129.052L853.286,128.723L853.246,128.394L853.209,128.063L853.176,127.731L853.147,127.398L853.123,127.064L853.103,126.73L853.087,126.394L853.075,126.057L853.068,125.719L853.064,125.401L853.05,120.947L852.996,104.812L853.001,104.218L853.022,103.587L853.059,102.958L853.112,102.331L853.179,101.707L853.262,101.086L853.36,100.468L853.473,99.853L853.601,99.242L853.743,98.635L853.901,98.032L854.072,97.433L854.259,96.839L854.459,96.251L854.674,95.667L854.903,95.089L855.146,94.517L855.403,93.951L855.674,93.391L855.958,92.837L856.256,92.29L856.568,91.751L856.893,91.219L857.231,90.694L857.582,90.177L857.947,89.668L858.324,89.168L858.714,88.676L859.117,88.193L859.533,87.719L859.961,87.255L860.401,86.8L860.853,86.357L861.314,85.926L861.785,85.507L862.265,85.101L862.755,84.707L863.253,84.327L863.759,83.959L864.273,83.604L864.796,83.262L865.326,82.934L865.864,82.619L866.408,82.317L866.96,82.029L867.518,81.754L868.083,81.494L868.653,81.247L869.23,81.014L869.812,80.795L870.399,80.591L870.992,80.401L871.589,80.225L872.191,80.063L872.797,79.917L873.407,79.785L874.021,79.668L874.639,79.566L875.259,79.479L875.883,79.407L876.51,79.35L877.138,79.309L877.769,79.284L878.363,79.274L878.449,79.274L878.777,79.275ZM894.49,107.297L894.483,107.09L894.473,106.884L894.46,106.679L894.446,106.475L894.428,106.272L894.408,106.07L894.386,105.869L894.361,105.668L894.334,105.468L894.304,105.27L894.272,105.072L894.237,104.875L894.2,104.679L894.161,104.484L894.119,104.29L894.075,104.096L894.029,103.904L893.98,103.713L893.929,103.522L893.876,103.333L893.82,103.144L893.763,102.957L893.703,102.77L893.641,102.585L893.576,102.4L893.51,102.217L893.441,102.035L893.37,101.853L893.297,101.673L893.222,101.494L893.144,101.316L893.065,101.139L892.983,100.963L892.9,100.788L892.814,100.614L892.726,100.442L892.636,100.271L892.545,100.101L892.451,99.932L892.355,99.764L892.257,99.598L892.158,99.432L892.056,99.269L891.952,99.106L891.847,98.945L891.739,98.785L891.63,98.626L891.519,98.469L891.406,98.313L891.291,98.159L891.174,98.006L891.056,97.854L890.935,97.704L890.813,97.555L890.689,97.408L890.564,97.262L890.437,97.118L890.308,96.975L890.177,96.834L890.045,96.695L889.911,96.557L889.775,96.42L889.638,96.286L889.499,96.152L889.358,96.021L889.216,95.891L889.073,95.763L888.928,95.637L888.781,95.512L888.633,95.39L888.484,95.269L888.333,95.149L888.18,95.032L888.027,94.916L887.871,94.802L887.715,94.69L887.557,94.58L887.397,94.472L887.237,94.365L887.075,94.261L886.911,94.158L886.747,94.058L886.581,93.959L886.414,93.863L886.246,93.768L886.076,93.675L885.906,93.585L885.734,93.496L885.561,93.409L885.386,93.325L885.211,93.242L885.035,93.162L884.857,93.084L884.679,93.008L884.499,92.934L884.318,92.862L884.136,92.792L883.953,92.724L883.769,92.659L883.585,92.596L883.399,92.535L883.212,92.476L883.024,92.42L882.835,92.366L882.645,92.314L882.455,92.264L882.263,92.217L882.07,92.172L881.877,92.129L881.682,92.088L881.487,92.05L881.291,92.015L881.093,91.982L880.895,91.951L880.697,91.922L880.497,91.896L880.296,91.873L880.095,91.852L879.892,91.833L879.689,91.817L879.485,91.803L879.28,91.792L879.074,91.784L878.867,91.778L878.66,91.775L878.465,91.774L878.121,91.78L877.799,91.793L877.479,91.814L877.16,91.843L876.842,91.879L876.526,91.923L876.211,91.975L875.898,92.035L875.588,92.102L875.279,92.177L874.972,92.259L874.668,92.349L874.366,92.446L874.066,92.55L873.77,92.661L873.476,92.78L873.185,92.906L872.897,93.039L872.613,93.179L872.331,93.326L872.054,93.479L871.78,93.64L871.51,93.807L871.244,93.981L870.981,94.162L870.724,94.35L870.47,94.544L870.221,94.744L869.976,94.951L869.736,95.164L869.501,95.384L869.27,95.61L869.046,95.842L868.828,96.079L868.616,96.32L868.41,96.566L868.212,96.817L868.019,97.072L867.834,97.331L867.655,97.594L867.482,97.862L867.317,98.133L867.158,98.408L867.006,98.687L866.861,98.969L866.723,99.254L866.592,99.543L866.468,99.834L866.352,100.129L866.242,100.426L866.14,100.727L866.045,101.029L865.957,101.334L865.877,101.641L865.805,101.951L865.74,102.262L865.682,102.575L865.632,102.89L865.59,103.207L865.555,103.525L865.529,103.844L865.51,104.165L865.499,104.486L865.496,104.848L865.564,125.319L865.566,125.519L865.57,125.699L865.576,125.877L865.585,126.055L865.596,126.232L865.608,126.408L865.624,126.584L865.641,126.758L865.66,126.932L865.682,127.105L865.705,127.278L865.731,127.449L865.759,127.62L865.789,127.79L865.82,127.959L865.854,128.128L865.89,128.295L865.924,128.443L866.011,128.793L866.101,129.121L866.198,129.446L866.304,129.767L866.417,130.084L866.537,130.398L866.665,130.708L866.801,131.015L866.943,131.318L867.093,131.616L867.25,131.911L867.413,132.202L867.584,132.488L867.761,132.77L867.945,133.047L868.135,133.32L868.332,133.588L868.535,133.851L868.745,134.109L868.96,134.362L869.182,134.61L869.409,134.852L869.642,135.089L869.88,135.321L870.124,135.546L870.373,135.766L870.628,135.98L870.887,136.187L871.152,136.389L871.421,136.584L871.695,136.772L871.974,136.954L872.257,137.13L872.544,137.298L872.836,137.46L873.131,137.615L873.431,137.762L873.735,137.903L874.042,138.036L874.353,138.162L874.668,138.281L874.986,138.392L875.308,138.495L875.633,138.59L875.962,138.678L876.312,138.762L876.46,138.795L876.628,138.83L876.797,138.863L876.966,138.894L877.137,138.922L877.307,138.949L877.479,138.973L877.652,138.996L877.825,139.016L877.999,139.034L878.174,139.05L878.349,139.064L878.526,139.076L878.703,139.086L878.881,139.093L879.059,139.098L879.239,139.101L879.423,139.101L879.624,139.099L879.821,139.095L880.017,139.088L880.213,139.079L880.407,139.067L880.601,139.053L880.793,139.036L880.985,139.017L881.176,138.996L881.367,138.972L881.556,138.947L881.745,138.918L881.932,138.888L882.119,138.855L882.305,138.82L882.49,138.783L882.675,138.743L882.858,138.701L883.04,138.657L883.222,138.611L883.403,138.563L883.582,138.512L883.761,138.46L883.939,138.405L884.116,138.348L884.292,138.289L884.467,138.228L884.641,138.165L884.814,138.1L884.986,138.032L885.157,137.963L885.327,137.892L885.496,137.818L885.664,137.743L885.831,137.665L885.997,137.586L886.162,137.505L886.325,137.421L886.488,137.336L886.649,137.249L886.81,137.16L886.969,137.069L887.127,136.977L887.267,136.892L887.593,136.687L887.898,136.485L888.197,136.275L888.492,136.059L888.781,135.836L889.065,135.606L889.343,135.369L889.615,135.126L889.881,134.876L890.142,134.621L890.396,134.359L890.644,134.091L890.885,133.817L891.12,133.537L891.348,133.252L891.569,132.961L891.783,132.665L891.991,132.364L892.191,132.058L892.393,131.731L892.477,131.59L892.569,131.431L892.659,131.272L892.747,131.111L892.833,130.949L892.917,130.786L892.999,130.621L893.079,130.456L893.158,130.29L893.234,130.122L893.308,129.954L893.38,129.785L893.451,129.614L893.519,129.442L893.585,129.27L893.649,129.096L893.711,128.922L893.771,128.747L893.829,128.57L893.884,128.393L893.938,128.215L893.989,128.035L894.039,127.855L894.086,127.674L894.131,127.493L894.174,127.31L894.214,127.126L894.252,126.942L894.288,126.756L894.322,126.57L894.354,126.383L894.383,126.195L894.41,126.006L894.435,125.817L894.457,125.626L894.477,125.435L894.495,125.243L894.51,125.05L894.523,124.856L894.533,124.662L894.541,124.467L894.547,124.27L894.55,124.073L894.551,123.856L894.497,107.732L894.495,107.504L894.49,107.297Z" style="fill:#505a78;"/>
            <path d="M869.824,108.537L852.565,112.556C852.565,112.556 844.669,86.999 869.336,77.574C889.473,69.879 898.451,80.367 902.372,89.503C911.613,87.195 918.38,86.65 922.213,88.216C923.413,88.706 924.197,90.09 924.91,91.4C925.413,92.334 925.46,93.525 925.036,94.571C924.613,95.616 923.774,96.375 922.804,96.592C911.513,99.138 869.824,108.537 869.824,108.537Z" style="fill:#27b7ff;"/>
        </g>
        <g>
            <ellipse cx="373.383" cy="480.378" rx="361.732" ry="7.896" style="fill:#b3b8c5;"/>
            <g>
                <circle cx="568.242" cy="400.708" r="81.714" style="fill:#505a78;"/>
                <circle cx="568.242" cy="400.708" r="42.388" style="fill:#81889e;"/>
            </g>
            <g>
                <circle cx="175.658" cy="400.708" r="81.714" style="fill:#505a78;"/>
                <circle cx="175.658" cy="400.708" r="42.388" style="fill:#81889e;"/>
            </g>
            <path d="M204.153,103.67L107.492,103.67L8.838,235.209L8.838,399.474L104.268,399.018C104.239,398.205 104.225,397.389 104.225,396.569C104.225,357.918 135.605,326.539 174.255,326.539C212.905,326.539 244.285,357.918 244.285,396.569C244.285,397.164 244.277,397.758 244.262,398.35L498.215,397.137C498.213,396.948 498.212,396.758 498.212,396.569C498.212,357.918 529.592,326.539 568.242,326.539C606.859,326.539 638.217,357.864 638.271,396.468L732.302,396.019C732.302,396.019 732.302,199.888 732.302,94.143C732.302,57.834 702.868,28.4 666.558,28.399L204.153,28.399L204.153,103.67Z" style="fill:#fff;"/>
            <clipPath id="_clip1">
                <path d="M204.153,103.67L107.492,103.67L8.838,235.209L8.838,399.474L104.268,399.018C104.239,398.205 104.225,397.389 104.225,396.569C104.225,357.918 135.605,326.539 174.255,326.539C212.905,326.539 244.285,357.918 244.285,396.569C244.285,397.164 244.277,397.758 244.262,398.35L498.215,397.137C498.213,396.948 498.212,396.758 498.212,396.569C498.212,357.918 529.592,326.539 568.242,326.539C606.859,326.539 638.217,357.864 638.271,396.468L732.302,396.019C732.302,396.019 732.302,199.888 732.302,94.143C732.302,57.834 702.868,28.4 666.558,28.399L204.153,28.399L204.153,103.67Z"/>
            </clipPath>
            <g clip-path="url(#_clip1)">
                <rect x="568.242" y="331.102" width="164.06" height="65.467" style="fill:#81889e;"/>
                <path d="M726.052,390.319L726.052,337.352L574.492,337.352L574.492,390.319L726.052,390.319ZM733.387,324.947L734.439,325.229L735.427,325.689L736.319,326.314L737.09,327.085L737.715,327.977L738.175,328.964L738.457,330.017L738.552,331.102L738.552,396.569L738.457,397.654L738.175,398.706L737.715,399.694L737.09,400.586L736.319,401.356L735.427,401.981L734.439,402.442L733.387,402.724L732.302,402.819L568.242,402.819L567.157,402.724L566.104,402.442L565.117,401.981L564.225,401.356L563.454,400.586L562.829,399.694L562.369,398.706L562.087,397.654L561.992,396.569L561.992,331.102L562.087,330.017L562.369,328.964L562.829,327.977L563.454,327.085L564.225,326.314L565.117,325.689L566.104,325.229L567.157,324.947L568.242,324.852L732.302,324.852L733.387,324.947Z" style="fill:#505a78;"/>
                <rect x="216.939" y="366.741" width="310.92" height="42.416" style="fill:#81889e;"/>
                <path d="M521.609,402.907L521.609,372.991L223.189,372.991L223.189,402.907L521.609,402.907ZM528.945,360.586L529.997,360.868L530.984,361.328L531.877,361.953L532.647,362.723L533.272,363.616L533.732,364.603L534.014,365.655L534.109,366.741L534.109,409.157L534.014,410.242L533.732,411.294L533.272,412.282L532.647,413.174L531.877,413.944L530.984,414.569L529.997,415.03L528.945,415.312L527.859,415.407L216.939,415.407L215.854,415.312L214.802,415.03L213.814,414.569L212.922,413.944L212.151,413.174L211.527,412.282L211.066,411.294L210.784,410.242L210.689,409.157L210.689,366.741L210.784,365.655L211.066,364.603L211.527,363.616L212.151,362.723L212.922,361.953L213.814,361.328L214.802,360.868L215.854,360.586L216.939,360.491L527.859,360.491L528.945,360.586Z" style="fill:#505a78;"/>
                <rect x="8.838" y="334.007" width="161.112" height="65.467" style="fill:#81889e;"/>
                <path d="M163.699,393.224L163.699,340.257L15.088,340.257L15.088,393.224L163.699,393.224ZM171.035,327.852L172.087,328.134L173.074,328.595L173.967,329.22L174.737,329.99L175.362,330.882L175.823,331.87L176.105,332.922L176.199,334.007L176.199,399.474L176.105,400.559L175.823,401.612L175.362,402.599L174.737,403.491L173.967,404.262L173.074,404.887L172.087,405.347L171.035,405.629L169.949,405.724L8.838,405.724L7.753,405.629L6.7,405.347L5.713,404.887L4.82,404.262L4.05,403.491L3.425,402.599L2.965,401.612L2.683,400.559L2.588,399.474L2.588,334.007L2.683,332.922L2.965,331.87L3.425,330.882L4.05,329.99L4.82,329.22L5.713,328.595L6.7,328.134L7.753,327.852L8.838,327.757L169.949,327.757L171.035,327.852Z" style="fill:#505a78;"/>
                <g>
                    <path d="M206.146,152.997L206.146,235.209L59.48,235.209L123.934,152.997L206.146,152.997Z" style="fill:#dcdee4;"/>
                    <path d="M212.301,236.294L212.019,237.347L211.559,238.334L210.934,239.226L210.164,239.997L209.271,240.622L208.284,241.082L207.232,241.364L206.146,241.459L59.48,241.459L58.411,241.367L57.373,241.093L56.397,240.645L55.512,240.037L54.744,239.287L54.116,238.417L53.646,237.451L53.349,236.42L53.232,235.353L53.3,234.281L53.549,233.237L53.974,232.251L54.562,231.353L119.016,149.141L119.652,148.445L120.385,147.853L121.199,147.377L122.076,147.03L122.994,146.818L123.934,146.747L206.146,146.747L207.232,146.842L208.284,147.124L209.271,147.584L210.164,148.209L210.934,148.98L211.559,149.872L212.019,150.859L212.301,151.912L212.396,152.997L212.396,235.209L212.301,236.294ZM126.976,159.247L72.322,228.959L199.896,228.959L199.896,159.247L126.976,159.247Z" style="fill:#505a78;"/>
                </g>
                <path d="M494.596,326.688L496.432,331.06L496.432,331.144L494.596,335.516L490.223,337.352L257.33,337.352L252.958,335.516L251.122,331.144L251.122,331.06L252.958,326.688L257.33,324.852L490.223,324.852L494.596,326.688Z" style="fill:#505a78;"/>
                <path d="M210.56,230.795L212.396,235.167L212.396,342.016L210.56,346.388L206.188,348.224L206.105,348.224L201.732,346.388L199.896,342.016L199.896,235.167L201.732,230.795L206.105,228.959L206.188,228.959L210.56,230.795Z" style="fill:#505a78;"/>
                <path d="M63.894,230.795L65.73,235.167L65.73,334.049L63.894,338.422L59.522,340.257L59.439,340.257L55.066,338.422L53.23,334.049L53.23,235.167L55.066,230.795L59.439,228.959L59.522,228.959L63.894,230.795Z" style="fill:#505a78;"/>
                <path d="M185.489,256.809L187.325,261.182L187.325,261.265L185.489,265.637L181.117,267.473L158.374,267.473L154.001,265.637L152.165,261.265L152.165,261.182L154.001,256.809L158.374,254.973L181.117,254.973L185.489,256.809Z" style="fill:#505a78;"/>
                <g>
                    <rect x="704.922" y="96.837" width="27.38" height="207.685" style="fill:#b3b8c5;"/>
                    <path d="M726.052,298.272L726.052,103.087L711.172,103.087L711.172,298.272L726.052,298.272ZM733.387,90.682L734.439,90.964L735.427,91.425L736.319,92.05L737.09,92.82L737.715,93.712L738.175,94.7L738.457,95.752L738.552,96.837L738.552,304.522L738.457,305.608L738.175,306.66L737.715,307.647L737.09,308.54L736.319,309.31L735.427,309.935L734.439,310.396L733.387,310.677L732.302,310.772L704.922,310.772L703.836,310.677L702.784,310.396L701.797,309.935L700.904,309.31L700.134,308.54L699.509,307.647L699.049,306.66L698.767,305.608L698.672,304.522L698.672,96.837L698.767,95.752L699.049,94.7L699.509,93.712L700.134,92.82L700.904,92.05L701.797,91.425L702.784,90.964L703.836,90.682L704.922,90.587L732.302,90.587L733.387,90.682Z" style="fill:#505a78;"/>
                </g>
                <rect x="8.838" y="244.801" width="28.432" height="63.927" style="fill:#b3b8c5;"/>
                <clipPath id="_clip2">
                    <rect x="8.838" y="244.801" width="28.432" height="63.927"/>
                </clipPath>
                <g clip-path="url(#_clip2)">
                    <circle cx="14.465" cy="263.99" r="12.425" style="fill:#fff;"/>
                    <circle cx="14.465" cy="289.284" r="12.425" style="fill:#fff;"/>
                </g>
                <path d="M31.02,302.478L31.02,251.051L15.088,251.051L15.088,302.478L31.02,302.478ZM38.355,238.646L39.407,238.928L40.395,239.388L41.287,240.013L42.057,240.784L42.682,241.676L43.143,242.663L43.425,243.716L43.52,244.801L43.52,308.728L43.425,309.813L43.143,310.866L42.682,311.853L42.057,312.746L41.287,313.516L40.395,314.141L39.407,314.601L38.355,314.883L37.27,314.978L8.838,314.978L7.753,314.883L6.7,314.601L5.713,314.141L4.82,313.516L4.05,312.746L3.425,311.853L2.965,310.866L2.683,309.813L2.588,308.728L2.588,244.801L2.683,243.716L2.965,242.663L3.425,241.676L4.05,240.784L4.82,240.013L5.713,239.388L6.7,238.928L7.753,238.646L8.838,238.551L37.27,238.551L38.355,238.646Z" style="fill:#505a78;"/>
            </g>
            <path d="M204.153,103.67L107.492,103.67L8.838,235.209L8.838,399.474L104.268,399.018C104.239,398.205 104.225,397.389 104.225,396.569C104.225,357.918 135.605,326.539 174.255,326.539C212.905,326.539 244.285,357.918 244.285,396.569C244.285,397.164 244.277,397.758 244.262,398.35L498.215,397.137C498.213,396.948 498.212,396.758 498.212,396.569C498.212,357.918 529.592,326.539 568.242,326.539C606.859,326.539 638.217,357.864 638.271,396.468L732.302,396.019C732.302,396.019 732.302,199.888 732.302,94.143C732.302,57.834 702.868,28.4 666.558,28.399L204.153,28.399L204.153,103.67Z" style="fill:none;stroke:#505a78;stroke-width:12.5px;stroke-dasharray:875,25,1.25,25;"/>
            <path d="M385.211,78.992C386.361,78.918 387.513,78.873 388.665,78.848C389.318,78.837 389.97,78.833 390.623,78.835C394.171,78.868 397.712,79.125 401.224,79.64C408.203,80.663 415.035,82.664 421.461,85.573C429.536,89.227 436.957,94.302 443.296,100.495C449.295,106.356 454.32,113.202 458.101,120.689C461.337,127.098 463.654,133.964 464.962,141.023C466.401,148.785 466.623,156.773 465.625,164.605C464.615,172.534 462.344,180.291 458.919,187.513C455.058,195.652 449.739,203.083 443.296,209.377C436.513,216.003 428.494,221.347 419.762,225.044C414.861,227.118 409.741,228.674 404.514,229.676C399.938,230.554 395.282,231.007 390.623,231.037C385.638,231.068 380.651,230.615 375.755,229.676C370.831,228.732 366.002,227.297 361.362,225.399C360.212,224.929 359.074,224.43 357.95,223.904L357.95,264.589C357.95,276.693 348.123,286.52 336.019,286.52C323.915,286.52 314.088,276.693 314.088,264.589L314.088,157.865C313.958,154.464 314.055,151.054 314.377,147.666C315.122,139.828 317.096,132.115 320.209,124.883C320.907,123.262 321.662,121.666 322.472,120.098C315.742,116.351 311.184,109.165 311.184,100.922C311.184,88.818 321.011,78.992 333.115,78.992L385.211,78.992ZM389.914,121.386C388.341,121.401 386.772,121.514 385.215,121.742C382.159,122.19 379.167,123.065 376.352,124.339C373.46,125.648 370.758,127.371 368.346,129.436C365.222,132.109 362.587,135.355 360.624,138.969C359.06,141.848 357.923,144.954 357.265,148.164C356.494,151.928 356.374,155.834 356.909,159.639C357.378,162.973 358.35,166.23 359.794,169.272C361.531,172.929 363.934,176.264 366.848,179.075C369.814,181.935 373.298,184.252 377.093,185.857C381.142,187.57 385.518,188.458 389.914,188.486C394.318,188.514 398.716,187.685 402.794,186.016C406.673,184.429 410.24,182.108 413.274,179.216C416.207,176.419 418.628,173.098 420.391,169.448C421.788,166.555 422.76,163.453 423.264,160.28C423.924,156.129 423.81,151.857 422.916,147.75C421.948,143.301 420.047,139.068 417.386,135.375C414.069,130.771 409.594,127.029 404.468,124.595C401.62,123.242 398.581,122.302 395.468,121.805C393.919,121.558 392.356,121.427 390.788,121.392C390.497,121.387 390.205,121.385 389.914,121.386Z" style="fill:#27b7ff;"/>
            <rect x="568.57" y="96.837" width="98.058" height="110.134" style="fill:#dcdee4;"/>
            <path d="M660.378,200.721L660.378,103.087L574.82,103.087L574.82,200.721L660.378,200.721ZM667.713,90.682L668.766,90.964L669.753,91.425L670.645,92.05L671.416,92.82L672.041,93.712L672.501,94.7L672.783,95.752L672.878,96.837L672.878,206.971L672.783,208.057L672.501,209.109L672.041,210.096L671.416,210.989L670.645,211.759L669.753,212.384L668.766,212.844L667.713,213.126L666.628,213.221L568.57,213.221L567.484,213.126L566.432,212.844L565.445,212.384L564.552,211.759L563.782,210.989L563.157,210.096L562.696,209.109L562.414,208.057L562.32,206.971L562.32,96.837L562.414,95.752L562.696,94.7L563.157,93.712L563.782,92.82L564.552,92.05L565.445,91.425L566.432,90.964L567.484,90.682L568.57,90.587L666.628,90.587L667.713,90.682Z" style="fill:#505a78;"/>
        </g>
    </g>
</svg>
