<?xml version="1.0" encoding="UTF-8" standalone="no"?>
<!DOCTYPE svg PUBLIC "-//W3C//DTD SVG 1.1//EN" "http://www.w3.org/Graphics/SVG/1.1/DTD/svg11.dtd">
<svg width="100%" height="100%" viewBox="0 0 1317 1150" version="1.1" xmlns="http://www.w3.org/2000/svg" xmlns:xlink="http://www.w3.org/1999/xlink" xml:space="preserve" style="fill-rule:evenodd;clip-rule:evenodd;stroke-linecap:round;stroke-linejoin:round;stroke-miterlimit:1.5;">
    <g id="laptop.-platform">
        <g>
            <path d="M674.432,1010.64L1175.99,601.604" style="fill:none;stroke:#27b7ff;stroke-opacity:0.101961;stroke-width:277.07px;"/>
            <path d="M174.441,550L676.002,140.967" style="fill:none;stroke:#27b7ff;stroke-opacity:0.101961;stroke-width:277.07px;"/>
            <path d="M315.186,870.81L975.392,332.399" style="fill:none;stroke:#27b7ff;stroke-opacity:0.101961;stroke-width:364.71px;"/>
        </g>
        <g>
            <path d="M183.655,808.88L274.519,696.576L1009.46,696.576L1100.32,808.88L183.655,808.88Z" style="fill:#b3b8c5;stroke:#505a78;stroke-width:12.5px;stroke-dasharray:1250,25,1.25,25;"/>
            <path d="M1100.32,808.88L183.655,808.88C183.655,808.88 183.655,818.99 183.655,829.714C183.655,843.521 194.848,854.714 208.655,854.714C339.504,854.714 944.472,854.714 1075.32,854.714C1089.13,854.714 1100.32,843.521 1100.32,829.714C1100.32,818.99 1100.32,808.88 1100.32,808.88Z" style="fill:#81889e;stroke:#505a78;stroke-width:12.5px;stroke-dasharray:1250,25,1.25,25;"/>
            <path d="M1009.46,243.082C1009.46,229.275 998.265,218.082 984.458,218.082C871.827,218.082 412.15,218.082 299.519,218.082C285.712,218.082 274.519,229.275 274.519,243.082C274.519,341.462 274.519,696.576 274.519,696.576L1009.46,696.576C1009.46,696.576 1009.46,341.462 1009.46,243.082Z" style="fill:#dcdee4;stroke:#505a78;stroke-width:12.5px;stroke-dasharray:1250,25,1.25,25;stroke-dashoffset:-375;"/>
            <path d="M512.773,770.485L760.25,770.485" style="fill:none;stroke:#505a78;stroke-width:12.5px;stroke-dasharray:187.5,25,1.25,25;stroke-dashoffset:-37.5;"/>
            <rect x="313.803" y="262.698" width="656.372" height="389.262" style="fill:#27b7ff;stroke:#505a78;stroke-width:12.5px;stroke-dasharray:1250,25,1.25,25;"/>
            <path d="M638.108,342.398C639.384,342.317 640.66,342.267 641.938,342.239C642.661,342.227 643.384,342.223 644.107,342.225C648.04,342.261 651.966,342.546 655.858,343.117C663.594,344.251 671.167,346.469 678.29,349.693C687.241,353.743 695.466,359.369 702.493,366.234C709.143,372.731 714.713,380.319 718.904,388.618C722.491,395.721 725.059,403.333 726.509,411.157C728.104,419.761 728.35,428.615 727.244,437.296C726.124,446.085 723.607,454.683 719.81,462.689C715.531,471.71 709.634,479.947 702.493,486.924C694.975,494.269 686.086,500.192 676.406,504.29C670.974,506.589 665.299,508.314 659.506,509.425C654.433,510.397 649.272,510.9 644.107,510.933C638.582,510.968 633.054,510.465 627.627,509.425C622.17,508.378 616.817,506.788 611.674,504.684C610.399,504.162 609.138,503.61 607.891,503.026L607.891,548.124C607.891,561.54 596.998,572.433 583.582,572.433C570.165,572.433 559.273,561.54 559.273,548.124L559.273,429.826C559.129,426.056 559.236,422.276 559.593,418.521C560.419,409.833 562.606,401.283 566.057,393.267C566.831,391.47 567.668,389.7 568.565,387.962C561.105,383.81 556.054,375.844 556.054,366.707C556.054,353.291 566.946,342.398 580.363,342.398L638.108,342.398ZM643.322,389.391C641.579,389.407 639.839,389.532 638.113,389.785C634.725,390.281 631.409,391.252 628.289,392.664C625.083,394.115 622.089,396.025 619.415,398.313C615.951,401.277 613.031,404.875 610.855,408.881C609.121,412.072 607.861,415.514 607.132,419.072C606.277,423.245 606.144,427.574 606.738,431.792C607.257,435.487 608.334,439.098 609.935,442.469C611.86,446.523 614.524,450.22 617.755,453.336C621.041,456.506 624.903,459.074 629.11,460.853C633.599,462.753 638.449,463.737 643.322,463.767C648.203,463.798 653.079,462.879 657.598,461.03C661.899,459.27 665.852,456.698 669.215,453.492C672.467,450.392 675.15,446.71 677.104,442.665C678.652,439.458 679.73,436.019 680.289,432.502C681.02,427.901 680.893,423.166 679.903,418.613C678.83,413.682 676.722,408.99 673.773,404.897C670.097,399.793 665.136,395.646 659.454,392.947C656.298,391.448 652.928,390.405 649.478,389.855C647.761,389.581 646.028,389.435 644.291,389.397C643.968,389.391 643.645,389.39 643.322,389.391Z" style="fill:#fff;"/>
        </g>
        <path d="M242.873,538.94L78.461,538.94L78.461,664.899L150.761,664.899L188.367,702.506L188.367,664.899L242.873,664.899L242.873,538.94Z" style="fill:#505a78;fill-opacity:0.15;"/>
        <path d="M226.207,522.273L61.795,522.273L61.795,648.233L134.094,648.233L171.7,685.839L171.7,648.233L226.207,648.233L226.207,522.273Z" style="fill:#fff;stroke:#505a78;stroke-width:12.5px;"/>
        <path d="M95.298,566.122L189.976,566.122" style="fill:none;stroke:#505a78;stroke-width:12.5px;"/>
        <path d="M95.298,602.257L161.026,602.257" style="fill:none;stroke:#505a78;stroke-width:12.5px;"/>
        <path d="M242.873,199.998L23.567,199.998L23.567,368.013L120.006,368.013L170.168,418.176L170.168,368.013L242.873,368.013L242.873,199.998Z" style="fill:#505a78;fill-opacity:0.15;"/>
        <path d="M226.207,183.332L6.901,183.332L6.901,351.347L103.339,351.347L153.502,401.509L153.502,351.347L226.207,351.347L226.207,183.332Z" style="fill:#fff;stroke:#505a78;stroke-width:12.5px;"/>
        <path d="M70.753,260.475L102.698,292.42L160.258,234.861" style="fill:none;stroke:#505a78;stroke-width:12.5px;"/>
        <path d="M1077.03,275.078L1220.87,275.078L1220.87,385.275L1157.62,385.275L1124.72,418.176L1124.72,385.275L1077.03,385.275L1077.03,275.078Z" style="fill:#505a78;fill-opacity:0.15;"/>
        <path d="M1060.37,258.411L1204.2,258.411L1204.2,368.609L1140.95,368.609L1108.05,401.509L1108.05,368.609L1060.37,368.609L1060.37,258.411Z" style="fill:#fff;stroke:#505a78;stroke-width:12.5px;"/>
        <g>
            <circle cx="1100.07" cy="313.85" r="9.721" style="fill:#505a78;"/>
            <circle cx="1132.22" cy="313.85" r="9.721" style="fill:#505a78;"/>
            <circle cx="1164.37" cy="313.85" r="9.721" style="fill:#505a78;"/>
        </g>
        <path d="M1069.75,491.49L1293.68,491.49L1293.68,663.054L1195.21,663.054L1143.99,714.276L1143.99,663.054L1069.75,663.054L1069.75,491.49Z" style="fill:#505a78;fill-opacity:0.15;"/>
        <path d="M1053.08,474.823L1277.02,474.823L1277.02,646.387L1178.54,646.387L1127.32,697.609L1127.32,646.387L1053.08,646.387L1053.08,474.823Z" style="fill:#fff;stroke:#505a78;stroke-width:12.5px;"/>
        <path d="M1165.05,523.744L1165.05,597.819" style="fill:none;stroke:#505a78;stroke-width:12.5px;"/>
        <path d="M1202.09,560.781L1128.01,560.781" style="fill:none;stroke:#505a78;stroke-width:12.5px;"/>
    </g>
</svg>
