<?xml version="1.0" encoding="UTF-8" standalone="no"?>
<!DOCTYPE svg PUBLIC "-//W3C//DTD SVG 1.1//EN" "http://www.w3.org/Graphics/SVG/1.1/DTD/svg11.dtd">
<svg width="100%" height="100%" viewBox="0 0 1284 1150" version="1.1" xmlns="http://www.w3.org/2000/svg" xmlns:xlink="http://www.w3.org/1999/xlink" xml:space="preserve" style="fill-rule:evenodd;clip-rule:evenodd;stroke-linecap:round;stroke-linejoin:round;stroke-miterlimit:1.5;">
    <g id="laptop.-api">
        <g>
            <path d="M642.564,1009.84L1144.12,600.802" style="fill:none;stroke:#27b7ff;stroke-opacity:0.101961;stroke-width:277.07px;"/>
            <path d="M142.573,549.198L644.134,140.165" style="fill:none;stroke:#27b7ff;stroke-opacity:0.101961;stroke-width:277.07px;"/>
            <path d="M283.317,870.008L943.524,331.597" style="fill:none;stroke:#27b7ff;stroke-opacity:0.101961;stroke-width:364.71px;"/>
        </g>
        <g>
            <path d="M179.97,861.085L270.834,748.78L1005.77,748.78L1096.64,861.085L179.97,861.085Z" style="fill:#b3b8c5;stroke:#505a78;stroke-width:12.5px;stroke-dasharray:1250,25,1.25,25;"/>
            <path d="M1096.64,861.085L179.97,861.085C179.97,861.085 179.97,871.195 179.97,881.918C179.97,895.725 191.163,906.918 204.97,906.918C335.82,906.918 940.788,906.918 1071.64,906.918C1085.44,906.918 1096.64,895.725 1096.64,881.918C1096.64,871.195 1096.64,861.085 1096.64,861.085Z" style="fill:#81889e;stroke:#505a78;stroke-width:12.5px;stroke-dasharray:1250,25,1.25,25;"/>
            <path d="M1005.77,295.286C1005.77,281.479 994.581,270.286 980.773,270.286C868.142,270.286 408.465,270.286 295.834,270.286C282.027,270.286 270.834,281.479 270.834,295.286C270.834,393.667 270.834,748.78 270.834,748.78L1005.77,748.78C1005.77,748.78 1005.77,393.667 1005.77,295.286Z" style="fill:#dcdee4;stroke:#505a78;stroke-width:12.5px;stroke-dasharray:1250,25,1.25,25;stroke-dashoffset:-375;"/>
            <path d="M509.089,822.69L756.566,822.69" style="fill:none;stroke:#505a78;stroke-width:12.5px;stroke-dasharray:187.5,25,1.25,25;stroke-dashoffset:-37.5;"/>
            <rect x="310.118" y="314.902" width="656.372" height="389.262" style="fill:#505a78;stroke:#81889e;stroke-width:12.5px;stroke-dasharray:1250,25,1.25,25;"/>
        </g>
        <g>
            <circle cx="1013.98" cy="331.569" r="158.714" style="fill:#505a78;fill-opacity:0.15;"/>
            <circle cx="997.311" cy="314.902" r="158.714" style="fill:#27b7ff;stroke:#505a78;stroke-width:12.5px;stroke-dasharray:875,25,1.25,25;stroke-dashoffset:-750;"/>
            <path d="M1002.87,232.603C1003.78,232.545 1004.69,232.509 1005.61,232.489C1006.13,232.48 1006.64,232.477 1007.16,232.479C1009.98,232.505 1012.79,232.709 1015.58,233.117C1021.12,233.929 1026.54,235.518 1031.64,237.827C1038.05,240.727 1043.94,244.755 1048.97,249.671C1053.73,254.323 1057.72,259.757 1060.72,265.7C1063.29,270.787 1065.13,276.237 1066.17,281.839C1067.31,288.001 1067.49,294.341 1066.69,300.557C1065.89,306.851 1064.09,313.008 1061.37,318.74C1058.31,325.2 1054.08,331.099 1048.97,336.095C1043.59,341.354 1037.22,345.596 1030.29,348.53C1026.4,350.177 1022.34,351.411 1018.19,352.207C1014.56,352.903 1010.86,353.264 1007.16,353.287C1003.21,353.312 999.247,352.952 995.36,352.207C991.453,351.458 987.619,350.319 983.937,348.812C983.024,348.439 982.121,348.043 981.228,347.625L981.228,379.919C981.228,389.526 973.428,397.326 963.821,397.326C954.213,397.326 946.413,389.526 946.413,379.919L946.413,295.208C946.31,292.508 946.387,289.802 946.643,287.113C947.234,280.891 948.8,274.769 951.272,269.029C951.826,267.742 952.425,266.475 953.068,265.23C947.726,262.257 944.108,256.553 944.108,250.01C944.108,240.403 951.908,232.603 961.516,232.603L1002.87,232.603ZM1006.6,266.253C1005.35,266.265 1004.11,266.354 1002.87,266.535C1000.44,266.891 998.069,267.586 995.835,268.597C993.539,269.636 991.395,271.004 989.48,272.642C987,274.765 984.909,277.341 983.35,280.21C982.109,282.495 981.207,284.96 980.685,287.507C980.072,290.495 979.977,293.596 980.402,296.616C980.774,299.262 981.545,301.848 982.692,304.262C984.07,307.165 985.978,309.812 988.291,312.043C990.645,314.313 993.41,316.152 996.422,317.426C999.637,318.786 1003.11,319.491 1006.6,319.513C1010.09,319.535 1013.59,318.877 1016.82,317.553C1019.9,316.292 1022.73,314.45 1025.14,312.155C1027.47,309.935 1029.39,307.299 1030.79,304.402C1031.9,302.105 1032.67,299.643 1033.07,297.124C1033.59,293.83 1033.5,290.439 1032.79,287.179C1032.03,283.648 1030.52,280.288 1028.4,277.357C1025.77,273.702 1022.22,270.732 1018.15,268.8C1015.89,267.726 1013.48,266.98 1011.01,266.586C1009.78,266.39 1008.54,266.285 1007.29,266.257C1007.06,266.254 1006.83,266.252 1006.6,266.253Z" style="fill:#fff;"/>
            <path d="M1120.74,298.747L1120.69,298.508L1120.52,297.692L1120.34,296.878L1120.16,296.067L1119.97,295.259L1119.78,294.453L1119.58,293.65L1119.38,292.85L1119.17,292.052L1118.96,291.257L1118.74,290.465L1118.52,289.676L1118.29,288.889L1118.18,288.524L1118.06,288.104L1117.83,287.322L1117.6,286.542L1117.36,285.766L1117.11,284.992L1116.87,284.22L1116.61,283.452L1116.35,282.686L1116.09,281.923L1115.83,281.162L1115.55,280.405L1115.28,279.65L1115,278.898L1114.71,278.149L1114.42,277.403L1114.13,276.66L1113.84,275.919L1113.53,275.181L1113.23,274.447L1112.92,273.715L1112.6,272.986L1112.29,272.259L1111.96,271.536L1111.64,270.816L1111.31,270.098L1110.97,269.384L1110.63,268.672L1110.29,267.964L1109.94,267.258L1109.59,266.556L1109.24,265.856L1108.88,265.159L1108.52,264.466L1108.15,263.775L1108.14,263.76L1107.78,263.085L1107.41,262.398L1107.04,261.714L1106.66,261.033L1106.28,260.355L1105.9,259.68L1105.51,259.008L1105.12,258.339L1104.72,257.673L1104.32,257.01L1103.91,256.35L1103.51,255.694L1103.1,255.04L1102.68,254.389L1102.26,253.742L1101.84,253.098L1101.41,252.456L1100.99,251.818L1100.55,251.183L1100.12,250.552L1099.71,249.969L1099.67,249.923L1099.24,249.294L1098.79,248.669L1098.35,248.047L1097.9,247.428L1097.45,246.812L1096.99,246.199L1096.53,245.59L1096.07,244.983L1095.6,244.38L1095.13,243.78L1094.66,243.184L1094.18,242.59L1093.7,242L1093.22,241.413L1092.73,240.83L1092.24,240.249L1091.75,239.672L1091.25,239.098L1090.75,238.528L1090.25,237.961L1089.75,237.397L1089.47,237.094L1089.24,236.834L1088.73,236.271L1088.22,235.712L1087.71,235.156L1087.2,234.604L1086.68,234.055L1086.16,233.509L1085.63,232.966L1085.11,232.427L1084.58,231.891L1084.04,231.359L1083.51,230.83L1082.97,230.305L1082.42,229.782L1081.88,229.264L1081.33,228.748L1080.78,228.237L1080.23,227.728L1079.67,227.223L1079.11,226.722L1078.55,226.224L1078.41,226.106L1077.99,225.725L1077.42,225.227L1076.86,224.733L1076.29,224.242L1075.72,223.755L1075.15,223.271L1074.57,222.791L1073.99,222.315L1073.41,221.842L1072.98,221.495L1072.83,221.37L1072.25,220.897L1071.66,220.428L1071.08,219.962L1070.49,219.5L1069.9,219.041L1069.3,218.586L1068.7,218.135L1068.1,217.687L1067.86,217.507L1067.51,217.236L1066.91,216.785L1066.31,216.337L1065.7,215.893L1065.1,215.452L1064.49,215.015L1063.88,214.581L1063.27,214.151L1062.65,213.725L1062.03,213.302L1061.41,212.883L1060.79,212.468L1060.16,212.056L1059.53,211.648L1058.9,211.244L1058.26,210.843L1057.63,210.446L1057.4,210.308L1056.99,210.047L1056.36,209.647L1055.72,209.251L1055.08,208.858L1054.44,208.47L1053.79,208.085L1053.14,207.704L1052.49,207.327L1051.84,206.953L1051.18,206.583L1050.53,206.217L1049.87,205.855L1049.2,205.497L1048.54,205.143L1047.87,204.792L1047.2,204.445L1046.53,204.103L1045.86,203.764L1045.78,203.729L1045.18,203.422L1044.51,203.083L1043.83,202.747L1043.15,202.416L1042.47,202.089L1041.78,201.765L1041.1,201.446L1040.41,201.13L1039.72,200.819L1039.02,200.512L1038.33,200.208L1037.63,199.909L1036.93,199.614L1036.23,199.323L1035.52,199.036L1034.82,198.753L1034.11,198.474L1033.4,198.199L1033.32,198.171L1032.69,197.923L1031.97,197.65L1031.26,197.381L1030.54,197.117L1029.82,196.856L1029.1,196.6L1028.38,196.348L1027.65,196.101L1026.93,195.857L1026.2,195.618L1025.46,195.384L1024.73,195.153L1024,194.927L1023.26,194.705L1022.52,194.488L1021.78,194.275L1021.03,194.066L1020.44,193.903L1020.29,193.86L1019.55,193.653L1018.8,193.451L1018.05,193.252L1017.3,193.059L1016.54,192.869L1015.79,192.684L1015.03,192.504L1014.27,192.328L1013.51,192.157L1012.75,191.99L1011.99,191.828L1011.22,191.671L1010.45,191.518L1009.68,191.37L1008.91,191.226L1008.14,191.087L1007.36,190.953L1006.58,190.823L1005.81,190.699L1005.02,190.578L1004.24,190.463L1003.46,190.353L1002.68,190.247L1001.89,190.146L1001.1,190.05L1000.31,189.958L999.518,189.872L998.725,189.79L997.93,189.714L997.134,189.642L996.336,189.575L995.537,189.513L995.463,189.508L994.736,189.451L993.934,189.393L993.13,189.34L992.324,189.291L991.517,189.249L990.709,189.211L989.899,189.178L989.088,189.15L988.275,189.127L987.461,189.11L986.645,189.097L985.828,189.09L985.01,189.088L984.19,189.091L983.368,189.1L982.546,189.113L981.722,189.132L980.897,189.157L980.07,189.186L979.243,189.221L978.414,189.261L977.583,189.307L976.752,189.358L975.919,189.414L975.672,189.433L975.069,189.477L969.385,185.165L973.696,179.482L974.311,179.359L974.564,179.309L975.448,179.14L976.331,178.978L977.215,178.821L978.099,178.67L978.984,178.525L979.868,178.386L980.752,178.252L981.636,178.124L982.521,178.002L983.405,177.886L984.289,177.775L985.173,177.67L986.057,177.571L986.941,177.477L987.825,177.389L988.709,177.307L989.593,177.23L990.476,177.159L991.359,177.094L992.242,177.034L993.124,176.98L994.007,176.932L994.889,176.889L995.689,176.855L995.77,176.852L996.652,176.827L997.532,176.807L998.413,176.792L999.292,176.783L1000.17,176.78L1001.05,176.782L1001.93,176.79L1002.81,176.803L1003.68,176.822L1004.56,176.846L1005.44,176.876L1006.31,176.911L1007.18,176.952L1008.06,176.998L1008.93,177.049L1009.8,177.106L1010.67,177.168L1011.55,177.236L1012.41,177.309L1013.28,177.388L1014.15,177.472L1015.02,177.561L1015.88,177.656L1016.75,177.756L1017.61,177.861L1018.48,177.972L1019.34,178.087L1020.2,178.209L1021.06,178.335L1021.92,178.467L1022.78,178.604L1023.63,178.746L1023.81,178.776L1024.49,178.9L1025.34,179.06L1026.19,179.225L1027.04,179.395L1027.89,179.571L1028.74,179.752L1029.59,179.938L1030.43,180.129L1031.28,180.325L1032.12,180.526L1032.96,180.732L1033.8,180.944L1034.63,181.16L1035.47,181.382L1036.31,181.609L1037.14,181.84L1037.97,182.077L1038.71,182.293L1038.8,182.319L1039.62,182.573L1040.45,182.831L1041.27,183.094L1042.09,183.363L1042.91,183.636L1043.73,183.914L1044.54,184.197L1045.36,184.484L1046.17,184.777L1046.98,185.075L1047.79,185.377L1048.59,185.684L1049.4,185.996L1050.2,186.313L1051,186.635L1051.8,186.961L1052.59,187.293L1053.3,187.594L1053.38,187.63L1054.17,187.979L1054.96,188.332L1055.74,188.69L1056.52,189.053L1057.3,189.421L1058.08,189.793L1058.85,190.17L1059.62,190.551L1060.39,190.938L1061.16,191.328L1061.93,191.723L1062.69,192.123L1063.45,192.527L1064.21,192.936L1064.96,193.35L1065.71,193.768L1066.46,194.19L1066.95,194.466L1067.21,194.62L1067.95,195.062L1068.68,195.508L1069.42,195.958L1070.15,196.413L1070.88,196.872L1071.6,197.335L1072.32,197.802L1073.04,198.274L1073.76,198.75L1074.47,199.231L1075.18,199.715L1075.89,200.204L1076.6,200.697L1077.3,201.195L1078,201.696L1078.7,202.202L1079.11,202.505L1079.39,202.716L1080.07,203.24L1080.75,203.768L1081.42,204.301L1082.1,204.837L1082.77,205.378L1083.43,205.922L1084.1,206.47L1084.75,207.023L1084.93,207.168L1085.41,207.584L1086.05,208.151L1086.7,208.722L1087.34,209.296L1087.98,209.874L1088.61,210.456L1089.24,211.042L1089.87,211.632L1090.49,212.225L1090.96,212.68L1091.11,212.824L1091.72,213.431L1092.32,214.042L1092.92,214.657L1093.52,215.275L1094.12,215.897L1094.71,216.522L1095.3,217.151L1095.88,217.784L1096.46,218.42L1097.04,219.059L1097.61,219.702L1098.18,220.348L1098.74,220.998L1099.3,221.651L1099.86,222.308L1100.41,222.968L1100.96,223.631L1101.51,224.298L1102.05,224.968L1102.59,225.641L1102.83,225.952L1103.12,226.32L1103.64,227.005L1104.16,227.694L1104.67,228.385L1105.18,229.08L1105.69,229.778L1106.19,230.479L1106.69,231.183L1107.18,231.89L1107.67,232.6L1108.15,233.313L1108.64,234.029L1109.11,234.749L1109.58,235.471L1110.05,236.196L1110.52,236.924L1110.98,237.656L1111.43,238.39L1111.88,239.127L1112.33,239.867L1112.77,240.61L1113.2,241.355L1113.24,241.41L1113.63,242.107L1114.06,242.861L1114.48,243.618L1114.89,244.378L1115.3,245.14L1115.71,245.906L1116.11,246.673L1116.5,247.444L1116.89,248.217L1117.28,248.993L1117.66,249.772L1118.04,250.553L1118.41,251.336L1118.78,252.122L1119.14,252.911L1119.5,253.702L1119.86,254.496L1120.2,255.293L1120.55,256.091L1120.89,256.892L1121.22,257.696L1121.55,258.504L1121.87,259.315L1122.18,260.128L1122.49,260.943L1122.8,261.761L1123.1,262.581L1123.39,263.403L1123.68,264.227L1123.97,265.053L1124.25,265.882L1124.52,266.713L1124.79,267.546L1125.06,268.381L1125.32,269.218L1125.57,270.058L1125.82,270.899L1126.06,271.743L1126.3,272.588L1126.54,273.436L1126.76,274.285L1126.99,275.137L1127.21,275.99L1127.42,276.846L1127.63,277.703L1127.83,278.562L1128.03,279.424L1128.22,280.287L1128.4,281.152L1128.59,282.018L1128.76,282.887L1128.93,283.757L1129.1,284.63L1129.26,285.503L1129.34,285.971L1129.41,286.38L1129.55,287.258L1129.69,288.138L1129.83,289.02L1129.95,289.903L1130.08,290.788L1130.19,291.674L1130.31,292.562L1130.41,293.452L1130.51,294.343L1130.61,295.236L1130.69,296.13L1130.78,297.025L1130.8,297.278L1130.85,297.907L1126.58,303.655L1120.87,299.342L1120.74,298.747Z" style="fill:#e9f8ff;fill-opacity:0.4;"/>
            <g>
                <path d="M488.528,513.056L555.564,549.949C559.34,552.019 561.983,554.069 563.493,556.098C565.004,558.128 565.759,560.576 565.759,563.441C565.759,566.785 564.866,569.491 563.081,571.56C561.297,573.63 558.928,574.665 555.976,574.665C554.741,574.665 553.385,574.426 551.909,573.948C550.433,573.471 548.631,572.675 546.503,571.56L465.359,528.219C464.947,527.98 464.295,527.662 463.403,527.264C456.126,523.364 452.488,518.787 452.488,513.533C452.488,508.2 456.298,503.504 463.918,499.444L464.741,498.847L546.503,454.67C549.249,453.237 551.274,452.302 552.578,451.864C553.882,451.426 555.015,451.207 555.976,451.207C558.928,451.207 561.297,452.242 563.081,454.312C564.866,456.381 565.759,459.088 565.759,462.431C565.759,465.296 564.986,467.784 563.442,469.893C561.897,472.003 559.271,474.092 555.564,476.162L488.528,513.056Z" style="fill:#fff;fill-rule:nonzero;"/>
                <path d="M679.854,439.984L619.511,589.828C617.658,594.525 615.941,597.788 614.362,599.619C612.783,601.45 610.93,602.365 608.802,602.365C605.644,602.365 602.846,601.211 600.409,598.903C597.972,596.594 596.754,593.729 596.754,590.306C596.754,587.998 597.681,584.416 599.534,579.56L599.74,579.083L659.98,429.477C661.902,424.621 663.653,421.278 665.231,419.448C666.81,417.617 668.664,416.701 670.792,416.701C673.881,416.701 676.662,417.856 679.133,420.164C681.604,422.472 682.84,425.338 682.84,428.761C682.84,430.193 682.634,431.706 682.222,433.298C681.81,434.89 681.021,437.118 679.854,439.984Z" style="fill:#fff;fill-rule:nonzero;"/>
                <path d="M788.285,513.056L721.146,476.162C717.508,474.092 714.916,472.003 713.372,469.893C711.827,467.784 711.055,465.296 711.055,462.431C711.055,459.088 711.913,456.381 713.629,454.312C715.345,452.242 717.645,451.207 720.528,451.207C721.627,451.207 722.88,451.446 724.287,451.924C725.694,452.401 727.702,453.317 730.311,454.67L811.866,498.847L812.69,499.444C820.31,503.504 824.12,508.2 824.12,513.533C824.12,518.866 820.447,523.443 813.102,527.264C812.415,527.741 811.866,528.06 811.454,528.219L730.002,571.56C727.943,572.675 726.175,573.471 724.699,573.948C723.223,574.426 721.833,574.665 720.528,574.665C717.645,574.665 715.345,573.65 713.629,571.62C711.913,569.59 711.055,566.864 711.055,563.441C711.055,560.576 711.793,558.128 713.269,556.098C714.745,554.069 717.371,552.019 721.146,549.949L788.285,513.056Z" style="fill:#fff;fill-rule:nonzero;"/>
            </g>
        </g>
    </g>
</svg>
