<?xml version="1.0" encoding="UTF-8" standalone="no"?>
<!DOCTYPE svg PUBLIC "-//W3C//DTD SVG 1.1//EN" "http://www.w3.org/Graphics/SVG/1.1/DTD/svg11.dtd">
<svg width="100%" height="100%" viewBox="0 0 1284 1150" version="1.1" xmlns="http://www.w3.org/2000/svg" xmlns:xlink="http://www.w3.org/1999/xlink" xml:space="preserve" style="fill-rule:evenodd;clip-rule:evenodd;stroke-linecap:round;stroke-linejoin:round;stroke-miterlimit:1.5;">
    <g id="multiple.-drop">
        <g>
            <path d="M641.1,1010.2L1141.88,601.805" style="fill:none;stroke:#b3b8c5;stroke-opacity:0.101961;stroke-width:276.64px;"/>
            <path d="M141.883,550.28L642.667,141.881" style="fill:none;stroke:#b3b8c5;stroke-opacity:0.101961;stroke-width:276.64px;"/>
            <path d="M282.41,870.593L941.593,333.016" style="fill:none;stroke:#b3b8c5;stroke-opacity:0.101961;stroke-width:364.14px;"/>
        </g>
        <g>
            <g>
                <path d="M601.189,340.87L610.723,343.517L1095.68,478.236L1099.04,479.472L1099.31,479.574C1100.43,480.222 1101.61,480.777 1102.67,481.519C1104.8,483.013 1106.65,484.862 1108.16,486.986C1109.66,489.117 1110.79,491.492 1111.5,494.007C1112.91,499.07 1112.51,504.555 1110.39,509.366C1109.33,511.779 1107.86,513.992 1106.04,515.906C1104.22,517.827 1102.09,519.42 1099.73,520.616C1098.55,521.213 1097.27,521.603 1096.05,522.097L592.321,674.32L321.734,755.648L467.121,824.88L830.791,998.299L830.847,998.327L840.086,1005.53L845.649,1015.71C847.072,1027.65 846.967,1027.79 843.889,1039.41L843.835,1039.53C837.579,1047.93 836.625,1051.75 826.381,1055.67C822.77,1057.05 818.765,1056.99 814.956,1057.65L803.564,1054.91L803.508,1054.88L441.359,878.305L230.924,775.561C230.924,775.561 228.131,773.882 226.734,773.042C225.502,771.977 224.175,771.014 223.039,769.847C220.763,767.509 218.907,764.796 217.551,761.828C216.199,758.866 215.366,755.693 215.091,752.448C214.679,747.597 215.538,742.668 217.571,738.244C218.923,735.3 220.773,732.611 223.037,730.295C225.298,727.984 227.939,726.079 230.846,724.665C232.291,723.961 233.847,723.511 235.348,722.934L577.356,623.661L1007.7,499.448C868.727,458.747 729.749,418.063 590.782,377.344L590.722,377.326L579.446,368.259L577.731,353.964L577.765,353.843L586.765,342.605C591.572,342.019 596.523,339.574 601.189,340.87Z" style="fill:#505a78;fill-rule:nonzero;"/>
                <ellipse cx="595.985" cy="359.107" rx="58.372" ry="26.118" style="fill:#505a78;"/>
                <ellipse cx="1058.59" cy="498.708" rx="67.043" ry="29.998" style="fill:#505a78;"/>
                <ellipse cx="255.737" cy="749.88" rx="85.094" ry="38.074" style="fill:#505a78;"/>
                <ellipse cx="813.869" cy="1033.8" rx="101.148" ry="45.257" style="fill:#505a78;"/>
            </g>
            <g>
                <path d="M595.985,73.028C650.528,73.028 694.811,118.142 694.811,173.711C694.811,222.24 619.436,326.728 600.341,352.42C599.317,353.798 597.702,354.61 595.985,354.61C594.269,354.61 592.653,353.798 591.629,352.42C572.535,326.728 497.16,222.24 497.16,173.711C497.16,118.142 541.442,73.028 595.985,73.028Z" style="fill:#27b7ff;"/>
                <path d="M583.655,206.738C584.254,206.738 584.829,206.5 585.253,206.076C585.677,205.652 585.915,205.077 585.915,204.477C585.915,198.874 585.915,184.391 585.915,178.788C585.915,178.188 586.153,177.614 586.577,177.19C587.001,176.766 587.576,176.528 588.176,176.528C592.051,176.528 599.92,176.528 603.795,176.528C604.395,176.528 604.97,176.766 605.393,177.19C605.817,177.614 606.056,178.188 606.055,178.788C606.055,184.391 606.055,198.874 606.055,204.477C606.055,205.077 606.294,205.652 606.718,206.076C607.141,206.5 607.716,206.738 608.316,206.738C613.097,206.738 624.189,206.738 628.97,206.738C629.57,206.738 630.145,206.5 630.569,206.076C630.993,205.652 631.231,205.077 631.231,204.477C631.231,197.41 631.231,175.785 631.231,168.718C631.231,168.118 631.469,167.543 631.893,167.119C632.317,166.696 632.892,166.457 633.491,166.457C635.33,166.457 638.009,166.457 640.445,166.457C641.381,166.457 642.22,165.881 642.556,165.007C642.891,164.133 642.653,163.143 641.957,162.517C631.261,152.89 604.187,128.523 597.497,122.503C596.638,121.729 595.333,121.729 594.473,122.503C587.784,128.523 560.71,152.89 550.013,162.517C549.318,163.143 549.08,164.133 549.415,165.007C549.75,165.881 550.589,166.457 551.525,166.457C553.962,166.457 556.641,166.457 558.48,166.457C559.079,166.457 559.654,166.696 560.078,167.119C560.502,167.543 560.74,168.118 560.74,168.718C560.74,175.785 560.74,197.41 560.74,204.477C560.74,205.077 560.978,205.652 561.402,206.076C561.826,206.5 562.401,206.738 563,206.738C567.782,206.738 578.873,206.738 583.655,206.738Z" style="fill:#fff;fill-rule:nonzero;"/>
            </g>
            <g>
                <path d="M1058.59,170.133C1121.24,170.133 1172.1,221.949 1172.1,285.772C1172.1,341.51 1085.53,461.519 1063.59,491.027C1062.42,492.61 1060.56,493.543 1058.59,493.543C1056.62,493.543 1054.76,492.61 1053.59,491.028C1031.66,461.519 945.086,341.51 945.086,285.772C945.086,221.949 995.946,170.133 1058.59,170.133Z" style="fill:#27b7ff;"/>
                <path d="M1020.63,241L1096.5,241L1091.31,235.482L1025.1,235.482L1020.63,241M1105.71,242.269C1107.31,244.145 1108.25,246.518 1108.25,249.277L1108.25,318.249C1108.25,324.303 1103.27,329.285 1097.21,329.285L1019.97,329.285C1013.91,329.285 1008.93,324.303 1008.93,318.249L1008.93,249.277C1008.93,246.518 1009.87,244.145 1011.47,242.269L1019.08,232.999C1020.63,231.123 1022.89,229.964 1025.48,229.964L1091.7,229.964C1094.29,229.964 1096.55,231.123 1098.04,232.999L1105.71,242.269M1025.48,312.732L1058.59,312.732L1058.59,296.178L1025.48,296.178L1025.48,312.732Z" style="fill:#fff;fill-rule:nonzero;"/>
            </g>
            <g>
                <path d="M255.737,332.839C335.248,332.839 399.802,398.606 399.802,479.613C399.802,550.359 289.922,702.679 262.086,740.132C260.593,742.14 258.238,743.324 255.736,743.325C253.234,743.325 250.879,742.141 249.386,740.133C221.551,702.679 111.671,550.359 111.671,479.613C111.671,398.606 176.225,332.839 255.737,332.839Z" style="fill:#27b7ff;"/>
                <path d="M202.028,415.801L309.368,415.801L302.029,407.994L208.351,407.994L202.028,415.801M322.404,417.596C324.668,420.251 325.995,423.607 325.995,427.511L325.995,525.093C325.995,533.658 318.947,540.706 310.382,540.706L201.091,540.706C192.526,540.706 185.478,533.658 185.478,525.093L185.478,427.511C185.478,423.607 186.805,420.251 189.069,417.596L199.842,404.481C202.028,401.827 205.228,400.188 208.897,400.188L302.576,400.188C306.245,400.188 309.446,401.827 311.553,404.481L322.404,417.596M208.897,517.286L255.737,517.286L255.737,493.866L208.897,493.866L208.897,517.286Z" style="fill:#fff;fill-rule:nonzero;"/>
            </g>
            <g>
                <path d="M813.869,538.082C908.381,538.082 985.113,616.256 985.113,712.545C985.113,796.638 854.504,977.693 821.416,1022.21C819.642,1024.6 816.843,1026.01 813.869,1026.01C810.894,1026.01 808.095,1024.6 806.321,1022.21C773.234,977.693 642.625,796.638 642.625,712.545C642.625,616.256 719.357,538.082 813.869,538.082Z" style="fill:#27b7ff;"/>
                <path d="M750.275,635.481L877.371,635.481L868.682,626.238L757.762,626.238L750.275,635.481M892.807,637.607C895.488,640.75 897.059,644.724 897.059,649.346L897.059,764.887C897.059,775.029 888.714,783.374 878.572,783.374L749.166,783.374C739.025,783.374 730.679,775.029 730.679,764.887L730.679,649.346C730.679,644.724 732.251,640.75 734.931,637.607L747.687,622.078C750.275,618.935 754.065,616.994 758.409,616.994L869.329,616.994C873.673,616.994 877.463,618.935 879.959,622.078L892.807,637.607M758.409,755.644L813.869,755.644L813.869,727.914L758.409,727.914L758.409,755.644Z" style="fill:#fff;fill-rule:nonzero;"/>
            </g>
        </g>
    </g>
</svg>
