<?xml version="1.0" encoding="UTF-8" standalone="no"?>
<!DOCTYPE svg PUBLIC "-//W3C//DTD SVG 1.1//EN" "http://www.w3.org/Graphics/SVG/1.1/DTD/svg11.dtd">
<svg width="100%" height="100%" viewBox="0 0 1284 1259" version="1.1" xmlns="http://www.w3.org/2000/svg" xmlns:xlink="http://www.w3.org/1999/xlink" xml:space="preserve" style="fill-rule:evenodd;clip-rule:evenodd;stroke-linecap:round;stroke-linejoin:round;stroke-miterlimit:1.5;">
    <g id="parcels.-stack">
        <g>
            <path d="M640.712,1064L1142.27,654.969" style="fill:none;stroke:#27b7ff;stroke-opacity:0.101961;stroke-width:277.07px;"/>
            <path d="M140.721,603.364L642.282,194.331" style="fill:none;stroke:#27b7ff;stroke-opacity:0.101961;stroke-width:277.07px;"/>
            <path d="M281.466,924.174L941.672,385.763" style="fill:none;stroke:#27b7ff;stroke-opacity:0.101961;stroke-width:364.71px;"/>
        </g>
        <g>
            <g id="Package">
                <path d="M280.532,370.374L491.43,492.136L491.43,735.66L280.532,857.422L69.634,735.66L69.634,492.136L280.532,370.374Z" style="fill:#81889e;"/>
                <path d="M69.634,735.66L280.532,857.422L280.532,613.885L491.43,492.136L280.532,370.374L69.634,492.136L69.634,735.66Z" style="fill:#dcdee4;"/>
                <path d="M69.634,492.136L280.532,613.885L280.532,857.422L69.634,735.66L69.634,492.136Z" style="fill:#b3b8c5;"/>
                <path d="M152.407,539.957L197.76,566.138L197.76,618.51L152.407,592.326L152.407,539.957Z" style="fill:#505a78;"/>
                <path d="M152.407,539.956L197.757,566.142L408.685,444.363L363.332,418.179L152.407,539.956Z" style="fill:#505a78;"/>
                <path d="M280.532,370.374L491.43,492.136L491.43,735.66L280.532,857.422L69.634,735.66L69.634,492.136L280.532,370.374Z" style="fill:none;stroke:#505a78;stroke-width:12.5px;stroke-dasharray:1250,50,1.25,37.5;"/>
            </g>
            <g id="Package1">
                <path d="M736.827,378.708L947.725,500.47L947.725,743.993L736.827,865.755L525.929,743.993L525.929,500.47L736.827,378.708Z" style="fill:#81889e;"/>
                <path d="M525.929,743.993L736.827,865.755L736.827,622.218L947.725,500.47L736.827,378.708L525.929,500.47L525.929,743.993Z" style="fill:#dcdee4;"/>
                <path d="M525.929,500.47L736.827,622.218L736.827,865.755L525.929,743.993L525.929,500.47Z" style="fill:#b3b8c5;"/>
                <path d="M608.701,548.29L654.054,574.472L654.054,626.843L608.701,600.659L608.701,548.29Z" style="fill:#505a78;"/>
                <path d="M608.701,548.29L654.052,574.475L864.979,452.696L819.626,426.512L608.701,548.29Z" style="fill:#505a78;"/>
                <path d="M736.827,378.708L947.725,500.47L947.725,743.993L736.827,865.755L525.929,743.993L525.929,500.47L736.827,378.708Z" style="fill:none;stroke:#505a78;stroke-width:12.5px;stroke-dasharray:1250,50,1.25,37.5;"/>
            </g>
            <g id="Package2">
                <path d="M736.827,128.891L947.725,250.653L947.725,494.176L736.827,615.938L525.929,494.176L525.929,250.653L736.827,128.891Z" style="fill:#81889e;"/>
                <path d="M525.929,494.176L736.827,615.938L736.827,372.401L947.725,250.653L736.827,128.891L525.929,250.653L525.929,494.176Z" style="fill:#dcdee4;"/>
                <path d="M525.929,250.653L736.827,372.401L736.827,615.938L525.929,494.176L525.929,250.653Z" style="fill:#b3b8c5;"/>
                <path d="M608.701,298.473L654.054,324.655L654.054,377.027L608.701,350.842L608.701,298.473Z" style="fill:#505a78;"/>
                <path d="M608.701,298.473L654.052,324.658L864.979,202.88L819.626,176.695L608.701,298.473Z" style="fill:#505a78;"/>
                <path d="M736.827,128.891L947.725,250.653L947.725,494.176L736.827,615.938L525.929,494.176L525.929,250.653L736.827,128.891Z" style="fill:none;stroke:#505a78;stroke-width:12.5px;stroke-dasharray:1250,50,1.25,37.5;"/>
            </g>
            <g id="Package3">
                <path d="M509.262,507.992L720.16,629.754L720.16,873.278L509.262,995.039L298.364,873.278L298.364,629.754L509.262,507.992Z" style="fill:#81889e;"/>
                <path d="M298.364,873.278L509.262,995.039L509.262,751.502L720.16,629.754L509.262,507.992L298.364,629.754L298.364,873.278Z" style="fill:#dcdee4;"/>
                <path d="M298.364,629.754L509.262,751.502L509.262,995.039L298.364,873.278L298.364,629.754Z" style="fill:#b3b8c5;"/>
                <path d="M381.137,677.574L426.49,703.756L426.49,756.128L381.137,729.943L381.137,677.574Z" style="fill:#505a78;"/>
                <path d="M381.137,677.574L426.487,703.76L637.415,581.981L592.062,555.796L381.137,677.574Z" style="fill:#505a78;"/>
                <path d="M509.262,507.992L720.16,629.754L720.16,873.278L509.262,995.039L298.364,873.278L298.364,629.754L509.262,507.992Z" style="fill:none;stroke:#505a78;stroke-width:12.5px;stroke-dasharray:1250,50,1.25,37.5;"/>
            </g>
            <g id="Package4">
                <path d="M509.262,257.41L720.16,379.172L720.16,622.696L509.262,744.458L298.364,622.696L298.364,379.172L509.262,257.41Z" style="fill:#81889e;"/>
                <path d="M298.364,622.696L509.262,744.458L509.262,500.921L720.16,379.172L509.262,257.41L298.364,379.172L298.364,622.696Z" style="fill:#dcdee4;"/>
                <path d="M298.364,379.172L509.262,500.921L509.262,744.458L298.364,622.696L298.364,379.172Z" style="fill:#b3b8c5;"/>
                <path d="M381.137,426.993L426.49,453.175L426.49,505.546L381.137,479.362L381.137,426.993Z" style="fill:#505a78;"/>
                <path d="M381.137,426.992L426.487,453.178L637.415,331.399L592.062,305.215L381.137,426.992Z" style="fill:#505a78;"/>
                <path d="M509.262,257.41L720.16,379.172L720.16,622.696L509.262,744.458L298.364,622.696L298.364,379.172L509.262,257.41Z" style="fill:none;stroke:#505a78;stroke-width:12.5px;stroke-dasharray:1250,50,1.25,37.5;"/>
            </g>
            <g id="Package5">
                <path d="M509.262,8.032L720.16,129.793L720.16,373.317L509.262,495.079L298.364,373.317L298.364,129.793L509.262,8.032Z" style="fill:#81889e;"/>
                <path d="M298.364,373.317L509.262,495.079L509.262,251.542L720.16,129.793L509.262,8.032L298.364,129.793L298.364,373.317Z" style="fill:#dcdee4;"/>
                <path d="M298.364,129.793L509.262,251.542L509.262,495.079L298.364,373.317L298.364,129.793Z" style="fill:#b3b8c5;"/>
                <path d="M381.137,177.614L426.49,203.796L426.49,256.167L381.137,229.983L381.137,177.614Z" style="fill:#505a78;"/>
                <path d="M381.137,177.613L426.487,203.799L637.415,82.02L592.062,55.836L381.137,177.613Z" style="fill:#505a78;"/>
                <path d="M509.262,8.032L720.16,129.793L720.16,373.317L509.262,495.079L298.364,373.317L298.364,129.793L509.262,8.032Z" style="fill:none;stroke:#505a78;stroke-width:12.5px;stroke-dasharray:1250,50,1.25,37.5;"/>
            </g>
            <g id="Package6">
                <path d="M280.532,642.716L491.43,764.478L491.43,1008L280.532,1129.76L69.634,1008L69.634,764.478L280.532,642.716Z" style="fill:#81889e;"/>
                <path d="M69.634,1008L280.532,1129.76L280.532,886.226L491.43,764.478L280.532,642.716L69.634,764.478L69.634,1008Z" style="fill:#dcdee4;"/>
                <path d="M69.634,764.478L280.532,886.226L280.532,1129.76L69.634,1008L69.634,764.478Z" style="fill:#b3b8c5;"/>
                <path d="M152.407,812.299L197.76,838.48L197.76,890.852L152.407,864.667L152.407,812.299Z" style="fill:#505a78;"/>
                <path d="M152.407,812.298L197.757,838.484L408.685,716.705L363.332,690.52L152.407,812.298Z" style="fill:#505a78;"/>
                <path d="M280.532,642.716L491.43,764.478L491.43,1008L280.532,1129.76L69.634,1008L69.634,764.478L280.532,642.716Z" style="fill:none;stroke:#505a78;stroke-width:12.5px;stroke-dasharray:1250,50,1.25,37.5;"/>
            </g>
        </g>
        <g>
            <g id="Picup-Package">
                <path d="M970.933,507.579L1181.83,629.341L1181.83,872.865L970.933,994.627L760.035,872.865L760.035,629.341L970.933,507.579Z" style="fill:#27b7ff;"/>
                <path d="M760.035,872.865L970.933,994.627L970.933,751.09L1181.83,629.341L970.933,507.579L760.035,629.341L760.035,872.865Z" style="fill:#bae8ff;"/>
                <path d="M760.035,629.341L970.933,751.09L970.933,994.627L760.035,872.865L760.035,629.341Z" style="fill:#6ed1ff;"/>
                <path d="M842.808,677.162L888.16,703.343L888.16,755.715L842.808,729.531L842.808,677.162Z" style="fill:#505a78;"/>
                <path d="M842.808,677.161L888.158,703.347L1099.09,581.568L1053.73,555.384L842.808,677.161Z" style="fill:#505a78;"/>
                <path d="M1078.75,749.391C1079.35,749.001 1079.96,748.627 1080.56,748.263C1080.91,748.06 1081.25,747.86 1081.59,747.663C1083.45,746.605 1085.32,745.675 1087.16,744.898C1090.83,743.353 1094.41,742.4 1097.79,742.077C1102.03,741.67 1105.92,742.256 1109.26,743.794C1112.4,745.25 1115.04,747.551 1117.03,750.588C1118.73,753.187 1119.95,756.321 1120.63,759.869C1121.39,763.77 1121.51,768.166 1120.98,772.844C1120.45,777.58 1119.26,782.603 1117.46,787.677C1115.43,793.395 1112.64,799.16 1109.26,804.63C1105.69,810.389 1101.48,815.806 1096.89,820.52C1094.32,823.165 1091.63,825.586 1088.89,827.731C1086.48,829.609 1084.04,831.274 1081.59,832.704C1078.97,834.233 1076.36,835.491 1073.78,836.451C1071.2,837.417 1068.66,838.079 1066.22,838.426C1065.62,838.511 1065.02,838.578 1064.43,838.625L1064.43,861.357C1064.43,868.12 1059.27,876.59 1052.91,880.26C1046.56,883.93 1041.4,881.419 1041.4,874.656L1041.4,815.026C1041.33,813.165 1041.38,811.231 1041.55,809.24C1041.94,804.634 1042.98,799.726 1044.61,794.742C1044.98,793.624 1045.38,792.503 1045.8,791.382C1042.27,791.329 1039.87,788.696 1039.87,784.09C1039.87,777.327 1045.03,768.857 1051.39,765.187L1078.75,749.391ZM1081.22,771.652C1080.39,772.137 1079.57,772.676 1078.75,773.276C1077.15,774.453 1075.58,775.849 1074.1,777.414C1072.58,779.023 1071.16,780.805 1069.89,782.69C1068.25,785.131 1066.87,787.743 1065.84,790.358C1065.02,792.441 1064.42,794.521 1064.07,796.513C1063.67,798.851 1063.61,801.07 1063.89,803.033C1064.13,804.754 1064.64,806.279 1065.4,807.541C1066.31,809.058 1067.58,810.192 1069.11,810.879C1070.66,811.578 1072.49,811.816 1074.49,811.562C1076.61,811.292 1078.91,810.461 1081.22,809.144C1083.53,807.824 1085.84,806.027 1087.98,803.859C1090.02,801.795 1091.89,799.417 1093.49,796.881C1095.03,794.429 1096.3,791.839 1097.23,789.266C1097.96,787.225 1098.47,785.197 1098.73,783.272C1099.08,780.753 1099.02,778.4 1098.55,776.376C1098.04,774.184 1097.05,772.396 1095.65,771.139C1093.9,769.572 1091.56,768.838 1088.86,769.032C1087.37,769.14 1085.77,769.536 1084.14,770.203C1083.32,770.534 1082.5,770.935 1081.68,771.391C1081.53,771.476 1081.37,771.564 1081.22,771.652Z" style="fill:#fff;"/>
                <path d="M970.933,507.579L1181.83,629.341L1181.83,872.865L970.933,994.627L760.035,872.865L760.035,629.341L970.933,507.579Z" style="fill:none;stroke:#505a78;stroke-width:12.5px;stroke-dasharray:1250,50,1.25,37.5;"/>
            </g>
            <g id="Picup-Package1">
                <path d="M743.368,634.889L954.266,756.651L954.266,1000.17L743.368,1121.94L532.471,1000.17L532.471,756.651L743.368,634.889Z" style="fill:#27b7ff;"/>
                <path d="M532.471,1000.17L743.368,1121.94L743.368,878.399L954.266,756.651L743.368,634.889L532.471,756.651L532.471,1000.17Z" style="fill:#bae8ff;"/>
                <path d="M532.471,756.651L743.368,878.399L743.368,1121.94L532.471,1000.17L532.471,756.651Z" style="fill:#6ed1ff;"/>
                <path d="M615.243,804.471L660.596,830.653L660.596,883.025L615.243,856.84L615.243,804.471Z" style="fill:#505a78;"/>
                <path d="M615.243,804.471L660.593,830.656L871.521,708.877L826.168,682.693L615.243,804.471Z" style="fill:#505a78;"/>
                <path d="M851.185,876.701C851.789,876.311 852.394,875.937 853,875.573C853.342,875.369 853.685,875.169 854.027,874.972C855.891,873.915 857.751,872.985 859.595,872.207C863.26,870.663 866.848,869.71 870.223,869.386C874.464,868.98 878.361,869.565 881.69,871.103C884.841,872.559 887.48,874.861 889.465,877.898C891.165,880.497 892.382,883.631 893.069,887.178C893.824,891.079 893.941,895.475 893.417,900.153C892.887,904.89 891.694,909.913 889.895,914.986C887.868,920.704 885.074,926.47 881.69,931.94C878.128,937.699 873.917,943.116 869.33,947.829C866.757,950.474 864.068,952.896 861.323,955.041C858.92,956.918 856.474,958.584 854.027,960.013C851.409,961.542 848.79,962.801 846.219,963.761C843.633,964.726 841.097,965.389 838.661,965.735C838.057,965.821 837.459,965.887 836.868,965.934L836.868,988.667C836.868,995.43 831.707,1003.9 825.351,1007.57C818.994,1011.24 813.833,1008.73 813.833,1001.97L813.833,942.335C813.765,940.474 813.816,938.54 813.985,936.549C814.376,931.944 815.413,927.036 817.048,922.051C817.414,920.934 817.811,919.813 818.236,918.691C814.702,918.639 812.308,916.005 812.308,911.4C812.308,904.637 817.469,896.167 823.826,892.497L851.185,876.701ZM853.655,898.962C852.829,899.447 852.005,899.986 851.188,900.585C849.582,901.762 848.011,903.159 846.533,904.724C845.014,906.333 843.595,908.114 842.328,909.999C840.687,912.441 839.304,915.053 838.273,917.668C837.451,919.75 836.854,921.83 836.509,923.823C836.104,926.16 836.041,928.379 836.322,930.343C836.568,932.063 837.078,933.589 837.837,934.85C838.749,936.367 840.011,937.502 841.542,938.189C843.099,938.887 844.929,939.125 846.922,938.872C849.049,938.601 851.347,937.771 853.655,936.453C855.968,935.133 858.278,933.337 860.419,931.168C862.457,929.105 864.33,926.726 865.923,924.191C867.464,921.739 868.735,919.149 869.661,916.575C870.395,914.535 870.905,912.507 871.17,910.581C871.516,908.062 871.456,905.71 870.987,903.686C870.479,901.493 869.48,899.705 868.083,898.448C866.341,896.882 863.991,896.148 861.299,896.342C859.803,896.449 858.207,896.846 856.572,897.512C855.758,897.844 854.938,898.244 854.114,898.7C853.961,898.786 853.808,898.873 853.655,898.962Z" style="fill:#fff;"/>
                <path d="M743.368,634.889L954.266,756.651L954.266,1000.17L743.368,1121.94L532.471,1000.17L532.471,756.651L743.368,634.889Z" style="fill:none;stroke:#505a78;stroke-width:12.5px;stroke-dasharray:1250,50,1.25,37.5;"/>
            </g>
            <g id="Picup-Package2">
                <path d="M970.933,763.254L1181.83,885.016L1181.83,1128.54L970.933,1250.3L760.035,1128.54L760.035,885.016L970.933,763.254Z" style="fill:#27b7ff;"/>
                <path d="M760.035,1128.54L970.933,1250.3L970.933,1006.76L1181.83,885.016L970.933,763.254L760.035,885.016L760.035,1128.54Z" style="fill:#bae8ff;"/>
                <path d="M760.035,885.016L970.933,1006.76L970.933,1250.3L760.035,1128.54L760.035,885.016Z" style="fill:#6ed1ff;"/>
                <path d="M842.808,932.837L888.16,959.018L888.16,1011.39L842.808,985.206L842.808,932.837Z" style="fill:#505a78;"/>
                <path d="M842.808,932.836L888.158,959.022L1099.09,837.243L1053.73,811.059L842.808,932.836Z" style="fill:#505a78;"/>
                <path d="M1078.75,1005.07C1079.35,1004.68 1079.96,1004.3 1080.56,1003.94C1080.91,1003.74 1081.25,1003.53 1081.59,1003.34C1083.45,1002.28 1085.32,1001.35 1087.16,1000.57C1090.83,999.028 1094.41,998.075 1097.79,997.752C1102.03,997.345 1105.92,997.93 1109.26,999.469C1112.4,1000.93 1115.04,1003.23 1117.03,1006.26C1118.73,1008.86 1119.95,1012 1120.63,1015.54C1121.39,1019.45 1121.51,1023.84 1120.98,1028.52C1120.45,1033.26 1119.26,1038.28 1117.46,1043.35C1115.43,1049.07 1112.64,1054.84 1109.26,1060.31C1105.69,1066.06 1101.48,1071.48 1096.89,1076.19C1094.32,1078.84 1091.63,1081.26 1088.89,1083.41C1086.48,1085.28 1084.04,1086.95 1081.59,1088.38C1078.97,1089.91 1076.36,1091.17 1073.78,1092.13C1071.2,1093.09 1068.66,1093.75 1066.22,1094.1C1065.62,1094.19 1065.02,1094.25 1064.43,1094.3L1064.43,1117.03C1064.43,1123.8 1059.27,1132.27 1052.91,1135.93C1046.56,1139.61 1041.4,1137.09 1041.4,1130.33L1041.4,1070.7C1041.33,1068.84 1041.38,1066.9 1041.55,1064.91C1041.94,1060.31 1042.98,1055.4 1044.61,1050.42C1044.98,1049.3 1045.38,1048.18 1045.8,1047.06C1042.27,1047 1039.87,1044.37 1039.87,1039.77C1039.87,1033 1045.03,1024.53 1051.39,1020.86L1078.75,1005.07ZM1081.22,1027.33C1080.39,1027.81 1079.57,1028.35 1078.75,1028.95C1077.15,1030.13 1075.58,1031.52 1074.1,1033.09C1072.58,1034.7 1071.16,1036.48 1069.89,1038.37C1068.25,1040.81 1066.87,1043.42 1065.84,1046.03C1065.02,1048.12 1064.42,1050.2 1064.07,1052.19C1063.67,1054.53 1063.61,1056.74 1063.89,1058.71C1064.13,1060.43 1064.64,1061.95 1065.4,1063.22C1066.31,1064.73 1067.58,1065.87 1069.11,1066.55C1070.66,1067.25 1072.49,1067.49 1074.49,1067.24C1076.61,1066.97 1078.91,1066.14 1081.22,1064.82C1083.53,1063.5 1085.84,1061.7 1087.98,1059.53C1090.02,1057.47 1091.89,1055.09 1093.49,1052.56C1095.03,1050.1 1096.3,1047.51 1097.23,1044.94C1097.96,1042.9 1098.47,1040.87 1098.73,1038.95C1099.08,1036.43 1099.02,1034.08 1098.55,1032.05C1098.04,1029.86 1097.05,1028.07 1095.65,1026.81C1093.9,1025.25 1091.56,1024.51 1088.86,1024.71C1087.37,1024.82 1085.77,1025.21 1084.14,1025.88C1083.32,1026.21 1082.5,1026.61 1081.68,1027.07C1081.53,1027.15 1081.37,1027.24 1081.22,1027.33Z" style="fill:#fff;"/>
                <path d="M970.933,763.254L1181.83,885.016L1181.83,1128.54L970.933,1250.3L760.035,1128.54L760.035,885.016L970.933,763.254Z" style="fill:none;stroke:#505a78;stroke-width:12.5px;stroke-dasharray:1250,50,1.25,37.5;"/>
            </g>
        </g>
    </g>
</svg>
