<?xml version="1.0" encoding="UTF-8" standalone="no"?>
<!DOCTYPE svg PUBLIC "-//W3C//DTD SVG 1.1//EN" "http://www.w3.org/Graphics/SVG/1.1/DTD/svg11.dtd">
<svg width="100%" height="100%" viewBox="0 0 296 334" version="1.1" xmlns="http://www.w3.org/2000/svg" xmlns:xlink="http://www.w3.org/1999/xlink" xml:space="preserve" style="fill-rule:evenodd;clip-rule:evenodd;stroke-linecap:round;stroke-linejoin:round;stroke-miterlimit:1.5;">
    <g>
        <g>
            <g id="Picup-Package">
                <path d="M150.052,12.206L281.952,92.998L278.598,248.831L143.343,323.872L11.443,243.08L14.798,87.247L150.052,12.206Z" style="fill:#27b7ff;"/>
                <path d="M11.443,243.08L143.343,323.872L146.698,168.031L281.952,92.998L150.052,12.206L14.798,87.247L11.443,243.08Z" style="fill:#bae8ff;"/>
                <path d="M14.798,87.247L146.698,168.031L143.343,323.872L11.443,243.08L14.798,87.247Z" style="fill:#6ed1ff;"/>
                <path d="M150.052,12.206L281.952,92.998L278.598,248.831L143.343,323.872L11.443,243.08L14.798,87.247L150.052,12.206Z" style="fill:none;stroke:#505a78;stroke-width:12.5px;"/>
            </g>
            <g id="Picup-Package1">
                <path d="M150.168,6.848L289.218,92.02L288.328,133.332L145.742,212.441L6.692,127.27L7.581,85.957L150.168,6.848Z" style="fill:#27b7ff;"/>
                <path d="M6.692,127.27L145.742,212.441L146.631,171.12L289.218,92.02L150.168,6.848L7.581,85.957L6.692,127.27Z" style="fill:#bae8ff;"/>
                <path d="M7.581,85.957L146.631,171.12L145.742,212.441L6.692,127.27L7.581,85.957Z" style="fill:#6ed1ff;"/>
                <path d="M150.168,6.848L289.218,92.02L288.268,136.127L145.682,215.236L6.632,130.064L7.581,85.957L150.168,6.848Z" style="fill:none;stroke:#505a78;stroke-width:12.5px;stroke-dasharray:1250,50,1.25,37.5;"/>
            </g>
        </g>
        <path d="M110.042,64.415C110.46,64.142 110.889,63.875 111.325,63.612C111.573,63.465 111.824,63.318 112.077,63.173C113.462,62.387 114.928,61.652 116.478,60.978C119.56,59.639 122.948,58.544 126.519,57.735C131.004,56.718 135.767,56.153 140.528,56.07C145.034,55.991 149.529,56.342 153.783,57.109C157.424,57.766 160.88,58.726 164.017,59.953C167.467,61.302 170.531,62.972 173.064,64.88C175.629,66.812 177.642,68.989 179.009,71.308C180.549,73.922 181.262,76.709 181.116,79.503C180.962,82.444 179.851,85.385 177.851,88.131C176.729,89.672 175.328,91.15 173.68,92.533C172.236,93.744 170.604,94.882 168.813,95.929C166.896,97.049 164.798,98.065 162.554,98.957C160.298,99.853 157.895,100.623 155.392,101.251C154.772,101.406 154.146,101.553 153.514,101.691L168.681,110.447C173.192,113.052 173.054,117.362 168.372,120.065C163.689,122.769 156.225,122.849 151.713,120.244L111.93,97.275C110.612,96.572 109.378,95.817 108.24,95.015C105.606,93.162 103.494,91.061 102.003,88.81C101.669,88.305 101.366,87.793 101.095,87.274C97.095,87.971 92.653,87.442 89.58,85.668C85.068,83.063 85.207,78.754 89.889,76.05L110.042,64.415ZM127.665,72.489C127.062,72.843 126.497,73.218 125.98,73.615C124.964,74.394 124.133,75.25 123.519,76.153C122.888,77.081 122.485,78.055 122.322,79.038C122.11,80.311 122.3,81.598 122.888,82.815C123.356,83.784 124.074,84.706 125.016,85.544C126.121,86.526 127.531,87.393 129.156,88.093C130.58,88.706 132.17,89.19 133.863,89.522C135.898,89.921 138.071,90.102 140.246,90.056C142.459,90.009 144.671,89.729 146.737,89.227C148.943,88.692 150.966,87.905 152.677,86.93C154.391,85.952 155.784,84.791 156.739,83.521C157.648,82.313 158.163,81.017 158.258,79.717C158.351,78.46 158.049,77.205 157.371,76.025C156.833,75.091 156.052,74.206 155.064,73.41C153.772,72.37 152.136,71.476 150.259,70.792C148.226,70.05 145.913,69.564 143.507,69.363C140.508,69.113 137.382,69.308 134.491,69.929C132.885,70.273 131.359,70.75 129.969,71.338C129.278,71.631 128.624,71.952 128.005,72.295C127.89,72.359 127.777,72.423 127.665,72.489Z" style="fill:#fff;"/>
    </g>
</svg>
