<?xml version="1.0" encoding="UTF-8" standalone="no"?>
<!DOCTYPE svg PUBLIC "-//W3C//DTD SVG 1.1//EN" "http://www.w3.org/Graphics/SVG/1.1/DTD/svg11.dtd">
<svg width="100%" height="100%" viewBox="0 0 1280 1150" version="1.1" xmlns="http://www.w3.org/2000/svg" xmlns:xlink="http://www.w3.org/1999/xlink" xml:space="preserve" style="fill-rule:evenodd;clip-rule:evenodd;stroke-linecap:round;stroke-linejoin:round;stroke-miterlimit:1.5;">
    <g id="phone.-notifications">
        <g>
            <path d="M638.743,1010.64L1140.3,601.604" style="fill:none;stroke:#27b7ff;stroke-opacity:0.101961;stroke-width:277.07px;"/>
            <path d="M138.752,550L640.313,140.967" style="fill:none;stroke:#27b7ff;stroke-opacity:0.101961;stroke-width:277.07px;"/>
            <path d="M279.497,870.81L939.703,332.399" style="fill:none;stroke:#27b7ff;stroke-opacity:0.101961;stroke-width:364.71px;"/>
        </g>
        <g>
            <g>
                <path d="M770.222,344.418C770.222,330.611 759.029,319.418 745.222,319.418C683.372,319.418 523.738,319.418 461.888,319.418C448.081,319.418 436.888,330.611 436.888,344.418C436.888,437.554 436.888,763.783 436.888,856.918C436.888,870.725 448.081,881.918 461.888,881.918C523.738,881.918 683.372,881.918 745.222,881.918C759.029,881.918 770.222,870.725 770.222,856.918C770.222,763.783 770.222,437.554 770.222,344.418Z" style="fill:#dcdee4;stroke:#505a78;stroke-width:12.5px;stroke-dasharray:750,50,1.25,25;"/>
                <path d="M770.222,344.418C770.222,330.611 759.029,319.418 745.222,319.418C683.372,319.418 523.738,319.418 461.888,319.418C448.081,319.418 436.888,330.611 436.888,344.418C436.888,437.554 436.888,763.783 436.888,856.918C436.888,870.725 448.081,881.918 461.888,881.918C523.738,881.918 683.372,881.918 745.222,881.918C759.029,881.918 770.222,870.725 770.222,856.918C770.222,763.783 770.222,437.554 770.222,344.418Z" style="fill:none;stroke:#505a78;stroke-width:12.5px;stroke-dasharray:750,50,1.25,25;"/>
                <rect x="476.104" y="402.907" width="254.901" height="351.465" style="fill:#27b7ff;stroke:#505a78;stroke-width:12.5px;stroke-dasharray:750,25,1.25,25;"/>
                <path d="M554.12,359.749L652.99,359.749" style="fill:none;stroke:#505a78;stroke-width:12.5px;stroke-dasharray:750,25,1.25,25;"/>
                <circle cx="603.555" cy="820.786" r="32.949" style="fill:#b3b8c5;stroke:#505a78;stroke-width:12.5px;stroke-dasharray:750,25,1.25,25;"/>
                <path d="M634.629,613.051L634.629,568.315C634.629,551.11 620.864,537.345 603.658,537.345C586.452,537.345 572.688,551.11 572.688,568.315L572.688,613.051L634.629,613.051M648.394,606.169L662.158,619.933L662.158,626.816L545.158,626.816L545.158,619.933L558.923,606.169L558.923,568.315C558.923,547.187 573.582,529.499 593.335,524.819L593.335,520.139C593.335,514.476 597.995,509.815 603.658,509.815C609.322,509.815 613.982,514.476 613.982,520.139L613.982,524.819C633.665,529.499 648.394,547.187 648.394,568.315L648.394,606.169M603.658,647.463C596.107,647.463 589.893,641.249 589.893,633.698L617.423,633.698C617.423,641.249 611.209,647.463 603.658,647.463M661.952,564.874C660.92,546.636 651.56,530.462 637.519,520.69L647.361,510.848C663.81,523.374 674.684,542.782 675.717,564.874L661.952,564.874M569.797,520.69C555.757,530.462 546.397,546.636 545.158,564.874L531.393,564.874C532.632,542.782 543.506,523.374 559.955,510.848L569.797,520.69Z" style="fill:#fff;fill-rule:nonzero;"/>
            </g>
            <path d="M394.853,706.648L230.441,706.648L230.441,832.608L302.74,832.608L340.346,870.214L340.346,832.608L394.853,832.608L394.853,706.648Z" style="fill:#505a78;fill-opacity:0.15;"/>
            <path d="M378.186,689.981L213.774,689.981L213.774,815.941L286.073,815.941L323.68,853.547L323.68,815.941L378.186,815.941L378.186,689.981Z" style="fill:#fff;stroke:#505a78;stroke-width:12.5px;"/>
            <g>
                <path d="M247.277,733.83L341.955,733.83" style="fill:none;stroke:#505a78;stroke-width:12.5px;"/>
                <path d="M247.277,769.965L313.006,769.965" style="fill:none;stroke:#505a78;stroke-width:12.5px;"/>
            </g>
            <path d="M850.933,252.731L1015.13,252.731L1015.13,378.527L942.926,378.527L905.368,416.084L905.368,378.527L850.933,378.527L850.933,252.731Z" style="fill:#505a78;fill-opacity:0.15;"/>
            <path d="M834.266,236.064L998.465,236.064L998.465,361.86L926.259,361.86L888.702,399.418L888.702,361.86L834.266,361.86L834.266,236.064Z" style="fill:#fff;stroke:#505a78;stroke-width:12.5px;"/>
            <g>
                <path d="M867.726,279.856L962.281,279.856" style="fill:none;stroke:#505a78;stroke-width:12.5px;"/>
                <path d="M867.726,315.944L933.369,315.944" style="fill:none;stroke:#505a78;stroke-width:12.5px;"/>
            </g>
            <path d="M322.933,432.07L103.627,432.07L103.627,600.085L200.066,600.085L250.228,650.248L250.228,600.085L322.933,600.085L322.933,432.07Z" style="fill:#505a78;fill-opacity:0.15;"/>
            <path d="M306.267,415.404L86.961,415.404L86.961,583.419L183.399,583.419L233.562,633.581L233.562,583.419L306.267,583.419L306.267,415.404Z" style="fill:#fff;stroke:#505a78;stroke-width:12.5px;"/>
            <path d="M150.813,492.547L182.758,524.492L240.318,466.933" style="fill:none;stroke:#505a78;stroke-width:12.5px;"/>
            <path d="M850.933,727.116L994.771,727.116L994.771,837.314L931.519,837.314L898.619,870.214L898.619,837.314L850.933,837.314L850.933,727.116Z" style="fill:#505a78;fill-opacity:0.15;"/>
            <path d="M834.266,710.449L978.105,710.449L978.105,820.647L914.853,820.647L881.952,853.547L881.952,820.647L834.266,820.647L834.266,710.449Z" style="fill:#fff;stroke:#505a78;stroke-width:12.5px;"/>
            <g>
                <circle cx="873.972" cy="765.889" r="9.721" style="fill:#505a78;"/>
                <circle cx="906.123" cy="765.889" r="9.721" style="fill:#505a78;"/>
                <circle cx="938.273" cy="765.889" r="9.721" style="fill:#505a78;"/>
            </g>
            <path d="M416.859,234.748L273.021,234.748L273.021,344.946L336.273,344.946L369.174,377.847L369.174,344.946L416.859,344.946L416.859,234.748Z" style="fill:#505a78;fill-opacity:0.15;"/>
            <path d="M400.193,218.082L256.354,218.082L256.354,328.279L319.606,328.279L352.507,361.18L352.507,328.279L400.193,328.279L400.193,218.082Z" style="fill:#fff;stroke:#505a78;stroke-width:12.5px;"/>
            <g>
                <circle cx="296.06" cy="273.521" r="9.721" style="fill:#505a78;"/>
                <circle cx="328.211" cy="273.521" r="9.721" style="fill:#505a78;"/>
                <circle cx="360.361" cy="273.521" r="9.721" style="fill:#505a78;"/>
            </g>
            <path d="M933.032,461.9L1156.97,461.9L1156.97,633.464L1058.5,633.464L1007.27,684.686L1007.27,633.464L933.032,633.464L933.032,461.9Z" style="fill:#505a78;fill-opacity:0.15;"/>
            <path d="M916.365,445.233L1140.3,445.233L1140.3,616.797L1041.83,616.797L990.606,668.019L990.606,616.797L916.365,616.797L916.365,445.233Z" style="fill:#fff;stroke:#505a78;stroke-width:12.5px;"/>
            <g>
                <path d="M1028.34,494.154L1028.34,568.229" style="fill:none;stroke:#505a78;stroke-width:12.5px;"/>
                <path d="M1065.37,531.191L991.298,531.191" style="fill:none;stroke:#505a78;stroke-width:12.5px;"/>
            </g>
        </g>
    </g>
</svg>
