<?xml version="1.0" encoding="UTF-8" standalone="no"?>
<!DOCTYPE svg PUBLIC "-//W3C//DTD SVG 1.1//EN" "http://www.w3.org/Graphics/SVG/1.1/DTD/svg11.dtd">
<svg width="100%" height="100%" viewBox="0 0 1284 1150" version="1.1" xmlns="http://www.w3.org/2000/svg" xmlns:xlink="http://www.w3.org/1999/xlink" xml:space="preserve" style="fill-rule:evenodd;clip-rule:evenodd;stroke-linecap:round;stroke-linejoin:round;stroke-miterlimit:1.5;">
    <g id="platform">
        <g>
            <path d="M641.003,1009.84L1142.56,600.802" style="fill:none;stroke:#27b7ff;stroke-opacity:0.101961;stroke-width:277.07px;"/>
            <path d="M141.012,549.198L642.573,140.165" style="fill:none;stroke:#27b7ff;stroke-opacity:0.101961;stroke-width:277.07px;"/>
            <path d="M281.757,870.008L941.963,331.597" style="fill:none;stroke:#27b7ff;stroke-opacity:0.101961;stroke-width:364.71px;"/>
        </g>
        <g>
            <path d="M160.493,813.408L251.357,701.103L986.296,701.103L1077.16,813.408L160.493,813.408Z" style="fill:#b3b8c5;stroke:#505a78;stroke-width:12.5px;stroke-dasharray:1250,25,1.25,25;"/>
            <path d="M1077.16,813.408L160.493,813.408C160.493,813.408 160.493,823.518 160.493,834.241C160.493,848.048 171.686,859.241 185.493,859.241C316.342,859.241 921.311,859.241 1052.16,859.241C1065.97,859.241 1077.16,848.048 1077.16,834.241C1077.16,823.518 1077.16,813.408 1077.16,813.408Z" style="fill:#81889e;stroke:#505a78;stroke-width:12.5px;stroke-dasharray:1250,25,1.25,25;"/>
            <path d="M986.296,247.609C986.296,233.802 975.103,222.609 961.296,222.609C848.665,222.609 388.988,222.609 276.357,222.609C262.55,222.609 251.357,233.802 251.357,247.609C251.357,345.99 251.357,701.103 251.357,701.103L986.296,701.103C986.296,701.103 986.296,345.99 986.296,247.609Z" style="fill:#dcdee4;stroke:#505a78;stroke-width:12.5px;stroke-dasharray:1250,25,1.25,25;stroke-dashoffset:-375;"/>
            <path d="M489.611,775.013L737.088,775.013" style="fill:none;stroke:#505a78;stroke-width:12.5px;stroke-dasharray:187.5,25,1.25,25;stroke-dashoffset:-37.5;"/>
            <rect x="290.641" y="267.225" width="656.372" height="389.262" style="fill:#27b7ff;stroke:#505a78;stroke-width:12.5px;stroke-dasharray:1250,25,1.25,25;"/>
            <path d="M615.313,354.439C616.468,354.365 617.624,354.32 618.781,354.295C619.435,354.284 620.09,354.28 620.745,354.282C624.306,354.315 627.86,354.573 631.385,355.089C638.389,356.116 645.246,358.125 651.696,361.044C659.8,364.711 667.247,369.805 673.61,376.021C679.631,381.903 684.674,388.774 688.469,396.288C691.716,402.72 694.042,409.611 695.355,416.696C696.799,424.487 697.022,432.503 696.02,440.363C695.006,448.321 692.727,456.106 689.289,463.355C685.415,471.523 680.076,478.981 673.61,485.298C666.802,491.949 658.754,497.311 649.99,501.022C645.071,503.104 639.933,504.665 634.687,505.671C630.094,506.552 625.421,507.007 620.745,507.037C615.742,507.068 610.737,506.613 605.823,505.671C600.882,504.724 596.035,503.284 591.378,501.379C590.224,500.907 589.082,500.406 587.953,499.878L587.953,540.711C587.953,552.859 578.091,562.721 565.943,562.721C553.795,562.721 543.932,552.859 543.932,540.711L543.932,433.599C543.802,430.186 543.899,426.764 544.222,423.363C544.97,415.497 546.951,407.756 550.075,400.498C550.776,398.87 551.534,397.268 552.346,395.695C545.592,391.935 541.018,384.722 541.018,376.449C541.018,364.301 550.88,354.439 563.028,354.439L615.313,354.439ZM620.034,396.988C618.455,397.002 616.88,397.116 615.318,397.344C612.25,397.794 609.247,398.673 606.423,399.951C603.52,401.265 600.808,402.994 598.387,405.066C595.251,407.75 592.607,411.007 590.637,414.635C589.067,417.524 587.926,420.641 587.266,423.862C586.492,427.64 586.372,431.561 586.909,435.38C587.38,438.726 588.355,441.995 589.804,445.047C591.547,448.718 593.96,452.065 596.884,454.886C599.86,457.756 603.357,460.082 607.166,461.693C611.23,463.413 615.622,464.304 620.034,464.331C624.453,464.359 628.868,463.527 632.96,461.853C636.854,460.259 640.434,457.93 643.478,455.028C646.423,452.221 648.852,448.887 650.621,445.224C652.024,442.321 652.999,439.207 653.505,436.022C654.167,431.857 654.053,427.569 653.156,423.447C652.185,418.982 650.276,414.734 647.606,411.027C644.277,406.407 639.785,402.651 634.64,400.208C631.783,398.85 628.732,397.906 625.608,397.408C624.053,397.16 622.484,397.028 620.911,396.993C620.619,396.988 620.326,396.987 620.034,396.988Z" style="fill:#fff;"/>
        </g>
        <g>
            <path d="M70.95,628.138C70.95,628.138 123.184,577.209 123.184,577.209L401.563,577.209L453.796,628.138L453.796,944.057L70.95,944.057L70.95,628.138Z" style="fill:#505a78;fill-opacity:0.15;"/>
            <path d="M54.284,611.471C54.284,611.471 106.517,560.542 106.517,560.542L384.897,560.542L437.13,611.471L437.13,927.391L54.284,927.391L54.284,611.471Z" style="fill:#27b7ff;"/>
            <path d="M54.284,614.985L106.517,560.542L384.897,560.542L437.13,615.695" style="fill:#6ed1ff;"/>
            <path d="M54.284,611.471C54.284,611.471 106.517,560.542 106.517,560.542L384.897,560.542L437.13,611.471L437.13,927.391L54.284,927.391L54.284,611.471Z" style="fill:none;stroke:#505a78;stroke-width:12.5px;stroke-dasharray:750,37.5,1.25,25;stroke-dashoffset:-275;"/>
            <path d="M205.75,841.706C205.75,839.206 203.721,837.176 201.221,837.176L105.528,837.176C103.028,837.176 100.999,839.206 100.999,841.706L100.999,879.71C100.999,882.21 103.028,884.24 105.528,884.24L201.221,884.24C203.721,884.24 205.75,882.21 205.75,879.71L205.75,841.706Z" style="fill:#fff;"/>
            <path d="M324.029,665.281C324.758,665.234 325.487,665.206 326.217,665.189C326.631,665.182 327.044,665.18 327.457,665.181C329.705,665.202 331.948,665.367 334.173,665.697C338.594,666.352 342.921,667.634 346.992,669.497C352.107,671.838 356.808,675.089 360.824,679.056C364.624,682.811 367.807,687.197 370.202,691.993C372.252,696.098 373.72,700.497 374.549,705.018C375.46,709.991 375.601,715.108 374.969,720.125C374.329,725.204 372.89,730.173 370.72,734.8C368.275,740.013 364.905,744.774 360.824,748.806C356.527,753.051 351.447,756.474 345.916,758.842C342.811,760.171 339.568,761.167 336.257,761.809C333.358,762.372 330.409,762.662 327.457,762.681C324.299,762.701 321.14,762.411 318.039,761.809C314.92,761.205 311.861,760.286 308.922,759.07C308.193,758.768 307.473,758.449 306.76,758.112L306.76,784.175C306.76,791.928 300.535,798.223 292.868,798.223C285.2,798.223 278.976,791.928 278.976,784.175L278.976,715.807C278.893,713.629 278.954,711.445 279.158,709.274C279.63,704.253 280.88,699.312 282.853,694.68C283.295,693.641 283.773,692.618 284.286,691.614C280.023,689.214 277.136,684.61 277.136,679.33C277.136,671.576 283.361,665.281 291.028,665.281L324.029,665.281ZM327.008,692.439C326.012,692.448 325.018,692.521 324.032,692.667C322.096,692.954 320.2,693.515 318.418,694.331C316.585,695.17 314.874,696.273 313.346,697.596C311.367,699.308 309.698,701.388 308.454,703.703C307.463,705.547 306.743,707.537 306.327,709.593C305.838,712.004 305.762,714.506 306.101,716.944C306.398,719.08 307.013,721.166 307.928,723.114C309.029,725.457 310.551,727.594 312.397,729.394C314.275,731.226 316.483,732.711 318.887,733.739C321.452,734.837 324.224,735.405 327.008,735.423C329.798,735.441 332.584,734.91 335.167,733.841C337.625,732.824 339.884,731.337 341.806,729.485C343.664,727.693 345.198,725.565 346.314,723.228C347.199,721.374 347.815,719.387 348.134,717.354C348.552,714.695 348.48,711.959 347.914,709.328C347.301,706.478 346.096,703.766 344.411,701.4C342.31,698.451 339.475,696.054 336.228,694.494C334.424,693.628 332.498,693.026 330.526,692.708C329.545,692.549 328.555,692.465 327.562,692.443C327.377,692.44 327.193,692.439 327.008,692.439Z" style="fill:#fff;"/>
        </g>
        <g>
            <path d="M1178.03,406.557C1178.03,392.75 1166.84,381.557 1153.03,381.557C1091.18,381.557 931.55,381.557 869.7,381.557C855.893,381.557 844.7,392.75 844.7,406.557C844.7,499.693 844.7,825.922 844.7,919.057C844.7,932.865 855.893,944.057 869.7,944.057C931.55,944.057 1091.18,944.057 1153.03,944.057C1166.84,944.057 1178.03,932.865 1178.03,919.057C1178.03,825.922 1178.03,499.693 1178.03,406.557Z" style="fill:#505a78;fill-opacity:0.15;"/>
            <path d="M1161.37,389.891C1161.37,376.084 1150.17,364.891 1136.37,364.891C1074.52,364.891 914.883,364.891 853.033,364.891C839.226,364.891 828.034,376.084 828.034,389.891C828.034,483.026 828.034,809.255 828.034,902.391C828.034,916.198 839.226,927.391 853.033,927.391C914.883,927.391 1074.52,927.391 1136.37,927.391C1150.17,927.391 1161.37,916.198 1161.37,902.391C1161.37,809.255 1161.37,483.026 1161.37,389.891Z" style="fill:#dcdee4;stroke:#505a78;stroke-width:12.5px;stroke-dasharray:750,50,1.25,25;"/>
            <path d="M1161.37,389.891C1161.37,376.084 1150.17,364.891 1136.37,364.891C1074.52,364.891 914.883,364.891 853.033,364.891C839.226,364.891 828.034,376.084 828.034,389.891C828.034,483.026 828.034,809.255 828.034,902.391C828.034,916.198 839.226,927.391 853.033,927.391C914.883,927.391 1074.52,927.391 1136.37,927.391C1150.17,927.391 1161.37,916.198 1161.37,902.391C1161.37,809.255 1161.37,483.026 1161.37,389.891Z" style="fill:none;stroke:#505a78;stroke-width:12.5px;stroke-dasharray:750,50,1.25,25;"/>
            <rect x="867.25" y="448.379" width="254.901" height="351.465" style="fill:#27b7ff;stroke:#505a78;stroke-width:12.5px;stroke-dasharray:750,25,1.25,25;"/>
            <path d="M945.265,405.222L1044.13,405.222" style="fill:none;stroke:#505a78;stroke-width:12.5px;stroke-dasharray:750,25,1.25,25;"/>
            <circle cx="994.7" cy="866.259" r="32.949" style="fill:#b3b8c5;stroke:#505a78;stroke-width:12.5px;stroke-dasharray:750,25,1.25,25;"/>
            <path d="M992.272,551.408C993.07,551.357 993.869,551.326 994.669,551.308C995.121,551.301 995.574,551.298 996.027,551.3C998.489,551.322 1000.95,551.501 1003.38,551.858C1008.23,552.568 1012.96,553.957 1017.42,555.974C1023.03,558.51 1028.17,562.031 1032.57,566.328C1036.74,570.395 1040.22,575.145 1042.85,580.34C1045.09,584.786 1046.7,589.55 1047.61,594.448C1048.6,599.834 1048.76,605.376 1048.07,610.809C1047.37,616.311 1045.79,621.693 1043.41,626.704C1040.73,632.351 1037.04,637.507 1032.57,641.874C1027.87,646.472 1022.3,650.179 1016.24,652.744C1012.84,654.184 1009.29,655.263 1005.67,655.958C1002.49,656.567 999.259,656.882 996.027,656.902C992.568,656.924 989.108,656.61 985.711,655.958C982.295,655.303 978.944,654.308 975.725,652.991C974.927,652.665 974.137,652.319 973.357,651.953L973.357,680.182C973.357,688.58 966.539,695.398 958.141,695.398C949.743,695.398 942.924,688.58 942.924,680.182L942.924,606.133C942.834,603.774 942.901,601.408 943.125,599.057C943.642,593.619 945.011,588.267 947.171,583.25C947.655,582.125 948.179,581.017 948.741,579.929C944.071,577.33 940.909,572.343 940.909,566.624C940.909,558.226 947.728,551.408 956.126,551.408L992.272,551.408ZM995.535,580.823C994.444,580.833 993.355,580.911 992.275,581.07C990.154,581.381 988.078,581.988 986.125,582.872C984.118,583.78 982.244,584.976 980.57,586.408C978.402,588.263 976.574,590.515 975.212,593.023C974.127,595.02 973.338,597.175 972.882,599.402C972.347,602.014 972.264,604.724 972.635,607.364C972.96,609.677 973.634,611.937 974.637,614.048C975.842,616.585 977.509,618.899 979.531,620.85C981.588,622.834 984.006,624.441 986.639,625.555C989.449,626.744 992.485,627.36 995.535,627.379C998.59,627.398 1001.64,626.823 1004.47,625.666C1007.16,624.564 1009.64,622.954 1011.74,620.947C1013.78,619.007 1015.46,616.702 1016.68,614.17C1017.65,612.163 1018.32,610.01 1018.67,607.809C1019.13,604.929 1019.05,601.965 1018.43,599.115C1017.76,596.028 1016.44,593.091 1014.6,590.529C1012.3,587.335 1009.19,584.739 1005.63,583.049C1003.66,582.111 1001.55,581.458 999.388,581.114C998.314,580.942 997.229,580.851 996.141,580.827C995.939,580.824 995.737,580.822 995.535,580.823Z" style="fill:#fff;"/>
        </g>
        <circle cx="1155.76" cy="380.067" r="104.632" style="fill:#505a78;fill-opacity:0.15;"/>
        <circle cx="1139.09" cy="363.401" r="104.632" style="fill:#fff;"/>
        <clipPath id="_clip1">
            <circle cx="1139.09" cy="363.401" r="104.632"/>
        </clipPath>
        <g clip-path="url(#_clip1)">
            <path d="M1086.98,365.458L1117.27,394.754L1191.2,320.23" style="fill:none;stroke:#505a78;stroke-width:12.5px;stroke-dasharray:1250,25,1.25,25;"/>
        </g>
        <circle cx="1139.09" cy="363.401" r="104.632" style="fill:none;stroke:#505a78;stroke-width:12.5px;stroke-dasharray:875,25,1.25,25;stroke-dashoffset:-850;"/>
    </g>
</svg>
