<?xml version="1.0" encoding="UTF-8" standalone="no"?>
<!DOCTYPE svg PUBLIC "-//W3C//DTD SVG 1.1//EN" "http://www.w3.org/Graphics/SVG/1.1/DTD/svg11.dtd">
<svg width="100%" height="100%" viewBox="0 0 863 292" version="1.1" xmlns="http://www.w3.org/2000/svg" xmlns:xlink="http://www.w3.org/1999/xlink" xml:space="preserve" style="fill-rule:evenodd;clip-rule:evenodd;stroke-linecap:round;stroke-linejoin:round;stroke-miterlimit:1.5;">
    <g id="vehicle.-car.-blue">
        <path d="M5.745,175.884L25.427,239.195L757.584,239.195L838.358,221.528L853.572,175.884L837.63,150.397L828.686,94.404L748.539,82.514C748.539,82.514 677.535,7.506 488.427,7.506C439.305,7.506 397.011,9.608 364.435,22.332C271.312,58.706 231.764,101.836 230.066,96.092L34.405,136.009L5.745,175.884Z" style="fill:#6ed1ff;"/>
        <clipPath id="_clip1">
            <path d="M5.745,175.884L25.427,239.195L757.584,239.195L838.358,221.528L853.572,175.884L837.63,150.397L828.686,94.404L748.539,82.514C748.539,82.514 677.535,7.506 488.427,7.506C439.305,7.506 397.011,9.608 364.435,22.332C271.312,58.706 231.764,101.836 230.066,96.092L34.405,136.009L5.745,175.884Z"/>
        </clipPath>
        <g clip-path="url(#_clip1)">
            <path d="M853.572,175.884L725.859,175.884L725.996,239.195L868.976,239.195L853.572,175.884Z" style="fill:#27b7ff;"/>
            <path d="M125.221,185.431L-2.493,185.431L-2.355,248.743L140.624,248.743L125.221,185.431Z" style="fill:#27b7ff;"/>
            <path d="M662.513,220.376L19.576,220.376" style="fill:#bae8ff;stroke:#27b7ff;stroke-width:10.42px;"/>
            <path d="M691.405,96.493L247.051,104.753" style="fill:#bae8ff;stroke:#27b7ff;stroke-width:10.42px;"/>
            <path d="M27.449,136.009L53.739,140.567L63.065,164.785L5.745,164.785L27.449,136.009Z" style="fill:#fff;"/>
            <path d="M57.12,186.742L5.745,186.742" style="fill:none;stroke:#505a78;stroke-width:10.42px;"/>
            <path d="M768.639,175.884L862.82,175.884" style="fill:none;stroke:#505a78;stroke-width:10.42px;"/>
            <path d="M586.426,123.475L619.158,123.475" style="fill:none;stroke:#505a78;stroke-width:10.42px;"/>
            <path d="M412.849,123.475L444.796,123.475" style="fill:none;stroke:#505a78;stroke-width:10.42px;"/>
            <path d="M263.021,175.884L583.488,175.884" style="fill:none;stroke:#505a78;stroke-width:10.42px;"/>
            <path d="M240.004,239.195L243.933,107.901C243.933,107.901 328.867,50.201 373.496,34.098C398,25.256 466.671,22.349 466.671,22.349L460.388,94.968L460.388,239.519L240.004,239.195Z" style="fill:none;stroke:#505a78;stroke-width:10.42px;"/>
            <path d="M460.388,94.968L258.512,98.14C258.512,98.14 328.867,50.201 373.496,34.098C398,25.256 466.671,22.349 466.671,22.349L460.388,94.968Z" style="fill:#bae8ff;stroke:#505a78;stroke-width:10.42px;"/>
            <path d="M487.827,21.243L482.733,92.484L622.676,88.923L619.938,36.009C619.938,36.009 571.56,23.038 487.827,21.243Z" style="fill:#bae8ff;stroke:#505a78;stroke-width:10.42px;"/>
            <path d="M635.778,39.824L639.32,88.923L692.692,88.217C692.692,88.217 705.95,65.952 635.778,39.824Z" style="fill:#bae8ff;stroke:#505a78;stroke-width:10.42px;"/>
            <path d="M639.32,88.923L639.32,140.496C639.32,140.496 588.816,160.449 603.359,239.195" style="fill:none;stroke:#505a78;stroke-width:10.42px;"/>
            <path d="M224.696,144.075C224.696,142.921 223.759,141.985 222.605,141.985L212.013,141.985C210.86,141.985 209.923,142.921 209.923,144.075L209.923,148.255C209.923,149.409 210.86,150.345 212.013,150.345L222.605,150.345C223.759,150.345 224.696,149.409 224.696,148.255L224.696,144.075Z" style="fill:#f79c82;"/>
            <path d="M829.344,98.522C829.344,98.522 829.341,98.522 829.334,98.521C824.004,98.208 818.811,100.286 815.168,104.189C811.524,108.092 809.808,113.415 810.486,118.711C811.74,128.501 813.11,139.205 813.867,145.111C814.2,147.715 816.417,149.666 819.042,149.666C825.587,149.666 836.813,149.666 836.813,149.666L829.344,98.522Z" style="fill:#f79c82;"/>
            <path d="M292.127,105.201L287.324,69.776L272.809,94.251L292.127,105.201Z" style="fill:#505a78;"/>
            <path d="M299.263,106.699L298.904,107.891L298.348,109.004L297.611,110.006L296.714,110.869L295.683,111.566L294.549,112.078L293.344,112.39L292.104,112.492L290.865,112.382L289.662,112.063L288.531,111.544L269.213,100.594L268.254,99.945L267.41,99.152L266.701,98.235L266.148,97.217L265.762,96.125L265.554,94.985L265.529,93.827L265.688,92.679L266.027,91.572L266.537,90.531L280.577,66.857L281.052,66.057L281.747,65.078L282.593,64.227L283.568,63.526L284.643,62.995L285.792,62.647L286.982,62.492L288.181,62.535L289.358,62.774L290.479,63.202L291.514,63.809L292.436,64.577L293.22,65.486L293.844,66.511L294.291,67.625L294.549,68.796L299.352,104.221L299.414,105.464L299.263,106.699ZM282.874,91.574L282.925,91.603L282.912,91.509L282.874,91.574Z" style="fill:#505a78;"/>
        </g>
        <path d="M5.745,175.884L25.427,239.195L757.584,239.195L838.358,221.528L853.572,175.884L837.63,150.397L828.686,94.404L748.539,82.514C748.539,82.514 677.535,7.506 488.427,7.506C439.305,7.506 397.011,9.608 364.435,22.332C271.312,58.706 231.764,101.836 230.066,96.092L34.405,136.009L5.745,175.884Z" style="fill:none;stroke:#505a78;stroke-width:10.42px;"/>
        <ellipse cx="434.025" cy="279.394" rx="420.829" ry="8.333" style="fill:#b3b8c5;"/>
        <g>
            <circle cx="151.812" cy="215.163" r="65.497" style="fill:#505a78;"/>
            <circle cx="151.812" cy="215.163" r="40.605" style="fill:#81889e;"/>
        </g>
        <g>
            <circle cx="686.286" cy="215.163" r="65.497" style="fill:#505a78;"/>
            <circle cx="686.286" cy="215.163" r="40.605" style="fill:#81889e;"/>
        </g>
    </g>
</svg>
