<?xml version="1.0" encoding="UTF-8" standalone="no"?>
<!DOCTYPE svg PUBLIC "-//W3C//DTD SVG 1.1//EN" "http://www.w3.org/Graphics/SVG/1.1/DTD/svg11.dtd">
<svg width="100%" height="100%" viewBox="0 0 509 292" version="1.1" xmlns="http://www.w3.org/2000/svg" xmlns:xlink="http://www.w3.org/1999/xlink" xml:space="preserve" style="fill-rule:evenodd;clip-rule:evenodd;stroke-linecap:round;stroke-linejoin:round;stroke-miterlimit:1.5;">
    <g id="vehicle.-motorbike">
        <ellipse cx="226.716" cy="282.191" rx="225.405" ry="7.292" style="fill:#b3b8c5;"/>
        <path d="M497.968,19.271L373.784,19.271L373.784,114.858L480.533,114.858L497.968,19.271Z" style="fill:#fff;stroke:#505a78;stroke-width:10.42px;"/>
        <circle cx="193.287" cy="76.311" r="9.256" style="fill:none;stroke:#505a78;stroke-width:10.42px;"/>
        <circle cx="73.695" cy="213.458" r="57.274" style="fill:none;stroke:#505a78;stroke-width:25.15px;"/>
        <circle cx="368.632" cy="213.458" r="57.274" style="fill:none;stroke:#505a78;stroke-width:25.15px;"/>
        <circle cx="369.043" cy="213.458" r="28.753" style="fill:none;stroke:#dcdee4;stroke-width:10.42px;"/>
        <path d="M291.264,195.148L368.632,210.747L327.031,127.973" style="fill:none;stroke:#81889e;stroke-width:16.27px;"/>
        <path d="M142.765,120.12L145.08,127.698L255.653,127.698L327.236,127.588L389.939,127.588C389.939,127.588 412.11,131.467 429.848,153.536L452.121,162.525C452.121,162.525 448.469,121.26 392.602,108.686C392.602,108.686 378.376,85.281 361.202,87.295C344.028,89.308 341.476,98.151 306.274,102.554C271.071,106.958 274.102,104.729 274.102,104.729C274.102,104.729 274.101,104.729 274.101,104.728C267.572,87.616 251.158,76.311 232.844,76.311C205.383,76.311 169.256,76.311 169.256,76.311C169.256,76.311 169.254,76.311 169.25,76.312C151.002,81.197 139.401,99.086 142.385,117.74C142.623,119.233 142.765,120.12 142.765,120.12Z" style="fill:#fff;"/>
        <clipPath id="_clip1">
            <path d="M142.765,120.12L145.08,127.698L255.653,127.698L327.236,127.588L389.939,127.588C389.939,127.588 412.11,131.467 429.848,153.536L452.121,162.525C452.121,162.525 448.469,121.26 392.602,108.686C392.602,108.686 378.376,85.281 361.202,87.295C344.028,89.308 341.476,98.151 306.274,102.554C271.071,106.958 274.102,104.729 274.102,104.729C274.102,104.729 274.101,104.729 274.101,104.728C267.572,87.616 251.158,76.311 232.844,76.311C205.383,76.311 169.256,76.311 169.256,76.311C169.256,76.311 169.254,76.311 169.25,76.312C151.002,81.197 139.401,99.086 142.385,117.74C142.623,119.233 142.765,120.12 142.765,120.12Z"/>
        </clipPath>
        <g clip-path="url(#_clip1)">
            <rect x="133.458" y="105.778" width="147.072" height="29.84" style="fill:#dcdee4;"/>
        </g>
        <path d="M142.765,120.12L145.08,127.698L255.653,127.698L327.236,127.588L389.939,127.588C389.939,127.588 412.11,131.467 429.848,153.536L452.121,162.525C452.121,162.525 448.469,121.26 392.602,108.686C392.602,108.686 378.376,85.281 361.202,87.295C344.028,89.308 341.476,98.151 306.274,102.554C271.071,106.958 274.102,104.729 274.102,104.729C274.102,104.729 274.101,104.729 274.101,104.728C267.572,87.616 251.158,76.311 232.844,76.311C205.383,76.311 169.256,76.311 169.256,76.311C169.256,76.311 169.254,76.311 169.25,76.312C151.002,81.197 139.401,99.086 142.385,117.74C142.623,119.233 142.765,120.12 142.765,120.12Z" style="fill:none;stroke:#505a78;stroke-width:10.36px;"/>
        <path d="M169.133,214.097C174.474,233.28 192.039,246.48 211.95,246.273C223.846,246.15 236.934,246.014 247.727,245.902C261.53,245.759 273.808,237.096 278.57,224.14C282.092,214.56 285.458,205.404 285.458,205.404L253.699,127.698L145.08,127.698C145.08,127.698 159.331,178.886 169.133,214.097Z" style="fill:none;stroke:#505a78;stroke-width:10.42px;"/>
        <path d="M177.113,127.813L177.113,142.373L189.156,168.783L189.479,210.747L225.714,202.982L219.926,172.107L233.658,140.085L232.724,127.813L177.113,127.813Z" style="fill:#dcdee4;stroke:#505a78;stroke-width:10.42px;"/>
        <path d="M170.044,142.193L240.081,142.193" style="fill:none;stroke:#505a78;stroke-width:10.42px;"/>
        <path d="M176.468,157.284L233.658,157.284" style="fill:none;stroke:#505a78;stroke-width:10.42px;"/>
        <path d="M183.643,172.47L226.483,172.47" style="fill:none;stroke:#505a78;stroke-width:10.42px;"/>
        <path d="M391.065,124.913L391.065,108.408L369.236,88.1C369.236,88.1 359.981,127.813 323.1,127.813" style="fill:none;stroke:#505a78;stroke-width:10.42px;"/>
        <circle cx="73.695" cy="213.458" r="28.753" style="fill:none;stroke:#dcdee4;stroke-width:10.42px;"/>
        <path d="M144.921,127.973L327.728,127.973" style="fill:none;stroke:#505a78;stroke-width:10.38px;"/>
        <path d="M118.632,88.857C118.632,79.712 111.219,72.299 102.074,72.299C97.423,72.299 93.608,72.299 93.608,72.299L93.608,105.424C93.608,105.424 97.423,105.424 102.074,105.424C111.219,105.424 118.632,98.01 118.632,88.865C118.632,88.863 118.632,88.86 118.632,88.857Z" style="fill:#dcdee4;stroke:#505a78;stroke-width:10.42px;"/>
        <path d="M45.973,139.25L55.343,157.284C55.343,157.284 103.533,146.767 126.721,188.675L146.258,190.2C146.258,190.2 128.057,121.213 45.973,139.25Z" style="fill:#fff;stroke:#505a78;stroke-width:10.42px;"/>
        <path d="M275.547,105.424L277.68,127.813L333.774,127.813C333.774,127.813 366.534,117.211 369.043,88.861C369.043,88.861 365.047,84.449 341.898,93.167C318.748,101.885 289.904,106.796 275.547,105.424Z" style="fill:#505a78;"/>
        <path d="M73.695,213.458L147.015,50.566L176.78,48.865" style="fill:none;stroke:#81889e;stroke-width:16.27px;"/>
        <path d="M253.699,127.698L285.458,205.404L326.631,127.818L253.699,127.698Z" style="fill:#81889e;stroke:#505a78;stroke-width:10.42px;"/>
        <path d="M195.366,44.967C195.216,43.549 194.509,42.249 193.401,41.352C192.292,40.456 190.873,40.037 189.455,40.187C176.675,41.538 145.405,44.843 145.405,44.843L151.637,53.137C151.637,53.137 178.682,51.459 190.51,50.725C191.928,50.637 193.248,49.974 194.165,48.889C195.082,47.804 195.516,46.392 195.367,44.979C195.367,44.975 195.366,44.971 195.366,44.967Z" style="fill:none;stroke:#505a78;stroke-width:10.42px;"/>
        <path d="M195.366,44.967C195.216,43.549 194.509,42.249 193.401,41.352C192.292,40.456 190.873,40.037 189.455,40.187C176.675,41.538 145.405,44.843 145.405,44.843L151.637,53.137C151.637,53.137 178.682,51.459 190.51,50.725C191.928,50.637 193.248,49.974 194.165,48.889C195.082,47.804 195.516,46.392 195.367,44.979C195.367,44.975 195.366,44.971 195.366,44.967Z" style="fill:#505a78;"/>
        <path d="M274.859,105.184L277.308,127.737" style="fill:none;stroke:#505a78;stroke-width:10.42px;"/>
        <path d="M191.539,224.252C188.15,219.599 187.162,213.617 188.876,208.121C190.591,202.626 194.805,198.266 200.239,196.367C211.547,192.414 225.203,187.639 236.889,183.554C243.269,181.324 250.316,182.098 256.06,185.661C261.803,189.223 265.628,195.192 266.465,201.899C266.465,201.902 266.466,201.906 266.466,201.909C267.349,208.99 265.109,216.104 260.329,221.402C255.548,226.699 248.7,229.655 241.566,229.501C226.112,229.168 208.442,228.786 199.857,228.601C196.561,228.53 193.487,226.924 191.545,224.259C191.543,224.257 191.541,224.254 191.539,224.252Z" style="fill:#fff;stroke:#505a78;stroke-width:10.42px;"/>
        <circle cx="242.585" cy="206.216" r="8.927" style="fill:#dcdee4;"/>
        <path d="M500.954,26.893C500.954,21.694 498.889,16.708 495.213,13.032C491.537,9.356 486.551,7.29 481.352,7.29C456.873,7.29 415.246,7.29 390.768,7.29C385.569,7.29 380.583,9.356 376.907,13.032C373.231,16.708 371.166,21.694 371.166,26.893C371.166,29.477 371.166,31.252 371.166,31.252L500.954,31.252C500.954,31.252 500.954,29.477 500.954,26.893Z" style="fill:#dcdee4;stroke:#505a78;stroke-width:10.42px;"/>
        <path d="M387.719,105.296L433.714,67.064" style="fill:none;stroke:#505a78;stroke-width:10.42px;"/>
        <path d="M124.086,101.507L142.829,120.329" style="fill:none;stroke:#505a78;stroke-width:10.42px;"/>
    </g>
</svg>
