<?xml version="1.0" encoding="UTF-8" standalone="no"?>
<!DOCTYPE svg PUBLIC "-//W3C//DTD SVG 1.1//EN" "http://www.w3.org/Graphics/SVG/1.1/DTD/svg11.dtd">
<svg width="100%" height="100%" viewBox="0 0 863 292" version="1.1" xmlns="http://www.w3.org/2000/svg" xmlns:xlink="http://www.w3.org/1999/xlink" xml:space="preserve" style="fill-rule:evenodd;clip-rule:evenodd;stroke-linecap:round;stroke-linejoin:round;stroke-miterlimit:1.5;">
    <g id="vehicle.-car">
        <path d="M5.745,176.651L25.427,239.963L757.584,239.963L838.358,222.295L853.572,176.651L837.63,151.165L828.686,95.171L748.539,83.281C748.539,83.281 677.535,8.273 488.427,8.273C439.305,8.273 397.011,10.376 364.435,23.1C271.312,59.473 231.764,102.603 230.066,96.86L34.405,136.777L5.745,176.651Z" style="fill:#fff;"/>
        <clipPath id="_clip1">
            <path d="M5.745,176.651L25.427,239.963L757.584,239.963L838.358,222.295L853.572,176.651L837.63,151.165L828.686,95.171L748.539,83.281C748.539,83.281 677.535,8.273 488.427,8.273C439.305,8.273 397.011,10.376 364.435,23.1C271.312,59.473 231.764,102.603 230.066,96.86L34.405,136.777L5.745,176.651Z"/>
        </clipPath>
        <g clip-path="url(#_clip1)">
            <path d="M853.572,176.651L725.859,176.651L725.996,239.963L868.976,239.963L853.572,176.651Z" style="fill:#dcdee4;"/>
            <path d="M125.221,186.199L-2.493,186.199L-2.355,249.51L140.624,249.51L125.221,186.199Z" style="fill:#dcdee4;"/>
            <path d="M662.513,221.143L19.576,221.143" style="fill:none;stroke:#dcdee4;stroke-width:10.42px;"/>
            <path d="M691.405,97.26L247.051,105.52" style="fill:none;stroke:#dcdee4;stroke-width:10.42px;"/>
            <path d="M27.449,136.777L53.739,141.334L63.065,165.553L5.745,165.553L27.449,136.777Z" style="fill:#dcdee4;"/>
            <path d="M57.12,187.509L5.745,187.509" style="fill:none;stroke:#505a78;stroke-width:10.42px;"/>
            <path d="M768.639,176.651L862.82,176.651" style="fill:none;stroke:#505a78;stroke-width:10.42px;"/>
            <path d="M586.426,124.243L619.158,124.243" style="fill:none;stroke:#505a78;stroke-width:10.42px;"/>
            <path d="M412.849,124.243L444.796,124.243" style="fill:none;stroke:#505a78;stroke-width:10.42px;"/>
            <path d="M263.021,176.651L583.488,176.651" style="fill:none;stroke:#505a78;stroke-width:10.42px;"/>
            <path d="M240.004,239.963L243.933,108.668C243.933,108.668 328.867,50.968 373.496,34.865C398,26.023 466.671,23.116 466.671,23.116L460.388,95.735L460.388,240.286L240.004,239.963Z" style="fill:none;stroke:#505a78;stroke-width:10.42px;"/>
            <path d="M460.388,95.735L258.512,98.908C258.512,98.908 328.867,50.968 373.496,34.865C398,26.023 466.671,23.116 466.671,23.116L460.388,95.735Z" style="fill:#dcdee4;stroke:#505a78;stroke-width:10.42px;"/>
            <path d="M487.827,22.011L482.733,93.252L622.676,89.69L619.938,36.776C619.938,36.776 571.56,23.805 487.827,22.011Z" style="fill:#dcdee4;stroke:#505a78;stroke-width:10.42px;"/>
            <path d="M635.778,40.591L639.32,89.69L692.692,88.984C692.692,88.984 705.95,66.719 635.778,40.591Z" style="fill:#dcdee4;stroke:#505a78;stroke-width:10.42px;"/>
            <path d="M639.32,89.69L639.32,141.263C639.32,141.263 588.816,161.217 603.359,239.963" style="fill:none;stroke:#505a78;stroke-width:10.42px;"/>
            <path d="M224.696,144.842C224.696,143.689 223.759,142.752 222.605,142.752L212.013,142.752C210.86,142.752 209.923,143.689 209.923,144.842L209.923,149.022C209.923,150.176 210.86,151.113 212.013,151.113L222.605,151.113C223.759,151.113 224.696,150.176 224.696,149.022L224.696,144.842Z" style="fill:#f79c82;"/>
            <path d="M829.344,99.289C829.344,99.289 829.341,99.289 829.334,99.288C824.004,98.976 818.811,101.053 815.168,104.956C811.524,108.859 809.808,114.182 810.486,119.478C811.74,129.268 813.11,139.972 813.867,145.878C814.2,148.482 816.417,150.433 819.042,150.433C825.587,150.433 836.813,150.433 836.813,150.433L829.344,99.289Z" style="fill:#f79c82;"/>
            <path d="M292.127,105.968L287.324,70.543L272.809,95.018L292.127,105.968Z" style="fill:#505a78;"/>
            <path d="M299.263,107.466L298.904,108.658L298.348,109.771L297.611,110.774L296.714,111.636L295.683,112.334L294.549,112.846L293.344,113.157L292.104,113.26L290.865,113.15L289.662,112.831L288.531,112.312L269.213,101.362L268.254,100.712L267.41,99.919L266.701,99.002L266.148,97.985L265.762,96.892L265.554,95.752L265.529,94.594L265.688,93.447L266.027,92.339L266.537,91.299L280.577,67.625L281.052,66.824L281.747,65.846L282.593,64.994L283.568,64.294L284.643,63.762L285.792,63.414L286.982,63.26L288.181,63.302L289.358,63.541L290.479,63.969L291.514,64.576L292.436,65.344L293.22,66.253L293.844,67.278L294.291,68.392L294.549,69.564L299.352,104.988L299.414,106.231L299.263,107.466ZM282.874,92.342L282.925,92.371L282.912,92.277L282.874,92.342Z" style="fill:#505a78;"/>
        </g>
        <path d="M5.745,176.651L25.427,239.963L757.584,239.963L838.358,222.295L853.572,176.651L837.63,151.165L828.686,95.171L748.539,83.281C748.539,83.281 677.535,8.273 488.427,8.273C439.305,8.273 397.011,10.376 364.435,23.1C271.312,59.473 231.764,102.603 230.066,96.86L34.405,136.777L5.745,176.651Z" style="fill:none;stroke:#505a78;stroke-width:10.42px;"/>
        <ellipse cx="434.025" cy="280.161" rx="420.829" ry="8.333" style="fill:#b3b8c5;"/>
        <g>
            <circle cx="151.812" cy="215.93" r="65.497" style="fill:#505a78;"/>
            <circle cx="151.812" cy="215.93" r="40.605" style="fill:#81889e;"/>
        </g>
        <g>
            <circle cx="686.286" cy="215.93" r="65.497" style="fill:#505a78;"/>
            <circle cx="686.286" cy="215.93" r="40.605" style="fill:#81889e;"/>
        </g>
    </g>
</svg>
