<?xml version="1.0" encoding="UTF-8" standalone="no"?>
<!DOCTYPE svg PUBLIC "-//W3C//DTD SVG 1.1//EN" "http://www.w3.org/Graphics/SVG/1.1/DTD/svg11.dtd">
<svg width="100%" height="100%" viewBox="0 0 934 417" version="1.1" xmlns="http://www.w3.org/2000/svg" xmlns:xlink="http://www.w3.org/1999/xlink" xml:space="preserve" style="fill-rule:evenodd;clip-rule:evenodd;stroke-linejoin:round;stroke-miterlimit:1.41421;">
    <g id="vehicle.-small.-van">
        <ellipse cx="473.893" cy="407.844" rx="458.333" ry="8.333" style="fill:#b3b8c5;"/>
        <path d="M912.126,10.939C912.126,9.567 911.014,8.455 909.641,8.455C872.936,8.452 440.669,8.423 362.764,8.418C354.971,8.417 347.379,10.889 341.081,15.477C302.049,43.912 158.461,148.515 158.461,148.515C158.461,148.515 89.153,184.722 69.166,195.163C65.656,196.997 62.614,199.612 60.273,202.806C51.59,214.661 29.179,245.255 17.687,260.943C13.229,267.03 11.649,274.759 13.362,282.106C17.73,300.842 25.864,335.738 25.864,335.738L912.126,335.738C912.126,335.738 912.126,41.099 912.126,10.939Z" style="fill:#fff;"/>
        <clipPath id="_clip1">
            <path d="M912.126,10.939C912.126,9.567 911.014,8.455 909.641,8.455C872.936,8.452 440.669,8.423 362.764,8.418C354.971,8.417 347.379,10.889 341.081,15.477C302.049,43.912 158.461,148.515 158.461,148.515C158.461,148.515 89.153,184.722 69.166,195.163C65.656,196.997 62.614,199.612 60.273,202.806C51.59,214.661 29.179,245.255 17.687,260.943C13.229,267.03 11.649,274.759 13.362,282.106C17.73,300.842 25.864,335.738 25.864,335.738L912.126,335.738C912.126,335.738 912.126,41.099 912.126,10.939Z"/>
        </clipPath>
        <g clip-path="url(#_clip1)">
            <path d="M912.126,188.812C912.126,188.812 911.418,188.812 910.255,188.812C904.875,188.812 899.716,190.949 895.912,194.753C892.108,198.557 889.971,203.716 889.971,209.096C889.971,234.478 889.971,274.657 889.971,274.657L912.126,274.657L912.126,188.812Z" style="fill:#f79c82;"/>
            <path d="M14.847,270.063L51.667,269.846L83.799,187.519L63.83,197.95L14.847,270.063Z" style="fill:#b3b8c5;"/>
            <rect x="8.781" y="264.191" width="903.344" height="71.547" style="fill:#81889e;"/>
            <path d="M913.392,257.01L914.62,257.339L915.772,257.876L916.813,258.605L917.711,259.504L918.44,260.545L918.978,261.697L919.307,262.925L919.417,264.191L919.417,335.738L919.307,337.005L918.978,338.232L918.44,339.384L917.711,340.425L916.813,341.324L915.772,342.053L914.62,342.59L913.392,342.919L912.126,343.03L8.781,343.03L7.515,342.919L6.287,342.59L5.136,342.053L4.094,341.324L3.196,340.425L2.467,339.384L1.929,338.232L1.601,337.005L1.49,335.738L1.49,264.191L1.601,262.925L1.929,261.697L2.467,260.545L3.196,259.504L4.094,258.605L5.136,257.876L6.287,257.339L7.515,257.01L8.781,256.899L912.126,256.899L913.392,257.01ZM16.073,271.483L16.073,328.447L904.834,328.447L904.834,271.483L16.073,271.483Z" style="fill:#505a78;"/>
            <path d="M203.528,328.447L329.494,328.447L329.852,273.476L331.092,82.633L293.98,82.438L202.905,149.469L203.528,328.447ZM288.271,68.648L289.346,68.2L290.479,67.929L291.641,67.842L338.47,68.089L339.611,68.185L340.723,68.458L341.778,68.902L342.751,69.506L343.618,70.255L344.356,71.13L344.949,72.11L345.38,73.17L345.64,74.286L345.723,75.428L344.383,281.509L344.03,335.786L343.912,337.046L343.578,338.267L343.038,339.412L342.308,340.446L341.41,341.338L340.371,342.061L339.223,342.594L338,342.92L336.739,343.03L196.262,343.03L194.998,342.92L193.773,342.592L192.623,342.057L191.583,341.331L190.685,340.436L189.955,339.399L189.416,338.251L189.085,337.027L188.97,335.764L188.309,145.817L188.394,144.679L188.656,143.568L189.087,142.512L189.679,141.537L190.415,140.665L191.278,139.919L287.281,69.261L288.271,68.648Z" style="fill:#505a78;"/>
            <circle cx="149.296" cy="343.261" r="83.333" style="fill:#dcdee4;"/>
            <path d="M148.797,266.18L148.299,266.184L147.802,266.192L147.305,266.203L146.81,266.217L146.315,266.235L145.821,266.255L145.327,266.278L144.835,266.305L144.344,266.335L143.853,266.367L143.363,266.403L142.874,266.442L142.386,266.484L141.899,266.529L141.413,266.576L140.928,266.627L140.444,266.681L139.96,266.738L139.478,266.798L138.996,266.861L138.516,266.927L138.036,266.995L137.558,267.067L137.08,267.142L136.603,267.219L136.128,267.3L135.653,267.383L135.179,267.469L134.707,267.558L134.235,267.65L133.765,267.745L133.295,267.843L132.827,267.943L132.36,268.047L131.893,268.153L131.428,268.262L130.964,268.374L130.501,268.488L130.039,268.606L129.578,268.726L129.119,268.849L128.66,268.975L128.203,269.103L127.746,269.235L127.291,269.369L126.837,269.505L126.385,269.645L125.933,269.787L125.483,269.932L125.034,270.079L124.586,270.229L124.139,270.382L123.693,270.538L123.249,270.696L122.806,270.856L122.365,271.02L121.924,271.186L121.485,271.355L121.056,271.522L120.175,271.876L119.308,272.237L118.447,272.608L117.591,272.989L116.741,273.38L115.896,273.781L115.056,274.192L114.223,274.612L113.395,275.043L112.573,275.483L111.757,275.933L110.947,276.393L110.143,276.862L109.345,277.34L108.554,277.828L107.768,278.325L106.989,278.831L106.217,279.346L105.451,279.871L104.692,280.404L103.939,280.946L103.194,281.497L102.455,282.057L101.723,282.625L100.998,283.202L100.28,283.787L99.569,284.381L98.866,284.983L98.17,285.594L97.481,286.212L96.8,286.839L96.126,287.474L95.46,288.116L94.802,288.767L94.151,289.425L93.509,290.091L92.874,290.765L92.247,291.446L91.629,292.135L91.018,292.831L90.416,293.534L89.822,294.245L89.237,294.963L88.66,295.688L88.092,296.42L87.532,297.159L86.981,297.904L86.439,298.657L85.906,299.416L85.381,300.182L84.866,300.954L84.36,301.733L83.863,302.519L83.375,303.31L82.897,304.108L82.428,304.912L81.968,305.722L81.518,306.538L81.078,307.36L80.647,308.188L80.227,309.021L79.816,309.861L79.415,310.706L79.024,311.556L78.643,312.412L78.272,313.273L77.911,314.14L77.557,315.021L77.39,315.45L77.221,315.889L77.055,316.33L76.891,316.771L76.731,317.214L76.573,317.658L76.417,318.104L76.264,318.551L76.114,318.999L75.967,319.448L75.822,319.898L75.68,320.35L75.54,320.802L75.404,321.256L75.27,321.711L75.138,322.168L75.01,322.625L74.884,323.084L74.761,323.543L74.641,324.004L74.523,324.466L74.409,324.929L74.297,325.393L74.188,325.858L74.082,326.325L73.978,326.792L73.878,327.26L73.78,327.73L73.685,328.2L73.593,328.672L73.504,329.145L73.418,329.618L73.335,330.093L73.254,330.568L73.177,331.045L73.102,331.523L73.03,332.001L72.962,332.481L72.896,332.961L72.833,333.443L72.773,333.925L72.716,334.409L72.662,334.893L72.611,335.378L72.564,335.864L72.519,336.351L72.477,336.839L72.438,337.328L72.402,337.818L72.37,338.309L72.34,338.8L72.313,339.292L72.29,339.786L72.27,340.28L72.252,340.775L72.238,341.27L72.227,341.767L72.219,342.264L72.215,342.762L72.213,343.261L72.215,343.76L72.219,344.258L72.227,344.756L72.238,345.252L72.252,345.748L72.27,346.243L72.29,346.737L72.313,347.23L72.34,347.722L72.37,348.214L72.402,348.704L72.438,349.194L72.477,349.683L72.519,350.171L72.564,350.658L72.611,351.144L72.662,351.629L72.716,352.114L72.773,352.597L72.833,353.08L72.896,353.561L72.962,354.042L73.03,354.521L73.102,355L73.177,355.477L73.254,355.954L73.335,356.43L73.418,356.904L73.504,357.378L73.593,357.851L73.685,358.322L73.78,358.793L73.878,359.262L73.978,359.731L74.082,360.198L74.188,360.664L74.297,361.129L74.409,361.594L74.523,362.057L74.641,362.518L74.761,362.979L74.884,363.439L75.01,363.897L75.138,364.355L75.27,364.811L75.404,365.266L75.54,365.72L75.68,366.173L75.822,366.624L75.967,367.075L76.114,367.524L76.264,367.972L76.417,368.419L76.573,368.864L76.731,369.308L76.891,369.751L77.055,370.193L77.221,370.633L77.39,371.073L77.557,371.502L77.911,372.382L78.272,373.249L78.643,374.11L79.024,374.966L79.415,375.817L79.816,376.662L80.227,377.501L80.647,378.335L81.078,379.163L81.518,379.985L81.968,380.801L82.428,381.611L82.897,382.415L83.375,383.212L83.863,384.004L84.36,384.789L84.866,385.568L85.381,386.34L85.906,387.106L86.439,387.866L86.981,388.618L87.532,389.364L88.092,390.103L88.66,390.835L89.237,391.56L89.822,392.278L90.416,392.988L91.018,393.692L91.629,394.388L92.247,395.077L92.874,395.758L93.509,396.431L94.151,397.097L94.802,397.756L95.46,398.406L96.126,399.049L96.8,399.684L97.481,400.31L98.17,400.929L98.866,401.539L99.569,402.141L100.28,402.735L100.998,403.321L101.723,403.897L102.455,404.466L103.194,405.025L103.939,405.576L104.692,406.118L105.451,406.652L106.217,407.176L106.989,407.691L107.768,408.197L108.554,408.694L109.345,409.182L110.143,409.661L110.947,410.13L111.757,410.589L112.573,411.039L113.395,411.479L114.223,411.91L115.056,412.331L115.896,412.742L116.741,413.143L117.591,413.534L118.447,413.915L119.308,414.286L120.175,414.646L121.056,415L121.485,415.168L121.924,415.337L122.365,415.503L122.806,415.666L123.249,415.827L123.693,415.985L124.139,416.14L124.586,416.293L125.034,416.443L125.483,416.591L125.933,416.736L126.385,416.878L126.837,417.017L127.291,417.154L127.746,417.288L128.203,417.419L128.66,417.548L129.119,417.673L129.578,417.796L130.039,417.917L130.501,418.034L130.964,418.149L131.428,418.261L131.893,418.37L132.36,418.476L132.827,418.579L133.295,418.68L133.765,418.777L134.235,418.872L134.707,418.964L135.179,419.053L135.653,419.14L136.128,419.223L136.603,419.303L137.08,419.381L137.558,419.456L138.036,419.527L138.516,419.596L138.996,419.662L139.478,419.725L139.96,419.784L140.444,419.841L140.928,419.895L141.413,419.946L141.899,419.994L142.386,420.039L142.745,420.07L142.874,420.081L143.363,420.119L143.853,420.155L144.344,420.188L144.835,420.218L145.327,420.244L145.821,420.268L146.315,420.288L146.81,420.305L147.305,420.319L147.802,420.33L148.299,420.338L148.797,420.343L149.296,420.345L149.795,420.343L150.293,420.338L150.791,420.33L151.287,420.319L151.783,420.305L152.278,420.288L152.772,420.268L153.265,420.244L153.757,420.218L154.249,420.188L154.739,420.155L155.229,420.119L155.718,420.081L156.206,420.039L156.693,419.994L157.179,419.946L157.664,419.895L158.149,419.841L158.632,419.784L159.115,419.725L159.596,419.662L160.077,419.596L160.556,419.527L161.035,419.456L161.512,419.381L161.989,419.303L162.465,419.223L162.939,419.14L163.413,419.053L163.886,418.964L164.357,418.872L164.828,418.777L165.297,418.68L165.766,418.579L166.233,418.476L166.699,418.37L167.164,418.261L167.629,418.149L168.092,418.034L168.553,417.917L169.014,417.796L169.474,417.673L169.932,417.548L170.39,417.419L170.846,417.288L171.301,417.154L171.755,417.017L172.208,416.878L172.659,416.736L173.11,416.591L173.559,416.443L174.007,416.293L174.454,416.14L174.899,415.985L175.343,415.827L175.786,415.666L176.228,415.503L176.668,415.337L177.108,415.168L177.537,415L178.417,414.646L179.284,414.286L180.145,413.915L181.001,413.534L181.852,413.143L182.697,412.742L183.536,412.331L184.37,411.91L185.198,411.479L186.02,411.039L186.836,410.589L187.646,410.13L188.45,409.661L189.247,409.182L190.039,408.694L190.824,408.197L191.603,407.691L192.375,407.176L193.141,406.652L193.901,406.118L194.653,405.576L195.399,405.025L196.138,404.466L196.87,403.897L197.595,403.321L198.313,402.735L199.023,402.141L199.727,401.539L200.423,400.929L201.112,400.31L201.793,399.684L202.466,399.049L203.132,398.406L203.791,397.756L204.441,397.097L205.084,396.431L205.719,395.758L206.345,395.077L206.964,394.388L207.574,393.692L208.176,392.988L208.77,392.278L209.356,391.56L209.932,390.835L210.501,390.103L211.06,389.364L211.611,388.618L212.153,387.866L212.687,387.106L213.211,386.34L213.726,385.568L214.232,384.789L214.729,384.004L215.217,383.212L215.696,382.415L216.165,381.611L216.624,380.801L217.074,379.985L217.514,379.163L217.945,378.335L218.366,377.501L218.777,376.662L219.178,375.817L219.569,374.966L219.95,374.11L220.321,373.249L220.681,372.382L221.035,371.502L221.203,371.073L221.372,370.633L221.538,370.193L221.701,369.751L221.862,369.308L222.02,368.864L222.175,368.419L222.328,367.972L222.478,367.524L222.626,367.075L222.771,366.624L222.913,366.173L223.052,365.72L223.189,365.266L223.323,364.811L223.454,364.355L223.583,363.897L223.708,363.439L223.831,362.979L223.952,362.518L224.069,362.057L224.184,361.594L224.296,361.129L224.405,360.664L224.511,360.198L224.614,359.731L224.715,359.262L224.812,358.793L224.907,358.322L224.999,357.851L225.088,357.378L225.175,356.904L225.258,356.43L225.338,355.954L225.416,355.477L225.49,355L225.562,354.521L225.631,354.042L225.697,353.561L225.76,353.08L225.819,352.597L225.876,352.114L225.93,351.629L225.981,351.144L226.029,350.658L226.074,350.171L226.116,349.683L226.154,349.194L226.19,348.704L226.223,348.214L226.253,347.722L226.279,347.23L226.303,346.737L226.323,346.243L226.34,345.748L226.354,345.252L226.365,344.756L226.373,344.258L226.378,343.76L226.38,343.261L226.378,342.762L226.373,342.264L226.365,341.767L226.354,341.27L226.34,340.775L226.323,340.28L226.303,339.786L226.279,339.292L226.253,338.8L226.223,338.309L226.19,337.818L226.154,337.328L226.116,336.839L226.074,336.351L226.029,335.864L225.981,335.378L225.93,334.893L225.876,334.409L225.819,333.925L225.76,333.443L225.697,332.961L225.631,332.481L225.562,332.001L225.49,331.523L225.416,331.045L225.338,330.568L225.258,330.093L225.175,329.618L225.088,329.145L224.999,328.672L224.907,328.2L224.812,327.73L224.715,327.26L224.614,326.792L224.511,326.325L224.405,325.858L224.296,325.393L224.184,324.929L224.069,324.466L223.952,324.004L223.831,323.543L223.708,323.084L223.583,322.625L223.454,322.168L223.323,321.711L223.189,321.256L223.052,320.802L222.913,320.35L222.771,319.898L222.626,319.448L222.478,318.999L222.328,318.551L222.175,318.104L222.02,317.658L221.862,317.214L221.701,316.771L221.538,316.33L221.372,315.889L221.203,315.45L221.035,315.021L220.681,314.14L220.321,313.273L219.95,312.412L219.569,311.556L219.178,310.706L218.777,309.861L218.366,309.021L217.945,308.188L217.514,307.36L217.074,306.538L216.624,305.722L216.165,304.912L215.696,304.108L215.217,303.31L214.729,302.519L214.232,301.733L213.726,300.954L213.211,300.182L212.687,299.416L212.153,298.657L211.611,297.904L211.06,297.159L210.501,296.42L209.932,295.688L209.356,294.963L208.77,294.245L208.176,293.534L207.574,292.831L206.964,292.135L206.345,291.446L205.719,290.765L205.084,290.091L204.441,289.425L203.791,288.767L203.132,288.116L202.466,287.474L201.793,286.839L201.112,286.212L200.423,285.594L199.727,284.983L199.023,284.381L198.313,283.787L197.595,283.202L196.87,282.625L196.138,282.057L195.399,281.497L194.653,280.946L193.901,280.404L193.141,279.871L192.375,279.346L191.603,278.831L190.824,278.325L190.039,277.828L189.247,277.34L188.45,276.862L187.646,276.393L186.836,275.933L186.02,275.483L185.198,275.043L184.37,274.612L183.536,274.192L182.697,273.781L181.852,273.38L181.001,272.989L180.145,272.608L179.284,272.237L178.417,271.876L177.537,271.522L177.108,271.355L176.668,271.186L176.228,271.02L175.786,270.856L175.343,270.696L174.899,270.538L174.454,270.382L174.007,270.229L173.559,270.079L173.11,269.932L172.659,269.787L172.208,269.645L171.755,269.505L171.301,269.369L170.846,269.235L170.39,269.103L169.932,268.975L169.474,268.849L169.014,268.726L168.553,268.606L168.092,268.488L167.629,268.374L167.164,268.262L166.699,268.153L166.233,268.047L165.766,267.943L165.297,267.843L164.828,267.745L164.357,267.65L163.886,267.558L163.413,267.469L162.939,267.383L162.465,267.3L161.989,267.219L161.512,267.142L161.035,267.067L160.556,266.995L160.077,266.927L159.596,266.861L159.115,266.798L158.632,266.738L158.149,266.681L157.664,266.627L157.179,266.576L156.693,266.529L156.206,266.484L155.718,266.442L155.229,266.403L154.739,266.367L154.249,266.335L153.757,266.305L153.265,266.278L152.772,266.255L152.278,266.235L151.783,266.217L151.287,266.203L150.791,266.192L150.293,266.184L149.795,266.18L149.296,266.178L148.797,266.18ZM150.452,253.685L151.028,253.694L151.604,253.707L152.179,253.724L152.753,253.744L153.326,253.767L153.899,253.794L154.47,253.825L155.041,253.86L155.61,253.898L156.179,253.939L156.747,253.984L157.313,254.033L157.879,254.085L158.444,254.141L159.008,254.2L159.57,254.262L160.132,254.328L160.693,254.398L161.252,254.471L161.811,254.547L162.369,254.627L162.925,254.711L163.48,254.797L164.035,254.888L164.588,254.981L165.14,255.078L165.691,255.178L166.24,255.282L166.789,255.389L167.336,255.499L167.882,255.613L168.427,255.73L168.971,255.85L169.514,255.974L170.055,256.101L170.595,256.231L171.134,256.364L171.671,256.501L172.207,256.641L172.742,256.784L173.276,256.93L173.808,257.08L174.339,257.232L174.868,257.388L175.397,257.547L175.923,257.71L176.449,257.875L176.973,258.043L177.495,258.215L178.017,258.39L178.536,258.568L179.055,258.749L179.572,258.933L180.087,259.12L180.601,259.31L181.114,259.503L181.625,259.699L182.143,259.902L183.148,260.306L184.157,260.725L185.158,261.157L186.154,261.6L187.143,262.054L188.126,262.521L189.102,262.999L190.071,263.488L191.033,263.989L191.989,264.501L192.937,265.024L193.879,265.558L194.813,266.103L195.74,266.659L196.66,267.226L197.573,267.803L198.478,268.391L199.375,268.99L200.264,269.599L201.146,270.218L202.02,270.848L202.886,271.488L203.745,272.138L204.595,272.797L205.436,273.467L206.27,274.147L207.095,274.836L207.912,275.535L208.72,276.244L209.519,276.962L210.31,277.69L211.092,278.427L211.866,279.173L212.63,279.928L213.385,280.692L214.131,281.465L214.868,282.247L215.595,283.038L216.313,283.838L217.022,284.646L217.721,285.462L218.411,286.288L219.09,287.121L219.76,287.963L220.42,288.813L221.07,289.671L221.71,290.537L222.339,291.411L222.959,292.293L223.568,293.183L224.166,294.08L224.755,294.985L225.332,295.897L225.899,296.817L226.455,297.744L227,298.679L227.534,299.62L228.057,300.569L228.569,301.524L229.069,302.487L229.559,303.456L230.037,304.432L230.503,305.414L230.958,306.403L231.401,307.399L231.832,308.401L232.252,309.409L232.656,310.415L232.858,310.933L233.055,311.444L233.248,311.956L233.438,312.47L233.625,312.986L233.809,313.503L233.99,314.021L234.168,314.541L234.342,315.062L234.514,315.585L234.683,316.109L234.848,316.634L235.01,317.161L235.169,317.689L235.325,318.219L235.478,318.75L235.627,319.282L235.774,319.815L235.917,320.35L236.057,320.886L236.193,321.424L236.327,321.963L236.457,322.503L236.584,323.044L236.707,323.586L236.828,324.13L236.944,324.675L237.058,325.221L237.168,325.769L237.276,326.317L237.379,326.867L237.479,327.418L237.576,327.97L237.67,328.523L237.76,329.077L237.847,329.632L237.93,330.189L238.01,330.746L238.087,331.305L238.16,331.865L238.229,332.425L238.295,332.987L238.358,333.55L238.417,334.114L238.473,334.678L238.525,335.244L238.573,335.811L238.618,336.379L238.66,336.947L238.698,337.517L238.732,338.087L238.763,338.659L238.79,339.231L238.814,339.804L238.834,340.378L238.85,340.953L238.863,341.529L238.872,342.106L238.878,342.683L238.88,343.261L238.878,343.839L238.872,344.417L238.863,344.993L238.85,345.569L238.834,346.144L238.814,346.718L238.79,347.291L238.763,347.864L238.732,348.435L238.698,349.006L238.66,349.575L238.618,350.144L238.573,350.712L238.525,351.278L238.473,351.844L238.417,352.409L238.358,352.973L238.295,353.535L238.229,354.097L238.16,354.658L238.087,355.217L238.01,355.776L237.93,356.334L237.847,356.89L237.76,357.445L237.67,358L237.576,358.553L237.479,359.105L237.379,359.656L237.276,360.205L237.168,360.754L237.058,361.301L236.944,361.847L236.828,362.392L236.707,362.936L236.584,363.479L236.457,364.02L236.327,364.56L236.193,365.099L236.057,365.636L235.917,366.172L235.774,366.707L235.627,367.241L235.478,367.773L235.325,368.304L235.169,368.833L235.01,369.362L234.848,369.888L234.683,370.414L234.514,370.938L234.342,371.46L234.168,371.982L233.99,372.501L233.809,373.02L233.625,373.537L233.438,374.052L233.248,374.566L233.055,375.079L232.858,375.59L232.656,376.108L232.252,377.113L231.832,378.122L231.401,379.123L230.958,380.119L230.503,381.108L230.037,382.091L229.559,383.067L229.069,384.036L228.569,384.998L228.057,385.954L227.534,386.902L227,387.844L226.455,388.778L225.899,389.705L225.332,390.625L224.755,391.538L224.166,392.443L223.568,393.34L222.959,394.23L222.339,395.111L221.71,395.985L221.07,396.851L220.42,397.71L219.76,398.56L219.09,399.401L218.411,400.235L217.721,401.06L217.022,401.877L216.313,402.685L215.595,403.484L214.868,404.275L214.131,405.057L213.385,405.831L212.63,406.595L211.866,407.35L211.092,408.096L210.31,408.833L209.519,409.56L208.72,410.278L207.912,410.987L207.095,411.686L206.27,412.376L205.436,413.055L204.595,413.725L203.745,414.385L202.886,415.035L202.02,415.675L201.146,416.304L200.264,416.924L199.375,417.533L198.478,418.131L197.573,418.72L196.66,419.297L195.74,419.864L194.813,420.42L193.879,420.965L192.937,421.499L191.989,422.022L191.033,422.534L190.071,423.034L189.102,423.524L188.126,424.002L187.143,424.468L186.154,424.923L185.158,425.366L184.157,425.797L183.148,426.217L182.143,426.621L181.625,426.823L181.114,427.02L180.601,427.213L180.087,427.403L179.572,427.59L179.055,427.774L178.536,427.955L178.017,428.133L177.495,428.308L176.973,428.479L176.449,428.648L175.923,428.813L175.397,428.975L174.868,429.134L174.339,429.29L173.808,429.443L173.276,429.592L172.742,429.739L172.207,429.882L171.671,430.022L171.134,430.158L170.595,430.292L170.055,430.422L169.514,430.549L168.971,430.672L168.427,430.793L167.882,430.91L167.336,431.023L166.789,431.134L166.24,431.241L165.691,431.344L165.14,431.444L164.588,431.541L164.035,431.635L163.48,431.725L162.925,431.812L162.369,431.895L161.811,431.975L161.252,432.052L160.693,432.125L160.132,432.194L159.57,432.26L159.008,432.323L158.444,432.382L157.879,432.438L157.313,432.49L156.747,432.538L156.179,432.583L155.61,432.625L155.041,432.663L154.47,432.697L153.899,432.728L153.326,432.755L152.753,432.779L152.179,432.799L151.604,432.815L151.028,432.828L150.452,432.837L149.874,432.843L149.296,432.845L148.718,432.843L148.141,432.837L147.564,432.828L146.988,432.815L146.413,432.799L145.839,432.779L145.266,432.755L144.694,432.728L144.122,432.697L143.552,432.663L142.982,432.625L142.414,432.583L141.846,432.538L141.695,432.525L141.279,432.49L140.713,432.438L140.149,432.382L139.585,432.323L139.022,432.26L138.46,432.194L137.9,432.125L137.34,432.052L136.781,431.975L136.224,431.895L135.667,431.812L135.112,431.725L134.558,431.635L134.005,431.541L133.453,431.444L132.902,431.344L132.352,431.241L131.804,431.134L131.256,431.023L130.71,430.91L130.165,430.793L129.621,430.672L129.079,430.549L128.538,430.422L127.998,430.292L127.459,430.158L126.921,430.022L126.385,429.882L125.85,429.739L125.317,429.592L124.785,429.443L124.254,429.29L123.724,429.134L123.196,428.975L122.669,428.813L122.144,428.648L121.62,428.479L121.097,428.308L120.576,428.133L120.056,427.955L119.538,427.774L119.021,427.59L118.505,427.403L117.991,427.213L117.479,427.02L116.968,426.823L116.45,426.621L115.444,426.217L114.436,425.797L113.434,425.366L112.438,424.923L111.449,424.468L110.467,424.002L109.491,423.524L108.522,423.034L107.559,422.534L106.604,422.022L105.655,421.499L104.714,420.965L103.779,420.42L102.852,419.864L101.932,419.297L101.02,418.72L100.115,418.131L99.218,417.533L98.328,416.924L97.446,416.304L96.572,415.675L95.706,415.035L94.848,414.385L93.998,413.725L93.156,413.055L92.323,412.376L91.497,411.686L90.681,410.987L89.873,410.278L89.073,409.56L88.282,408.833L87.5,408.096L86.727,407.35L85.963,406.595L85.208,405.831L84.462,405.057L83.725,404.275L82.997,403.484L82.279,402.685L81.57,401.877L80.871,401.06L80.182,400.235L79.502,399.401L78.832,398.56L78.173,397.71L77.523,396.851L76.883,395.985L76.253,395.111L75.634,394.23L75.025,393.34L74.426,392.443L73.838,391.538L73.261,390.625L72.694,389.705L72.138,388.778L71.593,387.844L71.059,386.902L70.536,385.954L70.024,384.998L69.523,384.036L69.034,383.067L68.556,382.091L68.089,381.108L67.635,380.119L67.192,379.123L66.76,378.122L66.341,377.113L65.937,376.108L65.734,375.59L65.538,375.079L65.345,374.566L65.155,374.052L64.968,373.537L64.784,373.02L64.603,372.501L64.425,371.982L64.25,371.46L64.078,370.938L63.91,370.414L63.745,369.888L63.582,369.362L63.423,368.833L63.267,368.304L63.115,367.773L62.965,367.241L62.819,366.707L62.676,366.172L62.536,365.636L62.399,365.099L62.266,364.56L62.136,364.02L62.009,363.479L61.885,362.936L61.765,362.392L61.648,361.847L61.534,361.301L61.424,360.754L61.317,360.205L61.213,359.656L61.113,359.105L61.016,358.553L60.923,358L60.832,357.445L60.746,356.89L60.662,356.334L60.582,355.776L60.506,355.217L60.433,354.658L60.363,354.097L60.297,353.535L60.235,352.973L60.176,352.409L60.12,351.844L60.068,351.278L60.019,350.712L59.974,350.144L59.933,349.575L59.895,349.006L59.86,348.435L59.829,347.864L59.802,347.291L59.779,346.718L59.759,346.144L59.742,345.569L59.729,344.993L59.72,344.417L59.715,343.839L59.713,343.261L59.715,342.683L59.72,342.106L59.729,341.529L59.742,340.953L59.759,340.378L59.779,339.804L59.802,339.231L59.829,338.659L59.86,338.087L59.895,337.517L59.933,336.947L59.974,336.379L60.019,335.811L60.068,335.244L60.12,334.678L60.176,334.114L60.235,333.55L60.297,332.987L60.363,332.425L60.433,331.865L60.506,331.305L60.582,330.746L60.662,330.189L60.746,329.632L60.832,329.077L60.923,328.523L61.016,327.97L61.113,327.418L61.213,326.867L61.317,326.317L61.424,325.769L61.534,325.221L61.648,324.675L61.765,324.13L61.885,323.586L62.009,323.044L62.136,322.503L62.266,321.963L62.399,321.424L62.536,320.886L62.676,320.35L62.819,319.815L62.965,319.282L63.115,318.75L63.267,318.219L63.423,317.689L63.582,317.161L63.745,316.634L63.91,316.109L64.078,315.585L64.25,315.062L64.425,314.541L64.603,314.021L64.784,313.503L64.968,312.986L65.155,312.47L65.345,311.956L65.538,311.444L65.734,310.933L65.937,310.415L66.341,309.409L66.76,308.401L67.192,307.399L67.635,306.403L68.089,305.414L68.556,304.432L69.034,303.456L69.523,302.487L70.024,301.524L70.536,300.569L71.059,299.62L71.593,298.679L72.138,297.744L72.694,296.817L73.261,295.897L73.838,294.985L74.426,294.08L75.025,293.183L75.634,292.293L76.253,291.411L76.883,290.537L77.523,289.671L78.173,288.813L78.832,287.963L79.502,287.121L80.182,286.288L80.871,285.462L81.57,284.646L82.279,283.838L82.997,283.038L83.725,282.247L84.462,281.465L85.208,280.692L85.963,279.928L86.727,279.173L87.5,278.427L88.282,277.69L89.073,276.962L89.873,276.244L90.681,275.535L91.497,274.836L92.323,274.147L93.156,273.467L93.998,272.797L94.848,272.138L95.706,271.488L96.572,270.848L97.446,270.218L98.328,269.599L99.218,268.99L100.115,268.391L101.02,267.803L101.932,267.226L102.852,266.659L103.779,266.103L104.714,265.558L105.655,265.024L106.604,264.501L107.559,263.989L108.522,263.488L109.491,262.999L110.467,262.521L111.449,262.054L112.438,261.6L113.434,261.157L114.436,260.725L115.444,260.306L116.45,259.902L116.968,259.699L117.479,259.503L117.991,259.31L118.505,259.12L119.021,258.933L119.538,258.749L120.056,258.568L120.576,258.39L121.097,258.215L121.62,258.043L122.144,257.875L122.669,257.71L123.196,257.547L123.724,257.388L124.254,257.232L124.785,257.08L125.317,256.93L125.85,256.784L126.385,256.641L126.921,256.501L127.459,256.364L127.998,256.231L128.538,256.101L129.079,255.974L129.621,255.85L130.165,255.73L130.71,255.613L131.256,255.499L131.804,255.389L132.352,255.282L132.902,255.178L133.453,255.078L134.005,254.981L134.558,254.888L135.112,254.797L135.667,254.711L136.224,254.627L136.781,254.547L137.34,254.471L137.9,254.398L138.46,254.328L139.022,254.262L139.585,254.2L140.149,254.141L140.713,254.085L141.279,254.033L141.846,253.984L142.414,253.939L142.982,253.898L143.552,253.86L144.122,253.825L144.694,253.794L145.266,253.767L145.839,253.744L146.413,253.724L146.988,253.707L147.564,253.694L148.141,253.685L148.718,253.68L149.296,253.678L149.874,253.68L150.452,253.685Z" style="fill:#505a78;"/>
            <circle cx="718.774" cy="341.412" r="83.333" style="fill:#dcdee4;"/>
            <path d="M718.275,264.33L717.777,264.335L717.279,264.343L716.783,264.354L716.287,264.368L715.792,264.385L715.298,264.406L714.805,264.429L714.313,264.456L713.821,264.485L713.33,264.518L712.841,264.554L712.352,264.593L711.864,264.634L711.377,264.679L710.891,264.727L710.405,264.778L709.921,264.832L709.438,264.889L708.955,264.949L708.474,265.011L707.993,265.077L707.514,265.146L707.035,265.218L706.557,265.292L706.081,265.37L705.605,265.45L705.13,265.534L704.657,265.62L704.184,265.709L703.713,265.801L703.242,265.896L702.773,265.993L702.304,266.094L701.837,266.197L701.371,266.304L700.905,266.413L700.441,266.524L699.978,266.639L699.516,266.757L699.056,266.877L698.596,267L698.137,267.125L697.68,267.254L697.224,267.385L696.769,267.519L696.315,267.656L695.862,267.795L695.411,267.937L694.96,268.082L694.511,268.23L694.063,268.38L693.616,268.533L693.171,268.688L692.727,268.846L692.284,269.007L691.842,269.171L691.401,269.337L690.962,269.505L690.533,269.673L689.652,270.027L688.786,270.387L687.924,270.758L687.068,271.139L686.218,271.53L685.373,271.931L684.534,272.342L683.7,272.763L682.872,273.194L682.05,273.634L681.234,274.084L680.424,274.544L679.62,275.013L678.823,275.491L678.031,275.979L677.246,276.476L676.467,276.982L675.694,277.497L674.929,278.021L674.169,278.555L673.417,279.097L672.671,279.648L671.932,280.207L671.2,280.776L670.475,281.353L669.757,281.938L669.047,282.532L668.343,283.134L667.647,283.744L666.958,284.363L666.277,284.99L665.603,285.624L664.937,286.267L664.279,286.917L663.629,287.576L662.986,288.242L662.351,288.915L661.725,289.597L661.106,290.285L660.496,290.981L659.894,291.685L659.3,292.396L658.714,293.113L658.137,293.838L657.569,294.57L657.01,295.309L656.459,296.055L655.916,296.808L655.383,297.567L654.859,298.333L654.344,299.105L653.837,299.884L653.34,300.669L652.853,301.461L652.374,302.259L651.905,303.063L651.446,303.873L650.996,304.689L650.555,305.511L650.125,306.338L649.704,307.172L649.293,308.011L648.892,308.856L648.501,309.707L648.12,310.563L647.749,311.424L647.389,312.291L647.035,313.172L646.867,313.6L646.698,314.04L646.532,314.48L646.369,314.922L646.208,315.365L646.05,315.809L645.894,316.255L645.742,316.701L645.591,317.149L645.444,317.598L645.299,318.049L645.157,318.5L645.018,318.953L644.881,319.407L644.747,319.862L644.616,320.318L644.487,320.776L644.361,321.234L644.238,321.694L644.118,322.155L644.001,322.617L643.886,323.08L643.774,323.544L643.665,324.009L643.559,324.475L643.456,324.943L643.355,325.411L643.257,325.88L643.163,326.351L643.071,326.823L642.982,327.295L642.895,327.769L642.812,328.243L642.732,328.719L642.654,329.196L642.579,329.673L642.508,330.152L642.439,330.631L642.373,331.112L642.31,331.594L642.251,332.076L642.194,332.559L642.14,333.044L642.089,333.529L642.041,334.015L641.996,334.502L641.954,334.99L641.915,335.479L641.88,335.969L641.847,336.459L641.817,336.951L641.791,337.443L641.767,337.936L641.747,338.43L641.73,338.925L641.716,339.421L641.705,339.917L641.697,340.415L641.692,340.913L641.69,341.412L641.692,341.911L641.697,342.409L641.705,342.906L641.716,343.403L641.73,343.899L641.747,344.393L641.767,344.887L641.791,345.381L641.817,345.873L641.847,346.364L641.88,346.855L641.915,347.345L641.954,347.834L641.996,348.322L642.041,348.809L642.089,349.295L642.14,349.78L642.194,350.264L642.251,350.748L642.31,351.23L642.373,351.712L642.439,352.192L642.508,352.672L642.579,353.15L642.654,353.628L642.732,354.105L642.812,354.58L642.895,355.055L642.982,355.529L643.071,356.001L643.163,356.473L643.257,356.943L643.355,357.413L643.456,357.881L643.559,358.349L643.665,358.815L643.774,359.28L643.886,359.744L644.001,360.207L644.118,360.669L644.238,361.13L644.361,361.59L644.487,362.048L644.616,362.505L644.747,362.962L644.881,363.417L645.018,363.871L645.157,364.323L645.299,364.775L645.444,365.225L645.591,365.675L645.742,366.122L645.894,366.569L646.05,367.015L646.208,367.459L646.369,367.902L646.532,368.344L646.698,368.784L646.867,369.223L647.035,369.652L647.389,370.533L647.749,371.4L648.12,372.261L648.501,373.117L648.892,373.968L649.293,374.812L649.704,375.652L650.125,376.485L650.555,377.313L650.996,378.135L651.446,378.951L651.905,379.761L652.374,380.565L652.853,381.363L653.34,382.155L653.837,382.94L654.344,383.719L654.859,384.491L655.383,385.257L655.916,386.016L656.459,386.769L657.01,387.514L657.569,388.253L658.137,388.985L658.714,389.71L659.3,390.428L659.894,391.139L660.496,391.842L661.106,392.538L661.725,393.227L662.351,393.908L662.986,394.582L663.629,395.248L664.279,395.906L664.937,396.557L665.603,397.2L666.277,397.834L666.958,398.461L667.647,399.08L668.343,399.69L669.047,400.292L669.757,400.886L670.475,401.471L671.2,402.048L671.932,402.616L672.671,403.176L673.417,403.727L674.169,404.269L674.929,404.802L675.694,405.327L676.467,405.842L677.246,406.348L678.031,406.845L678.823,407.333L679.62,407.811L680.424,408.28L681.234,408.74L682.05,409.19L682.872,409.63L683.7,410.061L684.534,410.482L685.373,410.892L686.218,411.294L687.068,411.685L687.924,412.066L688.786,412.436L689.652,412.797L690.533,413.151L690.962,413.319L691.401,413.487L691.842,413.653L692.284,413.817L692.727,413.977L693.171,414.136L693.616,414.291L694.063,414.444L694.511,414.594L694.96,414.742L695.411,414.886L695.862,415.029L696.315,415.168L696.769,415.305L697.224,415.439L697.68,415.57L698.137,415.698L698.596,415.824L699.056,415.947L699.516,416.067L699.978,416.185L700.441,416.299L700.905,416.411L701.371,416.52L701.837,416.626L702.304,416.73L702.773,416.83L703.242,416.928L703.713,417.023L704.184,417.115L704.657,417.204L705.13,417.29L705.605,417.374L706.081,417.454L706.557,417.532L707.035,417.606L707.514,417.678L707.993,417.747L708.474,417.812L708.955,417.875L709.438,417.935L709.921,417.992L710.405,418.046L710.891,418.097L711.377,418.145L711.864,418.189L712.222,418.22L712.352,418.231L712.841,418.27L713.33,418.306L713.821,418.339L714.313,418.368L714.805,418.395L715.298,418.418L715.792,418.439L716.287,418.456L716.783,418.47L717.279,418.481L717.777,418.489L718.275,418.494L718.774,418.495L719.273,418.494L719.771,418.489L720.268,418.481L720.765,418.47L721.26,418.456L721.755,418.439L722.249,418.418L722.742,418.395L723.235,418.368L723.726,418.339L724.217,418.306L724.707,418.27L725.195,418.231L725.683,418.189L726.17,418.145L726.657,418.097L727.142,418.046L727.626,417.992L728.11,417.935L728.592,417.875L729.074,417.812L729.554,417.747L730.034,417.678L730.512,417.606L730.99,417.532L731.467,417.454L731.942,417.374L732.417,417.29L732.89,417.204L733.363,417.115L733.835,417.023L734.305,416.928L734.775,416.83L735.243,416.73L735.71,416.626L736.177,416.52L736.642,416.411L737.106,416.299L737.569,416.185L738.031,416.067L738.492,415.947L738.951,415.824L739.41,415.698L739.867,415.57L740.323,415.439L740.779,415.305L741.232,415.168L741.685,415.029L742.137,414.886L742.587,414.742L743.036,414.594L743.484,414.444L743.931,414.291L744.376,414.136L744.821,413.977L745.264,413.817L745.705,413.653L746.146,413.487L746.585,413.319L747.014,413.151L747.895,412.797L748.762,412.436L749.623,412.066L750.479,411.685L751.329,411.294L752.174,410.892L753.014,410.482L753.847,410.061L754.675,409.63L755.497,409.19L756.313,408.74L757.123,408.28L757.927,407.811L758.725,407.333L759.516,406.845L760.302,406.348L761.08,405.842L761.853,405.327L762.619,404.802L763.378,404.269L764.13,403.727L764.876,403.176L765.615,402.616L766.347,402.048L767.072,401.471L767.79,400.886L768.501,400.292L769.204,399.69L769.9,399.08L770.589,398.461L771.27,397.834L771.944,397.2L772.61,396.557L773.268,395.906L773.919,395.248L774.561,394.582L775.196,393.908L775.823,393.227L776.441,392.538L777.052,391.842L777.654,391.139L778.248,390.428L778.833,389.71L779.41,388.985L779.978,388.253L780.538,387.514L781.089,386.769L781.631,386.016L782.164,385.257L782.688,384.491L783.204,383.719L783.71,382.94L784.207,382.155L784.695,381.363L785.173,380.565L785.642,379.761L786.102,378.951L786.551,378.135L786.992,377.313L787.422,376.485L787.843,375.652L788.254,374.812L788.655,373.968L789.046,373.117L789.427,372.261L789.798,371.4L790.159,370.533L790.513,369.652L790.68,369.223L790.849,368.784L791.015,368.344L791.178,367.902L791.339,367.459L791.497,367.015L791.653,366.569L791.806,366.122L791.956,365.675L792.103,365.225L792.248,364.775L792.39,364.323L792.53,363.871L792.666,363.417L792.8,362.962L792.932,362.505L793.06,362.048L793.186,361.59L793.309,361.13L793.429,360.669L793.546,360.207L793.661,359.744L793.773,359.28L793.882,358.815L793.988,358.349L794.092,357.881L794.192,357.413L794.29,356.943L794.385,356.473L794.477,356.001L794.566,355.529L794.652,355.055L794.735,354.58L794.816,354.105L794.893,353.628L794.968,353.15L795.04,352.672L795.108,352.192L795.174,351.712L795.237,351.23L795.297,350.748L795.354,350.264L795.408,349.78L795.458,349.295L795.506,348.809L795.551,348.322L795.593,347.834L795.632,347.345L795.668,346.855L795.7,346.364L795.73,345.873L795.756,345.381L795.78,344.887L795.8,344.393L795.818,343.899L795.832,343.403L795.843,342.906L795.851,342.409L795.855,341.911L795.857,341.412L795.855,340.913L795.851,340.415L795.843,339.917L795.832,339.421L795.818,338.925L795.8,338.43L795.78,337.936L795.756,337.443L795.73,336.951L795.7,336.459L795.668,335.969L795.632,335.479L795.593,334.99L795.551,334.502L795.506,334.015L795.458,333.529L795.408,333.044L795.354,332.559L795.297,332.076L795.237,331.594L795.174,331.112L795.108,330.631L795.04,330.152L794.968,329.673L794.893,329.196L794.816,328.719L794.735,328.243L794.652,327.769L794.566,327.295L794.477,326.823L794.385,326.351L794.29,325.88L794.192,325.411L794.092,324.943L793.988,324.475L793.882,324.009L793.773,323.544L793.661,323.08L793.546,322.617L793.429,322.155L793.309,321.694L793.186,321.234L793.06,320.776L792.932,320.318L792.8,319.862L792.666,319.407L792.53,318.953L792.39,318.5L792.248,318.049L792.103,317.598L791.956,317.149L791.806,316.701L791.653,316.255L791.497,315.809L791.339,315.365L791.178,314.922L791.015,314.48L790.849,314.04L790.68,313.6L790.513,313.172L790.159,312.291L789.798,311.424L789.427,310.563L789.046,309.707L788.655,308.856L788.254,308.011L787.843,307.172L787.422,306.338L786.992,305.511L786.551,304.689L786.102,303.873L785.642,303.063L785.173,302.259L784.695,301.461L784.207,300.669L783.71,299.884L783.204,299.105L782.688,298.333L782.164,297.567L781.631,296.808L781.089,296.055L780.538,295.309L779.978,294.57L779.41,293.838L778.833,293.113L778.248,292.396L777.654,291.685L777.052,290.981L776.441,290.285L775.823,289.597L775.196,288.915L774.561,288.242L773.919,287.576L773.268,286.917L772.61,286.267L771.944,285.624L771.27,284.99L770.589,284.363L769.9,283.744L769.204,283.134L768.501,282.532L767.79,281.938L767.072,281.353L766.347,280.776L765.615,280.207L764.876,279.648L764.13,279.097L763.378,278.555L762.619,278.021L761.853,277.497L761.08,276.982L760.302,276.476L759.516,275.979L758.725,275.491L757.927,275.013L757.123,274.544L756.313,274.084L755.497,273.634L754.675,273.194L753.847,272.763L753.014,272.342L752.174,271.931L751.329,271.53L750.479,271.139L749.623,270.758L748.762,270.387L747.895,270.027L747.014,269.673L746.585,269.505L746.146,269.337L745.705,269.171L745.264,269.007L744.821,268.846L744.376,268.688L743.931,268.533L743.484,268.38L743.036,268.23L742.587,268.082L742.137,267.937L741.685,267.795L741.232,267.656L740.779,267.519L740.323,267.385L739.867,267.254L739.41,267.125L738.951,267L738.492,266.877L738.031,266.757L737.569,266.639L737.106,266.524L736.642,266.413L736.177,266.304L735.71,266.197L735.243,266.094L734.775,265.993L734.305,265.896L733.835,265.801L733.363,265.709L732.89,265.62L732.417,265.534L731.942,265.45L731.467,265.37L730.99,265.292L730.512,265.218L730.034,265.146L729.554,265.077L729.074,265.011L728.592,264.949L728.11,264.889L727.626,264.832L727.142,264.778L726.657,264.727L726.17,264.679L725.683,264.634L725.195,264.593L724.707,264.554L724.217,264.518L723.726,264.485L723.235,264.456L722.742,264.429L722.249,264.406L721.755,264.385L721.26,264.368L720.765,264.354L720.268,264.343L719.771,264.335L719.273,264.33L718.774,264.329L718.275,264.33ZM719.929,251.836L720.506,251.845L721.082,251.858L721.657,251.874L722.231,251.894L722.804,251.918L723.376,251.945L723.947,251.976L724.518,252.01L725.088,252.048L725.656,252.09L726.224,252.135L726.791,252.183L727.356,252.236L727.921,252.291L728.485,252.35L729.048,252.413L729.609,252.479L730.17,252.549L730.73,252.622L731.288,252.698L731.846,252.778L732.402,252.861L732.958,252.948L733.512,253.038L734.065,253.132L734.617,253.229L735.168,253.329L735.718,253.433L736.266,253.54L736.814,253.65L737.36,253.764L737.905,253.881L738.448,254.001L738.991,254.124L739.532,254.251L740.072,254.381L740.611,254.515L741.148,254.651L741.685,254.791L742.219,254.934L742.753,255.081L743.285,255.23L743.816,255.383L744.346,255.539L744.874,255.698L745.401,255.86L745.926,256.026L746.45,256.194L746.973,256.366L747.494,256.54L748.014,256.718L748.532,256.899L749.049,257.083L749.565,257.27L750.078,257.46L750.591,257.654L751.102,257.85L751.62,258.052L752.626,258.456L753.634,258.876L754.636,259.307L755.631,259.75L756.621,260.205L757.603,260.671L758.579,261.149L759.548,261.639L760.511,262.139L761.466,262.651L762.415,263.174L763.356,263.708L764.291,264.253L765.218,264.809L766.138,265.376L767.05,265.954L767.955,266.542L768.852,267.14L769.742,267.749L770.624,268.369L771.498,268.998L772.364,269.638L773.222,270.288L774.072,270.948L774.914,271.618L775.747,272.298L776.572,272.987L777.389,273.686L778.197,274.395L778.997,275.113L779.788,275.84L780.57,276.577L781.343,277.323L782.107,278.078L782.862,278.843L783.608,279.616L784.345,280.398L785.073,281.189L785.791,281.988L786.499,282.796L787.199,283.613L787.888,284.438L788.568,285.272L789.237,286.114L789.897,286.964L790.547,287.822L791.187,288.688L791.817,289.562L792.436,290.444L793.045,291.333L793.644,292.231L794.232,293.135L794.809,294.048L795.376,294.968L795.932,295.895L796.477,296.829L797.011,297.771L797.534,298.719L798.046,299.675L798.547,300.637L799.036,301.606L799.514,302.582L799.98,303.565L800.435,304.554L800.878,305.55L801.31,306.552L801.729,307.56L802.133,308.565L802.336,309.084L802.532,309.595L802.725,310.107L802.915,310.621L803.102,311.136L803.286,311.653L803.467,312.172L803.645,312.691L803.82,313.213L803.992,313.735L804.16,314.259L804.325,314.785L804.488,315.312L804.647,315.84L804.803,316.369L804.955,316.9L805.105,317.432L805.251,317.966L805.394,318.501L805.534,319.037L805.671,319.575L805.804,320.113L805.934,320.653L806.061,321.195L806.185,321.737L806.305,322.281L806.422,322.826L806.536,323.372L806.646,323.919L806.753,324.468L806.857,325.017L806.957,325.568L807.054,326.12L807.147,326.673L807.237,327.228L807.324,327.783L807.408,328.339L807.487,328.897L807.564,329.456L807.637,330.015L807.707,330.576L807.773,331.138L807.835,331.701L807.894,332.264L807.95,332.829L808.002,333.395L808.051,333.962L808.096,334.529L808.137,335.098L808.175,335.668L808.21,336.238L808.24,336.809L808.268,337.382L808.291,337.955L808.311,338.529L808.328,339.104L808.341,339.68L808.35,340.256L808.355,340.834L808.357,341.412L808.355,341.99L808.35,342.568L808.341,343.144L808.328,343.72L808.311,344.295L808.291,344.869L808.268,345.442L808.24,346.014L808.21,346.586L808.175,347.156L808.137,347.726L808.096,348.294L808.051,348.862L808.002,349.429L807.95,349.995L807.894,350.559L807.835,351.123L807.773,351.686L807.707,352.248L807.637,352.808L807.564,353.368L807.487,353.927L807.408,354.484L807.324,355.041L807.237,355.596L807.147,356.15L807.054,356.703L806.957,357.255L806.857,357.806L806.753,358.356L806.646,358.905L806.536,359.452L806.422,359.998L806.305,360.543L806.185,361.087L806.061,361.629L805.934,362.17L805.804,362.71L805.671,363.249L805.534,363.787L805.394,364.323L805.251,364.858L805.105,365.391L804.955,365.924L804.803,366.454L804.647,366.984L804.488,367.512L804.325,368.039L804.16,368.564L803.992,369.088L803.82,369.611L803.645,370.132L803.467,370.652L803.286,371.17L803.102,371.687L802.915,372.203L802.725,372.717L802.532,373.229L802.336,373.74L802.133,374.259L801.729,375.264L801.31,376.272L800.878,377.274L800.435,378.27L799.98,379.259L799.514,380.241L799.036,381.217L798.547,382.187L798.046,383.149L797.534,384.105L797.011,385.053L796.477,385.995L795.932,386.929L795.376,387.856L794.809,388.776L794.232,389.688L793.644,390.593L793.045,391.491L792.436,392.38L791.817,393.262L791.187,394.136L790.547,395.002L789.897,395.86L789.237,396.71L788.568,397.552L787.888,398.385L787.199,399.211L786.499,400.027L785.791,400.836L785.073,401.635L784.345,402.426L783.608,403.208L782.862,403.981L782.107,404.745L781.343,405.501L780.57,406.247L779.788,406.983L778.997,407.711L778.197,408.429L777.389,409.138L776.572,409.837L775.747,410.526L774.914,411.206L774.072,411.876L773.222,412.536L772.364,413.186L771.498,413.825L770.624,414.455L769.742,415.074L768.852,415.683L767.955,416.282L767.05,416.87L766.138,417.448L765.218,418.014L764.291,418.57L763.356,419.115L762.415,419.65L761.466,420.173L760.511,420.684L759.548,421.185L758.579,421.674L757.603,422.152L756.621,422.619L755.631,423.073L754.636,423.517L753.634,423.948L752.626,424.367L751.62,424.771L751.102,424.974L750.591,425.17L750.078,425.363L749.565,425.554L749.049,425.741L748.532,425.925L748.014,426.106L747.494,426.283L746.973,426.458L746.45,426.63L745.926,426.798L745.401,426.964L744.874,427.126L744.346,427.285L743.816,427.441L743.285,427.593L742.753,427.743L742.219,427.889L741.685,428.032L741.148,428.172L740.611,428.309L740.072,428.442L739.532,428.572L738.991,428.699L738.448,428.823L737.905,428.943L737.36,429.06L736.814,429.174L736.266,429.284L735.718,429.391L735.168,429.495L734.617,429.595L734.065,429.692L733.512,429.786L732.958,429.876L732.402,429.962L731.846,430.046L731.288,430.126L730.73,430.202L730.17,430.275L729.609,430.345L729.048,430.411L728.485,430.473L727.921,430.533L727.356,430.588L726.791,430.64L726.224,430.689L725.656,430.734L725.088,430.776L724.518,430.813L723.947,430.848L723.376,430.879L722.804,430.906L722.231,430.93L721.657,430.95L721.082,430.966L720.506,430.979L719.929,430.988L719.352,430.993L718.774,430.995L718.195,430.993L717.618,430.988L717.041,430.979L716.466,430.966L715.891,430.95L715.317,430.93L714.743,430.906L714.171,430.879L713.6,430.848L713.029,430.813L712.46,430.776L711.891,430.734L711.323,430.689L711.173,430.676L710.757,430.64L710.191,430.588L709.626,430.533L709.062,430.473L708.5,430.411L707.938,430.345L707.377,430.275L706.817,430.202L706.259,430.126L705.701,430.046L705.145,429.962L704.589,429.876L704.035,429.786L703.482,429.692L702.93,429.595L702.379,429.495L701.829,429.391L701.281,429.284L700.734,429.174L700.187,429.06L699.643,428.943L699.099,428.823L698.556,428.699L698.015,428.572L697.475,428.442L696.936,428.309L696.399,428.172L695.863,428.032L695.328,427.889L694.794,427.743L694.262,427.593L693.731,427.441L693.202,427.285L692.673,427.126L692.147,426.964L691.621,426.798L691.097,426.63L690.574,426.458L690.053,426.283L689.533,426.106L689.015,425.925L688.498,425.741L687.983,425.554L687.469,425.363L686.956,425.17L686.445,424.974L685.927,424.771L684.922,424.367L683.913,423.948L682.911,423.517L681.916,423.073L680.927,422.619L679.944,422.152L678.968,421.674L677.999,421.185L677.037,420.684L676.081,420.173L675.132,419.65L674.191,419.115L673.257,418.57L672.329,418.014L671.41,417.448L670.497,416.87L669.592,416.282L668.695,415.683L667.805,415.074L666.924,414.455L666.049,413.825L665.183,413.186L664.325,412.536L663.475,411.876L662.634,411.206L661.8,410.526L660.975,409.837L660.158,409.138L659.35,408.429L658.55,407.711L657.76,406.983L656.978,406.247L656.204,405.501L655.44,404.745L654.685,403.981L653.939,403.208L653.202,402.426L652.475,401.635L651.756,400.836L651.048,400.027L650.349,399.211L649.659,398.385L648.98,397.552L648.31,396.71L647.65,395.86L647,395.002L646.36,394.136L645.73,393.262L645.111,392.38L644.502,391.491L643.903,390.593L643.315,389.688L642.738,388.776L642.171,387.856L641.615,386.929L641.07,385.995L640.536,385.053L640.013,384.105L639.501,383.149L639,382.187L638.511,381.217L638.033,380.241L637.567,379.259L637.112,378.27L636.669,377.274L636.238,376.272L635.818,375.264L635.414,374.259L635.212,373.74L635.015,373.229L634.822,372.717L634.632,372.203L634.445,371.687L634.261,371.17L634.08,370.652L633.902,370.132L633.727,369.611L633.556,369.088L633.387,368.564L633.222,368.039L633.06,367.512L632.901,366.984L632.745,366.454L632.592,365.924L632.443,365.391L632.296,364.858L632.153,364.323L632.013,363.787L631.877,363.249L631.743,362.71L631.613,362.17L631.486,361.629L631.363,361.087L631.242,360.543L631.125,359.998L631.012,359.452L630.901,358.905L630.794,358.356L630.691,357.806L630.59,357.255L630.494,356.703L630.4,356.15L630.31,355.596L630.223,355.041L630.14,354.484L630.06,353.927L629.983,353.368L629.91,352.808L629.841,352.248L629.775,351.686L629.712,351.123L629.653,350.559L629.597,349.995L629.545,349.429L629.497,348.862L629.452,348.294L629.41,347.726L629.372,347.156L629.338,346.586L629.307,346.014L629.28,345.442L629.256,344.869L629.236,344.295L629.22,343.72L629.207,343.144L629.198,342.568L629.192,341.99L629.19,341.412L629.192,340.834L629.198,340.256L629.207,339.68L629.22,339.104L629.236,338.529L629.256,337.955L629.28,337.382L629.307,336.809L629.338,336.238L629.372,335.668L629.41,335.098L629.452,334.529L629.497,333.962L629.545,333.395L629.597,332.829L629.653,332.264L629.712,331.701L629.775,331.138L629.841,330.576L629.91,330.015L629.983,329.456L630.06,328.897L630.14,328.339L630.223,327.783L630.31,327.228L630.4,326.673L630.494,326.12L630.59,325.568L630.691,325.017L630.794,324.468L630.901,323.919L631.012,323.372L631.125,322.826L631.242,322.281L631.363,321.737L631.486,321.195L631.613,320.653L631.743,320.113L631.877,319.575L632.013,319.037L632.153,318.501L632.296,317.966L632.443,317.432L632.592,316.9L632.745,316.369L632.901,315.84L633.06,315.312L633.222,314.785L633.387,314.259L633.556,313.735L633.727,313.213L633.902,312.691L634.08,312.172L634.261,311.653L634.445,311.136L634.632,310.621L634.822,310.107L635.015,309.595L635.212,309.084L635.414,308.565L635.818,307.56L636.238,306.552L636.669,305.55L637.112,304.554L637.567,303.565L638.033,302.582L638.511,301.606L639,300.637L639.501,299.675L640.013,298.719L640.536,297.771L641.07,296.829L641.615,295.895L642.171,294.968L642.738,294.048L643.315,293.135L643.903,292.231L644.502,291.333L645.111,290.444L645.73,289.562L646.36,288.688L647,287.822L647.65,286.964L648.31,286.114L648.98,285.272L649.659,284.438L650.349,283.613L651.048,282.796L651.756,281.988L652.475,281.189L653.202,280.398L653.939,279.616L654.685,278.843L655.44,278.078L656.204,277.323L656.978,276.577L657.76,275.84L658.55,275.113L659.35,274.395L660.158,273.686L660.975,272.987L661.8,272.298L662.634,271.618L663.475,270.948L664.325,270.288L665.183,269.638L666.049,268.998L666.924,268.369L667.805,267.749L668.695,267.14L669.592,266.542L670.497,265.954L671.41,265.376L672.329,264.809L673.257,264.253L674.191,263.708L675.132,263.174L676.081,262.651L677.037,262.139L677.999,261.639L678.968,261.149L679.944,260.671L680.927,260.205L681.916,259.75L682.911,259.307L683.913,258.876L684.922,258.456L685.927,258.052L686.445,257.85L686.956,257.654L687.469,257.46L687.983,257.27L688.498,257.083L689.015,256.899L689.533,256.718L690.053,256.54L690.574,256.366L691.097,256.194L691.621,256.026L692.147,255.86L692.673,255.698L693.202,255.539L693.731,255.383L694.262,255.23L694.794,255.081L695.328,254.934L695.863,254.791L696.399,254.651L696.936,254.515L697.475,254.381L698.015,254.251L698.556,254.124L699.099,254.001L699.643,253.881L700.187,253.764L700.734,253.65L701.281,253.54L701.829,253.433L702.379,253.329L702.93,253.229L703.482,253.132L704.035,253.038L704.589,252.948L705.145,252.861L705.701,252.778L706.259,252.698L706.817,252.622L707.377,252.549L707.938,252.479L708.5,252.413L709.062,252.35L709.626,252.291L710.191,252.236L710.757,252.183L711.323,252.135L711.891,252.09L712.46,252.048L713.029,252.01L713.6,251.976L714.171,251.945L714.743,251.918L715.317,251.894L715.891,251.874L716.466,251.858L717.041,251.845L717.618,251.836L718.195,251.83L718.774,251.829L719.352,251.83L719.929,251.836Z" style="fill:#505a78;"/>
        </g>
        <path d="M909.734,1.163L910.139,1.173L910.633,1.211L911.122,1.273L911.604,1.359L912.08,1.469L912.546,1.602L913.003,1.756L913.45,1.932L913.885,2.129L914.307,2.345L914.717,2.581L915.114,2.835L915.496,3.107L915.864,3.397L916.218,3.703L916.556,4.025L916.878,4.363L917.184,4.717L917.474,5.085L917.746,5.467L918,5.864L918.235,6.274L918.452,6.696L918.648,7.131L918.824,7.578L918.979,8.035L919.112,8.501L919.221,8.977L919.307,9.46L919.37,9.949L919.407,10.443L919.417,10.847L919.417,335.738L919.307,337.005L918.978,338.232L918.44,339.384L917.711,340.425L916.813,341.324L915.772,342.053L914.62,342.59L913.392,342.919L912.126,343.03L25.864,343.03L24.647,342.928L23.464,342.624L22.348,342.126L21.331,341.45L20.441,340.613L19.703,339.639L19.139,338.556L18.763,337.394L6.255,283.737L6.161,283.32L6.067,282.877L5.98,282.434L5.899,281.991L5.823,281.547L5.754,281.102L5.691,280.657L5.634,280.212L5.584,279.767L5.539,279.321L5.5,278.875L5.467,278.429L5.441,277.983L5.42,277.538L5.406,277.092L5.397,276.646L5.395,276.201L5.398,275.756L5.407,275.312L5.423,274.867L5.444,274.424L5.471,273.981L5.504,273.538L5.543,273.096L5.588,272.655L5.639,272.214L5.696,271.775L5.758,271.336L5.827,270.899L5.901,270.462L5.981,270.026L6.067,269.592L6.158,269.158L6.255,268.726L6.359,268.295L6.467,267.866L6.582,267.438L6.702,267.011L6.829,266.586L6.96,266.163L7.098,265.741L7.241,265.321L7.39,264.903L7.544,264.486L7.705,264.072L7.87,263.659L8.042,263.248L8.219,262.84L8.402,262.433L8.59,262.029L8.784,261.627L8.983,261.228L9.188,260.83L9.399,260.435L9.615,260.043L9.836,259.653L10.063,259.266L10.296,258.881L10.534,258.5L10.777,258.121L11.026,257.745L11.28,257.372L11.54,257.001L11.79,256.654L54.407,198.476L54.675,198.116L54.964,197.738L55.258,197.365L55.557,196.997L55.862,196.633L56.171,196.274L56.486,195.919L56.805,195.569L57.129,195.224L57.458,194.884L57.791,194.548L58.129,194.218L58.472,193.892L58.82,193.571L59.172,193.255L59.528,192.945L59.889,192.639L60.254,192.338L60.623,192.043L60.997,191.753L61.374,191.469L61.756,191.189L62.142,190.915L62.532,190.647L62.926,190.384L63.324,190.126L63.726,189.874L64.131,189.628L64.54,189.387L64.953,189.153L65.369,188.923L65.766,188.712L154.605,142.303L336.802,9.573L337.142,9.328L337.499,9.076L337.858,8.828L338.22,8.583L338.584,8.342L338.949,8.105L339.317,7.872L339.687,7.642L340.059,7.416L340.433,7.194L340.809,6.976L341.187,6.762L341.566,6.551L341.948,6.345L342.332,6.142L342.717,5.943L343.104,5.748L343.493,5.557L343.883,5.369L344.276,5.186L344.67,5.007L345.065,4.831L345.462,4.659L345.861,4.492L346.262,4.328L346.663,4.168L347.067,4.012L347.471,3.86L347.878,3.713L348.285,3.569L348.694,3.429L349.105,3.293L349.516,3.161L349.929,3.034L350.343,2.91L350.759,2.79L351.175,2.675L351.593,2.563L352.012,2.456L352.432,2.352L352.853,2.253L353.275,2.158L353.698,2.067L354.122,1.98L354.548,1.897L354.974,1.819L355.4,1.744L355.828,1.674L356.257,1.608L356.686,1.546L357.116,1.489L357.547,1.435L357.979,1.386L358.411,1.341L358.844,1.3L359.277,1.264L359.712,1.231L360.146,1.203L360.582,1.18L361.017,1.16L361.453,1.145L361.89,1.134L362.327,1.128L362.746,1.126L909.734,1.163ZM362.471,15.711L362.178,15.715L361.886,15.722L361.594,15.732L361.302,15.745L361.011,15.761L360.72,15.78L360.429,15.802L360.139,15.826L359.849,15.853L359.56,15.883L359.271,15.916L358.983,15.952L358.695,15.991L358.407,16.032L358.12,16.076L357.834,16.123L357.548,16.173L357.263,16.226L356.979,16.281L356.695,16.339L356.411,16.4L356.129,16.464L355.847,16.53L355.566,16.599L355.286,16.671L355.006,16.746L354.727,16.823L354.449,16.904L354.172,16.986L353.895,17.072L353.62,17.16L353.345,17.251L353.071,17.345L352.798,17.441L352.526,17.54L352.255,17.642L351.985,17.746L351.716,17.853L351.448,17.962L351.181,18.075L350.915,18.19L350.651,18.307L350.387,18.427L350.124,18.55L349.863,18.675L349.603,18.803L349.344,18.934L349.086,19.067L348.829,19.203L348.574,19.341L348.319,19.482L348.066,19.626L347.815,19.772L347.565,19.92L347.316,20.071L347.068,20.225L346.822,20.381L346.577,20.54L346.334,20.701L346.092,20.865L345.851,21.031L345.612,21.2L345.36,21.382L162.317,154.727L72.565,201.614L72.307,201.751L72.073,201.88L71.842,202.011L71.613,202.146L71.386,202.284L71.161,202.425L70.938,202.57L70.717,202.717L70.499,202.867L70.282,203.021L70.069,203.177L69.857,203.337L69.648,203.499L69.441,203.665L69.236,203.833L69.034,204.004L68.834,204.178L68.637,204.355L68.443,204.535L68.25,204.718L68.061,204.903L67.874,205.091L67.69,205.282L67.508,205.475L67.329,205.671L67.153,205.87L66.98,206.071L66.809,206.275L66.642,206.481L66.477,206.69L66.315,206.901L66.14,207.136L23.584,265.232L23.421,265.458L23.276,265.666L23.133,265.875L22.994,266.086L22.857,266.298L22.724,266.512L22.594,266.727L22.466,266.944L22.342,267.162L22.221,267.382L22.103,267.603L21.989,267.826L21.877,268.05L21.769,268.275L21.663,268.501L21.561,268.729L21.462,268.958L21.366,269.188L21.273,269.419L21.183,269.651L21.096,269.884L21.013,270.119L20.933,270.354L20.856,270.59L20.782,270.828L20.711,271.066L20.644,271.305L20.58,271.545L20.518,271.785L20.461,272.027L20.406,272.269L20.355,272.512L20.307,272.755L20.262,272.999L20.22,273.244L20.182,273.49L20.147,273.735L20.115,273.982L20.087,274.229L20.062,274.476L20.04,274.723L20.021,274.971L20.006,275.22L19.994,275.468L19.985,275.717L19.98,275.966L19.978,276.215L19.98,276.465L19.985,276.714L19.993,276.964L20.004,277.213L20.019,277.463L20.037,277.713L20.059,277.962L20.084,278.212L20.113,278.461L20.144,278.711L20.18,278.96L20.218,279.209L20.261,279.458L20.306,279.707L20.355,279.955L20.408,280.203L20.469,280.475L31.651,328.447L904.834,328.447L904.834,15.746L362.782,15.709L362.471,15.711Z" style="fill:#505a78;"/>
        <path d="M887.943,168.394L887.901,168.959L887.831,169.518L887.734,170.073L887.611,170.62L887.461,171.16L887.286,171.691L887.084,172.212L886.858,172.723L886.607,173.223L886.331,173.71L886.031,174.185L885.708,174.645L885.361,175.09L884.991,175.519L884.6,175.93L884.189,176.322L883.76,176.691L883.315,177.038L882.855,177.361L882.38,177.661L881.893,177.937L881.393,178.188L880.882,178.415L880.36,178.616L879.829,178.792L879.29,178.941L878.742,179.065L878.188,179.161L877.628,179.231L877.064,179.273L876.586,179.285L399.655,179.285L399.177,179.273L398.613,179.231L398.053,179.161L397.499,179.065L396.952,178.941L396.412,178.792L395.881,178.616L395.359,178.415L394.848,178.188L394.348,177.937L393.861,177.661L393.387,177.361L392.926,177.038L392.481,176.691L392.053,176.322L391.641,175.93L391.25,175.519L390.88,175.09L390.534,174.645L390.21,174.185L389.91,173.71L389.635,173.223L389.383,172.723L389.157,172.212L388.956,171.691L388.78,171.16L388.63,170.62L388.507,170.073L388.41,169.518L388.341,168.959L388.299,168.394L388.287,167.917L388.287,152.304L388.287,81.829L388.299,81.352L388.341,80.787L388.41,80.227L388.507,79.673L388.63,79.126L388.78,78.586L388.956,78.055L389.157,77.533L389.383,77.022L389.635,76.523L389.91,76.035L390.21,75.561L390.534,75.101L390.88,74.656L391.25,74.227L391.641,73.815L392.053,73.424L392.481,73.054L392.926,72.708L393.387,72.384L393.861,72.084L394.348,71.809L394.848,71.557L395.359,71.331L395.881,71.13L396.412,70.954L396.952,70.804L397.499,70.681L398.053,70.584L398.613,70.515L399.177,70.473L399.655,70.461L876.586,70.461L877.064,70.473L877.628,70.515L878.188,70.584L878.742,70.681L879.29,70.804L879.829,70.954L880.36,71.13L880.882,71.331L881.393,71.557L881.893,71.809L882.38,72.084L882.855,72.384L883.315,72.708L883.76,73.054L884.189,73.424L884.6,73.815L884.991,74.227L885.361,74.656L885.708,75.101L886.031,75.561L886.331,76.035L886.607,76.523L886.858,77.022L887.084,77.533L887.286,78.055L887.461,78.586L887.611,79.126L887.734,79.673L887.831,80.227L887.901,80.787L887.943,81.352L887.954,81.829L887.954,167.917L887.943,168.394ZM402.87,85.044L402.87,164.701L873.371,164.701L873.371,85.044L402.87,85.044Z" style="fill:#dcdee4;"/>
        <path d="M322.536,204.346L324.678,209.454L324.678,209.538L322.536,214.646L317.428,216.788L280.908,216.788L275.8,214.646L273.658,209.538L273.658,209.454L275.8,204.346L280.908,202.204L317.428,202.204L322.536,204.346Z" style="fill:#505a78;"/>
        <path d="M434.384,204.346L436.526,209.454L436.526,209.538L434.384,214.646L429.276,216.788L392.756,216.788L387.648,214.646L385.506,209.538L385.506,209.454L387.648,204.346L392.756,202.204L429.276,202.204L434.384,204.346Z" style="fill:#505a78;"/>
        <path d="M761.897,204.346L764.038,209.454L764.038,209.538L761.897,214.646L756.788,216.788L585.696,216.788L580.588,214.646L578.446,209.538L578.446,209.454L580.588,204.346L585.696,202.204L756.788,202.204L761.897,204.346Z" style="fill:#505a78;"/>
        <path d="M368.158,42.936L580.697,42.936L582.177,43.066L583.612,43.451L584.959,44.079L586.176,44.931L587.227,45.982L588.079,47.199L588.707,48.545L589.092,49.981L589.221,51.461L589.221,327.674L586.717,333.652L580.738,336.157L580.697,336.157L580.697,339.688L580.655,339.688L574.676,336.146L572.172,327.674L572.172,327.632L572.172,59.986L376.683,59.986L376.683,327.674L374.178,333.652L368.2,336.157L368.116,336.157L362.137,333.652L359.633,327.674L359.633,51.461L359.763,49.981L360.147,48.545L360.775,47.199L361.628,45.982L362.678,44.931L363.896,44.079L365.242,43.451L366.678,43.066L368.158,42.936Z" style="fill:#505a78;"/>
        <path d="M195.6,188.812L337.708,186.688L338.431,75.38L291.372,75.304L195.6,145.88L195.6,188.812Z" style="fill:#dcdee4;"/>
        <path d="M195.709,196.103L194.556,196.029L193.43,195.773L192.358,195.343L191.367,194.749L190.483,194.007L189.727,193.133L189.118,192.152L188.672,191.086L188.4,189.964L188.309,188.812L188.309,145.88L188.397,144.747L188.661,143.642L189.092,142.591L189.682,141.62L190.416,140.753L191.275,140.01L287.046,69.434L288.031,68.822L289.101,68.375L290.228,68.102L291.384,68.012L338.443,68.089L339.587,68.181L340.703,68.451L341.762,68.894L342.738,69.497L343.608,70.245L344.35,71.121L344.945,72.103L345.379,73.165L345.64,74.283L345.723,75.428L345.561,100.416L344.999,186.735L344.883,187.984L344.555,189.194L344.025,190.33L343.308,191.358L342.425,192.248L341.403,192.974L340.271,193.514L339.064,193.852L337.817,193.979L195.709,196.103ZM330.931,107.45L331.092,82.66L293.763,82.599L202.892,149.564L202.892,181.411L330.463,179.504L330.931,107.45Z" style="fill:#505a78;"/>
        <path d="M213.486,144.373L172.339,176.2L213.742,176.684L213.486,144.373Z" style="fill:#505a78;"/>
        <path d="M214.905,137.221L216.101,137.567L217.22,138.111L218.231,138.837L219.103,139.724L219.812,140.747L220.336,141.875L220.661,143.077L220.777,144.316L221.033,176.626L220.951,177.782L220.686,178.91L220.246,179.981L219.641,180.97L218.888,181.85L218.005,182.6L217.015,183.2L215.941,183.636L214.812,183.897L213.657,183.976L173.657,183.507L172.253,183.491L171.059,183.378L169.898,183.071L168.804,182.578L167.806,181.911L166.931,181.091L166.202,180.137L165.639,179.077L165.258,177.94L165.068,176.755L165.076,175.554L165.28,174.372L165.675,173.239L166.251,172.186L166.992,171.242L167.878,170.432L209.024,138.606L210.07,137.931L211.215,137.444L212.426,137.159L213.669,137.084L214.905,137.221ZM193.366,169.154L206.392,169.306L206.311,159.141L193.366,169.154Z" style="fill:#505a78;"/>
        <g>
            <circle cx="149.296" cy="343.261" r="65.497" style="fill:#505a78;"/>
            <circle cx="149.296" cy="343.261" r="40.605" style="fill:#81889e;"/>
        </g>
        <g>
            <circle cx="720.021" cy="341.412" r="65.497" style="fill:#505a78;"/>
            <circle cx="720.021" cy="341.412" r="40.605" style="fill:#81889e;"/>
        </g>
        <path d="M94.372,241.408C94.372,239.763 93.036,238.428 91.391,238.428L76.285,238.428C74.64,238.428 73.305,239.763 73.305,241.408L73.305,247.37C73.305,249.015 74.64,250.35 76.285,250.35L91.391,250.35C93.036,250.35 94.372,249.015 94.372,247.37L94.372,241.408Z" style="fill:#f79c82;"/>
    </g>
</svg>
